# Blender v2.83.4 OBJ File: 'USB.blend'
# www.blender.org
mtllib USB.mtl
o USB_Slider_Cube.003
v -11.112504 0.643852 -32.031883
v 11.112496 0.643847 -32.031895
v 11.112496 8.512928 -32.031898
v -11.112504 8.512926 -32.031883
v 10.275557 8.512929 -21.275467
v -10.275560 8.512927 -21.275457
v 10.275558 0.643848 -21.291086
v -10.275559 0.643854 -21.291084
v 7.969545 7.629951 -21.277218
v -7.969548 7.629950 -21.277210
v 7.969547 1.526827 -21.289333
v -7.969547 1.526831 -21.289331
v -7.969548 4.647305 -21.283134
v 7.969546 4.527874 -21.283377
v -7.992101 0.643853 -21.291084
v -5.708643 0.643852 -21.291086
v -3.425186 0.643852 -21.291086
v -1.141728 0.643851 -21.291084
v 1.141729 0.643851 -21.291086
v 3.425187 0.643850 -21.291088
v 5.708645 0.643849 -21.291086
v 7.992102 0.643849 -21.291086
v -6.198537 1.526831 -21.289331
v -4.427526 1.526831 -21.289333
v -2.656516 1.526830 -21.289333
v -0.885505 1.526830 -21.289333
v 0.885505 1.526829 -21.289333
v 2.656515 1.526829 -21.289333
v 4.427526 1.526828 -21.289333
v 6.198537 1.526828 -21.289331
v 8.244388 4.594145 -21.283377
v 8.244388 7.803202 -21.277220
v -8.244390 4.717695 -21.283134
v -8.244390 1.489607 -21.289330
v 6.412302 1.489603 -21.289331
v 8.244389 1.489603 -21.289333
v -8.244390 7.803201 -21.277210
v -6.412303 1.489607 -21.289331
v -4.580216 1.489606 -21.289331
v -2.748130 1.489606 -21.289333
v -0.916043 1.489605 -21.289331
v 0.916043 1.489605 -21.289333
v 2.748129 1.489604 -21.289333
v 4.580216 1.489604 -21.289333
v -8.244390 7.803200 -22.733948
v 8.244388 7.803202 -22.733957
v -0.916043 1.492254 -22.733952
v 4.580217 1.492253 -22.733953
v 0.916043 1.492254 -22.733952
v 6.412303 1.492252 -22.733955
v -2.748130 1.492254 -22.733950
v -4.580216 1.492255 -22.733948
v -8.244390 1.492256 -22.733948
v -8.244390 4.720354 -22.733948
v -6.412303 1.492255 -22.733948
v 2.748130 1.492254 -22.733953
v 8.244388 4.596804 -22.733955
v 8.244390 1.492251 -22.733955
v -10.275557 0.643857 0.682257
v -10.275558 8.318762 0.682255
v -7.992097 0.643857 0.682255
v -5.708640 0.643856 0.682255
v -3.425183 0.643856 0.682253
v 3.425190 0.643854 0.682249
v 1.141732 0.643854 0.682251
v -1.141725 0.643855 0.682251
v 5.708648 0.643853 0.682247
v 10.275561 0.643852 0.682245
v 7.992105 0.643852 0.682247
v 10.275559 8.512933 0.682245
v -10.275558 8.512931 0.682257
v 0.974697 9.225155 -5.184427
v 0.974697 8.512932 -5.184427
v 0.000000 9.225155 -5.280426
v 0.000000 8.512931 -5.280426
v -0.974690 9.225155 -5.184429
v -0.974690 8.512931 -5.184429
v -1.911931 9.225155 -4.900120
v -1.911931 8.512931 -4.900120
v 1.911938 9.225155 -4.900120
v 1.911938 8.512932 -4.900120
v -2.775698 9.225155 -4.438429
v -2.775697 8.512931 -4.438429
v 2.775703 9.225155 -4.438429
v 2.775704 8.512932 -4.438429
v -3.532795 9.225155 -3.817095
v -3.532795 8.512931 -3.817095
v 3.532801 9.225156 -3.817095
v 3.532801 8.512932 -3.817095
v -4.154130 9.225155 -3.059999
v -4.154130 8.512931 -3.059999
v 4.154134 9.225156 -3.059998
v 4.154134 8.512932 -3.059998
v -4.615823 9.225155 -2.196234
v -4.615823 8.512932 -2.196234
v 4.615827 9.225157 -2.196232
v 4.615827 8.512932 -2.196232
v -4.900134 9.225155 -1.258993
v -4.900134 8.512932 -1.258993
v 4.900136 9.225157 -1.258991
v 4.900136 8.512932 -1.258991
v -4.996134 9.225155 -0.284296
v -4.996134 8.512932 -0.284296
v 4.996135 9.225157 -0.284294
v 4.996135 8.512932 -0.284294
v -4.900938 9.225156 0.682255
v -4.900939 8.512932 0.682253
v 4.900938 9.225157 0.682249
v 4.900939 8.512932 0.682249
v -10.934016 0.627624 0.682257
v -9.422086 -0.068366 0.682257
v -10.896111 0.472752 0.682257
v -10.784289 0.325645 0.682257
v -10.604162 0.193682 0.682257
v -10.364759 0.083477 0.682257
v -10.078089 0.000559 0.682257
v -9.758523 -0.050916 0.682257
v -9.422086 9.225155 0.682257
v -10.934016 8.529165 0.682257
v -10.454509 8.565095 0.682255
v -9.758523 9.207705 0.682257
v -10.078089 9.156231 0.682257
v -10.364759 9.073313 0.682257
v -10.604162 8.963108 0.682257
v -10.784289 8.831144 0.682257
v -10.896111 8.684038 0.682257
v -9.422089 -0.068369 -22.733946
v -10.934019 0.627620 -22.733946
v -9.758526 -0.050920 -22.733946
v -10.078092 0.000555 -22.733946
v -10.364762 0.083474 -22.733946
v -10.604165 0.193678 -22.733946
v -10.784292 0.325642 -22.733946
v -10.896113 0.472748 -22.733946
v -10.934019 8.529161 -22.733946
v -9.422089 9.225151 -22.733948
v -9.941173 8.700254 -22.733948
v -10.896113 8.684034 -22.733946
v -10.784292 8.831141 -22.733946
v -10.604165 8.963104 -22.733948
v -10.364762 9.073309 -22.733948
v -10.078092 9.156227 -22.733948
v -9.758526 9.207702 -22.733948
v 9.422088 -0.068364 0.682245
v 10.934018 0.627626 0.682245
v 10.341951 0.572042 0.682245
v 9.758525 -0.050914 0.682245
v 10.078091 0.000561 0.682245
v 10.364761 0.083479 0.682245
v 10.604164 0.193684 0.682245
v 10.784291 0.325647 0.682245
v 10.896112 0.472754 0.682245
v 10.934018 8.529167 0.682245
v 9.422088 9.225157 0.682245
v 10.896112 8.684040 0.682245
v 10.784291 8.831146 0.682245
v 10.604164 8.963110 0.682245
v 10.364761 9.073315 0.682245
v 10.078091 9.156233 0.682245
v 9.758525 9.207706 0.682245
v 10.934015 0.627622 -22.733957
v 9.422085 -0.068368 -22.733955
v 9.994328 0.476872 -22.733955
v 10.896110 0.472750 -22.733957
v 10.784288 0.325644 -22.733957
v 10.604161 0.193680 -22.733955
v 10.364758 0.083476 -22.733955
v 10.078088 0.000557 -22.733955
v 9.758522 -0.050918 -22.733955
v 9.422085 9.225153 -22.733957
v 10.934015 8.529163 -22.733957
v 9.758522 9.207703 -22.733957
v 10.078088 9.156229 -22.733957
v 10.364758 9.073311 -22.733957
v 10.604161 8.963106 -22.733957
v 10.784288 8.831142 -22.733957
v 10.896110 8.684036 -22.733957
vt 0.396731 0.121190
vt 0.396731 0.628810
vt 0.396731 0.628810
vt 0.396731 0.496055
vt 0.396731 0.498406
vt 0.396731 0.496035
vt 0.396731 0.489013
vt 0.396731 0.477609
vt 0.396731 0.462261
vt 0.396731 0.443561
vt 0.396731 0.422226
vt 0.396731 0.399075
vt 0.396731 0.375000
vt 0.396731 0.350925
vt 0.396731 0.327775
vt 0.396731 0.306439
vt 0.396731 0.287739
vt 0.396731 0.272391
vt 0.396731 0.260987
vt 0.396731 0.253965
vt 0.396731 0.251594
vt 0.396731 0.253945
vt 0.396731 0.121190
vt 0.497643 0.121220
vt 0.603219 0.121251
vt 0.603219 0.121251
vt 0.497643 0.121220
vt 0.603252 0.290417
vt 0.603263 0.346806
vt 0.603263 0.346806
vt 0.603252 0.290417
vt 0.000000 0.000000
vt 0.000000 0.000000
vt 0.000000 0.000000
vt 0.000000 0.000000
vt 0.603241 0.234029
vt 0.603241 0.234029
vt 0.603230 0.177640
vt 0.603230 0.177640
vt 0.603296 0.515971
vt 0.603307 0.572360
vt 0.603307 0.572360
vt 0.603296 0.515971
vt 0.603285 0.459583
vt 0.603285 0.459583
vt 0.603319 0.628749
vt 0.501735 0.628779
vt 0.501735 0.628779
vt 0.603319 0.628749
vt 0.396731 0.628810
vt 0.396731 0.121190
vt 0.396731 0.121190
vt 0.396731 0.628810
vt 0.603274 0.403194
vt 0.603274 0.403194
vt 0.000000 0.000000
vt 0.000000 0.000000
vt 0.000000 0.000000
vt 0.000000 0.000000
vt 0.396731 0.121190
vt 0.396731 0.628810
vt 0.603241 0.234029
vt 0.603230 0.177640
vt 0.603252 0.290417
vt 0.603263 0.346806
vt 0.603274 0.403194
vt 0.603285 0.459583
vt 0.603296 0.515971
vt 0.603307 0.572360
vt 0.603319 0.628749
vt 0.603219 0.121251
vt 0.497643 0.121220
vt 0.501735 0.628779
vt 0.000000 0.000000
vt 0.000000 0.000000
vt 0.000000 0.000000
vt 0.000000 0.000000
vt 0.000000 0.000000
vt 0.000000 0.000000
vt 0.000000 0.000000
vt 0.000000 0.000000
vt 0.000000 0.000000
vt 0.000000 0.000000
vt 0.000000 0.000000
vt 0.000000 0.000000
vt 0.000000 0.000000
vt 0.000000 0.000000
vt 0.000000 0.000000
vt 0.000000 0.000000
vt 0.000000 0.000000
vt 0.000000 0.000000
vt 0.000000 0.000000
vt 0.000000 0.000000
vt 0.000000 0.000000
vt 0.000000 0.000000
vt 0.000000 0.000000
vt 0.000000 0.000000
vt 0.375000 0.767285
vt 0.401606 0.759257
vt 0.404589 0.760296
vt 0.404589 0.785785
vt 0.404589 0.811275
vt 0.404589 0.836765
vt 0.404589 0.862255
vt 0.404589 0.887745
vt 0.404589 0.913235
vt 0.404589 0.938725
vt 0.404589 0.964215
vt 0.404589 0.989704
vt 0.590702 0.989704
vt 0.600023 0.992502
vt 0.606278 1.000000
vt 0.393722 1.000000
vt 0.389766 0.999509
vt 0.386225 0.998125
vt 0.383004 0.995991
vt 0.379988 0.993278
vt 0.377377 0.990097
vt 0.375621 0.986529
vt 0.375000 0.982715
vt 0.393722 0.500000
vt 0.392525 0.488481
vt 0.425162 0.467031
vt 0.500446 0.467031
vt 0.578200 0.467031
vt 0.578200 0.282969
vt 0.607724 0.262170
vt 0.625000 0.267285
vt 0.625000 0.482715
vt 0.633791 0.495518
vt 0.630865 0.496729
vt 0.627910 0.497814
vt 0.617886 0.498726
vt 0.614364 0.499419
vt 0.610433 0.499853
vt 0.606278 0.500000
vt 0.625000 0.818971
vt 0.595411 0.820292
vt 0.595411 0.760296
vt 0.393722 0.750000
vt 0.606278 0.750000
vt 0.610373 0.750164
vt 0.614190 0.750626
vt 0.617630 0.751337
vt 0.627675 0.752242
vt 0.630731 0.753302
vt 0.633752 0.754491
vt 0.625000 0.767285
vt 0.642285 0.500000
vt 0.857715 0.500000
vt 0.857715 0.750000
vt 0.806029 0.750000
vt 0.807117 0.739681
vt 0.806019 0.729275
vt 0.802769 0.719268
vt 0.797491 0.710046
vt 0.790388 0.701963
vt 0.781732 0.695330
vt 0.771858 0.690401
vt 0.761143 0.687365
vt 0.750000 0.686340
vt 0.738857 0.687365
vt 0.728142 0.690401
vt 0.718268 0.695330
vt 0.709612 0.701963
vt 0.702509 0.710046
vt 0.697231 0.719268
vt 0.693981 0.729275
vt 0.692883 0.739681
vt 0.693971 0.750000
vt 0.642285 0.750000
vt 0.393722 0.000000
vt 0.606278 0.000000
vt 0.606278 0.250000
vt 0.393722 0.250000
vt 0.625000 0.982715
vt 0.595411 0.989704
vt 0.595411 0.929708
vt 0.625000 0.931029
vt 0.603263 0.346806
vt 0.603263 0.346806
vt 0.603252 0.290417
vt 0.603252 0.290417
vt 0.000000 0.000000
vt 0.000000 0.000000
vt 0.603319 0.628749
vt 0.603319 0.628749
vt 0.603307 0.572360
vt 0.603307 0.572360
vt 0.603296 0.515971
vt 0.603296 0.515971
vt 0.603219 0.121251
vt 0.603219 0.121251
vt 0.401826 0.121191
vt 0.603285 0.459583
vt 0.603285 0.459583
vt 0.375000 0.267285
vt 0.375501 0.263445
vt 0.376961 0.259810
vt 0.379264 0.256552
vt 0.382224 0.253817
vt 0.385699 0.251740
vt 0.389584 0.250442
vt 0.503443 0.282969
vt 0.425163 0.282969
vt 0.425163 0.303421
vt 0.425163 0.323872
vt 0.425163 0.344323
vt 0.425163 0.364774
vt 0.425163 0.385226
vt 0.425162 0.405677
vt 0.425162 0.426128
vt 0.425162 0.446580
vt 0.375000 0.482715
vt 0.603241 0.234029
vt 0.603241 0.234029
vt 0.603274 0.403194
vt 0.603274 0.403194
vt 0.603230 0.177640
vt 0.603230 0.177640
vt 0.781250 0.714904
vt 0.781250 0.892960
vt 0.812500 0.892960
vt 0.812500 0.714904
vt 0.750000 0.714904
vt 0.750000 0.892960
vt 0.843750 0.892960
vt 0.843750 0.714904
vt 0.906250 0.714904
vt 0.906250 0.892960
vt 0.937500 0.892960
vt 0.937500 0.714904
vt 0.875000 0.714904
vt 0.875000 0.892960
vt 0.093750 0.714904
vt 0.093750 0.892960
vt 0.125000 0.892960
vt 0.125000 0.714904
vt 0.218750 0.714904
vt 0.218750 0.892960
vt 0.250000 0.892960
vt 0.250000 0.714904
vt 0.719011 0.714904
vt 0.719011 0.892960
vt 0.187500 0.714904
vt 0.187500 0.892960
vt 0.156250 0.892960
vt 0.156250 0.714904
vt 0.062500 0.714904
vt 0.062500 0.892960
vt 0.968750 0.714904
vt 0.968750 0.892960
vt 1.000000 0.892960
vt 1.000000 0.714904
vt 0.000000 0.714904
vt 0.000000 0.892960
vt 0.031250 0.892960
vt 0.031250 0.714904
vt 0.280989 0.892960
vt 0.280989 0.714904
vt 0.861562 0.750000
vt 0.869518 0.750000
vt 0.865215 0.750000
vt 0.868492 0.750000
vt 0.871229 0.750000
vt 0.873288 0.750000
vt 0.874567 0.750000
vt 0.875000 0.750000
vt 0.610326 0.250464
vt 0.613931 0.251834
vt 0.617620 0.255199
vt 0.617886 0.255011
vt 0.617288 0.255433
vt 0.615853 0.256444
vt 0.613656 0.257992
vt 0.375724 0.763501
vt 0.377860 0.760040
vt 0.375000 0.756508
vt 0.386490 0.753998
vt 0.389891 0.755181
vt 0.394295 0.756714
vt 0.399481 0.758518
vt 0.389670 0.499536
vt 0.386051 0.498166
vt 0.382546 0.495041
vt 0.382096 0.495336
vt 0.382526 0.495054
vt 0.383813 0.494208
vt 0.385892 0.492841
vt 0.142285 0.500000
vt 0.142285 0.750000
vt 0.138438 0.750000
vt 0.138438 0.500000
vt 0.134785 0.750000
vt 0.134785 0.500000
vt 0.131508 0.750000
vt 0.131508 0.500000
vt 0.125000 0.750000
vt 0.125000 0.500000
vt 0.382049 0.250000
vt 0.382049 0.000000
vt 0.385599 0.000000
vt 0.385599 0.250000
vt 0.389556 0.000000
vt 0.389556 0.250000
vt 0.861561 0.500000
vt 0.865215 0.500000
vt 0.868492 0.500000
vt 0.875000 0.500000
vt 0.875000 0.750000
vt 0.617951 0.000000
vt 0.617951 0.250000
vt 0.614401 0.250000
vt 0.614401 0.000000
vt 0.610444 0.250000
vt 0.610444 0.000000
vt 0.357715 0.750000
vt 0.357715 0.500000
vt 0.361561 0.500000
vt 0.361561 0.750000
vt 0.365215 0.500000
vt 0.365215 0.750000
vt 0.368492 0.500000
vt 0.368492 0.750000
vt 0.382049 0.500000
vt 0.382049 0.750000
vt 0.385599 0.500000
vt 0.385599 0.750000
vt 0.389556 0.500000
vt 0.389556 0.750000
vn 0.0000 -1.0000 0.0000
vn 0.0004 0.0020 -1.0000
vn 0.0000 0.0007 -1.0000
vn 0.0001 0.0018 -1.0000
vn 0.0005 0.0020 -1.0000
vn 0.0000 -0.0000 -1.0000
vn -0.0004 0.0020 -1.0000
vn -0.0004 0.0009 -1.0000
vn -0.0006 0.0013 -1.0000
vn -0.0005 0.0020 -1.0000
vn -0.0001 0.0018 -1.0000
vn 0.0004 0.0009 -1.0000
vn 0.0006 0.0013 -1.0000
vn 0.0000 1.0000 0.0018
vn 1.0000 -0.0000 0.0000
vn -1.0000 -0.0000 -0.0000
vn -0.0001 -0.0021 1.0000
vn 0.0001 -0.0021 1.0000
vn 0.0000 -0.0023 1.0000
vn -0.0000 -0.0020 1.0000
vn -0.0001 -0.0020 1.0000
vn -0.0000 -0.0021 1.0000
vn 0.0001 -0.0020 1.0000
vn 0.0000 0.0000 1.0000
vn 0.0259 0.9997 -0.0000
vn -0.0259 0.9997 -0.0000
vn -0.0000 1.0000 -0.0000
vn -0.9928 -0.1197 0.0000
vn -0.9928 0.1197 0.0000
vn 0.9928 -0.1197 -0.0000
vn 0.9928 0.1197 -0.0000
vn -0.9808 0.0000 0.1951
vn -0.9239 0.0000 0.3827
vn -0.8315 0.0000 0.5556
vn -0.5556 -0.0000 0.8315
vn -0.3827 0.0000 0.9239
vn -0.7071 -0.0000 0.7071
vn 0.5556 0.0000 0.8315
vn 0.7071 0.0000 0.7071
vn 0.9808 0.0000 0.1951
vn -0.9952 -0.0000 -0.0980
vn 0.9239 0.0000 0.3827
vn 0.8315 0.0000 0.5556
vn 0.3827 0.0000 0.9239
vn -0.1951 0.0000 0.9808
vn -0.0980 0.0000 0.9952
vn 0.0980 0.0000 0.9952
vn 0.1951 0.0000 0.9808
vn 0.9952 -0.0000 -0.0980
vn -0.0259 -0.9997 0.0000
vn -0.1056 -0.9944 0.0000
vn -0.2188 -0.9758 0.0000
vn -0.3490 -0.9371 0.0000
vn -0.5071 -0.8619 0.0000
vn -0.7008 -0.7133 0.0000
vn -0.9026 -0.4305 0.0000
vn -0.1056 0.9944 -0.0000
vn -0.2188 0.9758 -0.0000
vn -0.3490 0.9371 -0.0000
vn -0.5071 0.8619 -0.0000
vn -0.7008 0.7133 -0.0000
vn -0.9026 0.4305 0.0000
vn 0.0259 -0.9997 0.0000
vn 0.1056 -0.9944 0.0000
vn 0.2188 -0.9758 0.0000
vn 0.3490 -0.9371 0.0000
vn 0.5071 -0.8619 0.0000
vn 0.7008 -0.7133 0.0000
vn 0.9026 -0.4305 -0.0000
vn 0.1056 0.9944 -0.0000
vn 0.2188 0.9758 -0.0000
vn 0.3490 0.9371 -0.0000
vn 0.5071 0.8619 -0.0000
vn 0.7008 0.7133 -0.0000
vn 0.9026 0.4305 -0.0000
usemtl USB_Shell
s 1
f 6/1/1 5/2/1 70/3/1 109/4/1 105/5/1 101/6/1 97/7/1 93/8/1 89/9/1 85/10/1 81/11/1 73/12/1 75/13/1 77/14/1 79/15/1 83/16/1 87/17/1 91/18/1 95/19/1 99/20/1 103/21/1 107/22/1 71/23/1
f 13/24/2 12/25/3 34/26/4 33/27/5
f 25/28/6 26/29/6 41/30/6 40/31/6
f 14/32/7 9/33/8 32/34/9 31/35/10
f 24/36/6 25/28/6 40/31/6 39/37/6
f 23/38/6 24/36/6 39/37/6 38/39/6
f 12/25/3 23/38/6 38/39/6 34/26/4
f 29/40/6 30/41/6 35/42/6 44/43/6
f 28/44/6 29/40/6 44/43/6 43/45/6
f 11/46/3 14/47/7 31/48/10 36/49/11
f 9/50/8 10/51/12 37/52/13 32/53/9
f 27/54/6 28/44/6 43/45/6 42/55/6
f 10/56/12 13/57/2 33/58/5 37/59/13
f 32/53/1 37/52/1 45/60/1 46/61/1
f 39/37/14 52/62/14 55/63/14 38/39/14
f 40/31/14 51/64/14 52/62/14 39/37/14
f 41/30/14 47/65/14 51/64/14 40/31/14
f 42/55/14 49/66/14 47/65/14 41/30/14
f 43/45/14 56/67/14 49/66/14 42/55/14
f 44/43/14 48/68/14 56/67/14 43/45/14
f 35/42/14 50/69/14 48/68/14 44/43/14
f 36/49/14 58/70/14 50/69/14 35/42/14
f 34/26/15 53/71/15 54/72/15 33/27/15
f 31/48/16 57/73/16 58/70/16 36/49/16
f 38/39/14 55/63/14 53/71/14 34/26/14
f 37/59/15 33/58/15 54/74/15 45/75/15
f 26/29/6 27/54/6 42/55/6 41/30/6
f 30/41/6 11/46/3 36/49/11 35/42/6
f 5/2/17 6/1/18 37/52/19 32/53/19
f 36/76/20 7/77/20 5/78/17 32/34/19 31/35/21
f 35/79/22 22/80/22 7/77/20 36/76/20
f 44/81/22 21/82/22 22/80/22 35/79/22
f 43/83/22 20/84/22 21/82/22 44/81/22
f 42/85/22 19/86/22 20/84/22 43/83/22
f 41/87/22 18/88/22 19/86/22 42/85/22
f 40/89/22 17/90/22 18/88/22 41/87/22
f 39/91/22 16/92/22 17/90/22 40/89/22
f 38/93/22 15/94/22 16/92/22 39/91/22
f 34/95/20 8/96/20 15/94/22 38/93/22
f 37/59/19 6/97/18 8/96/20 34/95/20 33/58/23
f 144/98/24 146/99/24 68/100/24 69/101/24 67/102/24 64/103/24 65/104/24 66/105/24 63/106/24 62/107/24 61/108/24 59/109/24 60/110/24 120/111/24 119/112/24 110/113/24 112/114/24 113/115/24 114/116/24 115/117/24 116/118/24 117/119/24 111/120/24
f 161/121/6 163/122/6 58/123/6 57/124/6 46/125/6 45/126/6 137/127/6 136/128/6 170/129/6 172/130/6 173/131/6 174/132/6 175/133/6 176/134/6 177/135/6 171/136/6
f 108/137/24 109/138/24 70/139/24 68/100/24 146/99/24 145/140/24 153/141/24 155/142/24 156/143/24 157/144/24 158/145/24 159/146/24 160/147/24 154/148/24
f 170/149/25 136/150/26 118/151/26 106/152/27 102/153/27 98/154/27 94/155/27 90/156/27 86/157/27 82/158/27 78/159/27 76/160/27 74/161/27 72/162/27 80/163/27 84/164/27 88/165/27 92/166/27 96/167/27 100/168/27 104/169/27 108/170/27 154/171/25
f 110/172/28 119/173/29 135/174/29 128/175/28
f 118/176/24 120/111/24 60/110/24 71/177/24 107/178/24 106/179/24
f 66/180/27 18/181/27 17/182/27 63/183/27
f 57/184/16 31/35/16 32/34/16 46/185/16
f 68/186/27 7/187/27 22/188/27 69/189/27
f 70/3/16 5/2/16 7/187/16 68/186/16
f 69/189/27 22/188/27 21/190/27 67/191/27
f 59/192/15 8/193/15 6/1/15 71/23/15 60/194/15
f 67/191/27 21/190/27 20/195/27 64/196/27
f 127/197/6 129/198/6 130/199/6 131/200/6 132/201/6 133/202/6 134/203/6 128/175/6 135/174/6 137/127/6 45/126/6 54/204/6 53/205/6 55/206/6 52/207/6 51/208/6 47/209/6 49/210/6 56/211/6 48/212/6 50/213/6 58/123/6 163/122/6 162/214/6
f 63/183/27 17/182/27 16/215/27 62/216/27
f 65/217/27 19/218/27 18/181/27 66/180/27
f 61/219/27 15/220/27 8/193/27 59/192/27
f 64/196/27 20/195/27 19/218/27 65/217/27
f 161/121/30 171/136/31 153/141/31 145/140/30
f 62/216/27 16/215/27 15/220/27 61/219/27
f 101/221/32 100/222/32 96/223/33 97/224/33
f 105/225/16 104/226/16 100/222/32 101/221/32
f 97/224/33 96/223/33 92/227/34 93/228/34
f 85/229/35 84/230/35 80/231/36 81/232/36
f 89/233/37 88/234/37 84/230/35 85/229/35
f 83/235/38 82/236/38 86/237/39 87/238/39
f 99/239/40 98/240/40 102/241/15 103/242/15
f 104/226/16 105/225/16 109/243/41 108/244/41
f 95/245/42 94/246/42 98/240/40 99/239/40
f 87/238/39 86/237/39 90/247/43 91/248/43
f 79/249/44 78/250/44 82/236/38 83/235/38
f 73/251/45 72/252/45 74/253/46 75/254/46
f 75/255/47 74/256/47 76/257/48 77/258/48
f 91/248/43 90/247/43 94/246/42 95/245/42
f 81/232/36 80/231/36 72/252/45 73/251/45
f 77/258/48 76/257/48 78/250/44 79/249/44
f 103/242/15 102/241/15 106/259/49 107/260/49
f 93/228/34 92/227/34 88/234/37 89/233/37
f 118/151/24 121/261/24 120/262/24
f 121/261/24 122/263/24 120/262/24
f 122/263/24 123/264/24 120/262/24
f 123/264/24 124/265/24 120/262/24
f 124/265/24 125/266/24 120/262/24
f 125/266/24 126/267/24 120/262/24
f 126/267/24 119/268/24 120/262/24
f 135/174/6 138/269/6 137/127/6
f 138/269/6 139/270/6 137/127/6
f 139/270/6 140/271/6 137/127/6
f 140/271/6 141/272/6 137/127/6
f 141/272/6 142/273/6 137/127/6
f 142/273/6 143/274/6 137/127/6
f 143/274/6 136/275/6 137/127/6
f 144/98/24 147/276/24 146/99/24
f 147/276/24 148/277/24 146/99/24
f 148/277/24 149/278/24 146/99/24
f 149/278/24 150/279/24 146/99/24
f 150/279/24 151/280/24 146/99/24
f 151/280/24 152/281/24 146/99/24
f 152/281/24 145/282/24 146/99/24
f 161/121/6 164/283/6 163/122/6
f 164/283/6 165/284/6 163/122/6
f 165/284/6 166/285/6 163/122/6
f 166/285/6 167/286/6 163/122/6
f 167/286/6 168/287/6 163/122/6
f 168/287/6 169/288/6 163/122/6
f 169/288/6 162/289/6 163/122/6
f 127/290/50 111/291/50 117/292/51 129/293/51
f 129/293/51 117/292/51 116/294/52 130/295/52
f 130/295/52 116/294/52 115/296/53 131/297/53
f 131/297/53 115/296/53 114/298/54 132/299/54
f 132/300/54 114/301/54 113/302/55 133/303/55
f 133/303/55 113/302/55 112/304/56 134/305/56
f 134/305/56 112/304/56 110/172/28 128/175/28
f 118/151/26 136/150/26 143/306/57 121/261/57
f 121/261/57 143/306/57 142/307/58 122/263/58
f 122/263/58 142/307/58 141/308/59 123/264/59
f 123/264/59 141/308/59 140/309/60 124/310/60
f 124/311/60 140/312/60 139/313/61 125/314/61
f 125/314/61 139/313/61 138/315/62 126/316/62
f 126/316/62 138/315/62 135/174/29 119/173/29
f 144/317/63 162/318/63 169/319/64 147/320/64
f 147/320/64 169/319/64 168/321/65 148/322/65
f 148/322/65 168/321/65 167/323/66 149/324/66
f 149/324/66 167/323/66 166/325/67 150/326/67
f 150/326/67 166/325/67 165/327/68 151/328/68
f 151/328/68 165/327/68 164/329/69 152/330/69
f 152/330/69 164/329/69 161/121/30 145/140/30
f 170/149/25 154/171/25 160/147/70 172/130/70
f 172/130/70 160/147/70 159/146/71 173/131/71
f 173/131/71 159/146/71 158/145/72 174/132/72
f 174/132/72 158/145/72 157/144/73 175/133/73
f 175/133/73 157/144/73 156/143/74 176/134/74
f 176/134/74 156/143/74 155/142/75 177/135/75
f 177/135/75 155/142/75 153/141/31 171/136/31
f 127/290/50 162/318/63 144/317/63 111/291/50
o USB_Cube.001
v 4.172685 7.759414 -26.492174
v 4.231530 7.759414 -26.487398
v 4.213218 7.708387 -26.411547
v 4.193348 7.676966 -26.329247
v 4.288113 7.759414 -26.473257
v 4.252193 7.708387 -26.401808
v 4.213218 7.676966 -26.324282
v 4.340260 7.759415 -26.450291
v 4.288113 7.708387 -26.385988
v 4.231530 7.676966 -26.316216
v 4.385968 7.759415 -26.419384
v 4.319597 7.708387 -26.364700
v 4.247580 7.676966 -26.305363
v 4.423479 7.759415 -26.381725
v 4.345435 7.708387 -26.338758
v 4.260752 7.676966 -26.292137
v 4.451352 7.759415 -26.338758
v 4.364635 7.708387 -26.309164
v 4.270540 7.676966 -26.277052
v 4.468516 7.759415 -26.292137
v 4.376457 7.708387 -26.277052
v 4.276567 7.676966 -26.260679
v 4.474312 7.759415 -26.243656
v 4.380450 7.708387 -26.243656
v 4.278603 7.676966 -26.243656
v 4.468516 7.759415 -26.195171
v 4.376457 7.708387 -26.210258
v 4.276567 7.676966 -26.226631
v 4.451352 7.759415 -26.148552
v 4.364635 7.708387 -26.178146
v 4.270540 7.676966 -26.210258
v 4.423479 7.759415 -26.105587
v 4.345435 7.708387 -26.148552
v 4.260752 7.676966 -26.195171
v 4.385968 7.759415 -26.067926
v 4.319597 7.708387 -26.122610
v 4.247580 7.676966 -26.181948
v 4.340260 7.759415 -26.037020
v 4.288113 7.708387 -26.101322
v 4.231529 7.676966 -26.171095
v 4.172685 7.666356 -26.243656
v 4.288113 7.759415 -26.014053
v 4.252193 7.708387 -26.085503
v 4.213218 7.676966 -26.163029
v 4.231529 7.759415 -25.999912
v 4.213218 7.708387 -26.075762
v 4.193348 7.676966 -26.158064
v 4.172685 7.759415 -25.995138
v 4.172685 7.708387 -26.072472
v 4.172685 7.676966 -26.156387
v 4.113841 7.759415 -25.999912
v 4.132152 7.708387 -26.075762
v 4.152021 7.676966 -26.158064
v 4.057257 7.759415 -26.014053
v 4.093177 7.708387 -26.085503
v 4.132152 7.676966 -26.163029
v 4.005110 7.759415 -26.037020
v 4.057257 7.708387 -26.101322
v 4.113841 7.676966 -26.171095
v 3.959402 7.759415 -26.067926
v 4.025773 7.708387 -26.122610
v 4.097790 7.676966 -26.181948
v 3.921891 7.759415 -26.105587
v 3.999935 7.708387 -26.148552
v 4.084618 7.676966 -26.195171
v 3.894018 7.759415 -26.148552
v 3.980736 7.708387 -26.178146
v 4.074830 7.676966 -26.210258
v 3.876853 7.759415 -26.195171
v 3.968913 7.708387 -26.210258
v 4.068802 7.676966 -26.226631
v 3.871058 7.759414 -26.243656
v 3.964921 7.708387 -26.243656
v 4.066768 7.676966 -26.243656
v 3.876853 7.759414 -26.292137
v 3.968913 7.708387 -26.277052
v 4.068802 7.676966 -26.260679
v 3.894018 7.759414 -26.338758
v 3.980736 7.708387 -26.309164
v 4.074830 7.676966 -26.277052
v 3.921891 7.759414 -26.381725
v 3.999935 7.708387 -26.338758
v 4.084618 7.676966 -26.292137
v 3.959402 7.759414 -26.419384
v 4.025773 7.708387 -26.364700
v 4.097790 7.676966 -26.305363
v 4.005110 7.759414 -26.450291
v 4.057257 7.708387 -26.385988
v 4.113841 7.676966 -26.316216
v 4.057257 7.759414 -26.473257
v 4.093177 7.708387 -26.401808
v 4.132152 7.676966 -26.324282
v 4.113841 7.759414 -26.487398
v 4.132152 7.708387 -26.411547
v 4.152021 7.676966 -26.329247
v 4.172685 7.708387 -26.414837
v 4.172685 7.676966 -26.330923
v -4.172693 7.759414 -26.492174
v -4.113848 7.759414 -26.487398
v -4.132160 7.708386 -26.411547
v -4.152030 7.676965 -26.329247
v -4.057265 7.759414 -26.473257
v -4.093185 7.708386 -26.401808
v -4.132160 7.676965 -26.324282
v -4.005118 7.759414 -26.450291
v -4.057265 7.708386 -26.385988
v -4.113848 7.676965 -26.316216
v -3.959410 7.759414 -26.419384
v -4.025781 7.708387 -26.364700
v -4.097798 7.676965 -26.305363
v -3.921899 7.759414 -26.381725
v -3.999943 7.708387 -26.338758
v -4.084626 7.676965 -26.292137
v -3.894025 7.759414 -26.338758
v -3.980743 7.708387 -26.309164
v -4.074838 7.676965 -26.277052
v -3.876861 7.759414 -26.292137
v -3.968920 7.708387 -26.277052
v -4.068810 7.676965 -26.260679
v -3.871065 7.759414 -26.243656
v -3.964928 7.708387 -26.243656
v -4.066775 7.676965 -26.243656
v -3.876861 7.759414 -26.195171
v -3.968920 7.708387 -26.210258
v -4.068810 7.676965 -26.226631
v -3.894025 7.759414 -26.148552
v -3.980743 7.708387 -26.178146
v -4.074838 7.676965 -26.210258
v -3.921899 7.759414 -26.105587
v -3.999943 7.708387 -26.148552
v -4.084626 7.676965 -26.195171
v -3.959410 7.759414 -26.067926
v -4.025781 7.708387 -26.122610
v -4.097798 7.676965 -26.181948
v -4.005118 7.759414 -26.037020
v -4.057265 7.708387 -26.101322
v -4.113848 7.676965 -26.171095
v -4.172693 7.666355 -26.243656
v -4.057265 7.759414 -26.014053
v -4.093185 7.708387 -26.085503
v -4.132160 7.676965 -26.163029
v -4.113849 7.759414 -25.999912
v -4.132160 7.708387 -26.075762
v -4.152030 7.676965 -26.158064
v -4.172693 7.759414 -25.995138
v -4.172693 7.708387 -26.072472
v -4.172693 7.676965 -26.156387
v -4.231537 7.759414 -25.999912
v -4.213226 7.708387 -26.075762
v -4.193357 7.676965 -26.158064
v -4.288121 7.759414 -26.014053
v -4.252201 7.708387 -26.085503
v -4.213226 7.676965 -26.163029
v -4.340268 7.759414 -26.037020
v -4.288121 7.708387 -26.101322
v -4.231537 7.676965 -26.171095
v -4.385976 7.759414 -26.067926
v -4.319605 7.708387 -26.122610
v -4.247588 7.676965 -26.181948
v -4.423487 7.759414 -26.105587
v -4.345443 7.708387 -26.148552
v -4.260760 7.676965 -26.195171
v -4.451360 7.759414 -26.148552
v -4.364642 7.708387 -26.178146
v -4.270548 7.676965 -26.210258
v -4.468524 7.759414 -26.195171
v -4.376465 7.708386 -26.210258
v -4.276575 7.676965 -26.226631
v -4.474320 7.759414 -26.243656
v -4.380457 7.708386 -26.243656
v -4.278610 7.676965 -26.243656
v -4.468524 7.759414 -26.292137
v -4.376465 7.708386 -26.277052
v -4.276575 7.676965 -26.260679
v -4.451360 7.759414 -26.338758
v -4.364642 7.708386 -26.309164
v -4.270548 7.676965 -26.277052
v -4.423487 7.759414 -26.381725
v -4.345443 7.708386 -26.338758
v -4.260760 7.676965 -26.292137
v -4.385975 7.759414 -26.419384
v -4.319605 7.708386 -26.364700
v -4.247588 7.676965 -26.305363
v -4.340268 7.759414 -26.450291
v -4.288121 7.708386 -26.385988
v -4.231537 7.676965 -26.316216
v -4.288121 7.759414 -26.473257
v -4.252201 7.708386 -26.401808
v -4.213226 7.676965 -26.324282
v -4.231537 7.759414 -26.487398
v -4.213226 7.708386 -26.411547
v -4.193357 7.676965 -26.329247
v -4.172693 7.708386 -26.414837
v -4.172693 7.676965 -26.330923
v -4.764581 8.512932 -0.947739
v -4.488136 8.512932 -1.859053
v 2.698918 8.512932 -4.039217
v 1.859047 8.512932 -4.488138
v -4.857926 8.512932 -0.000005
v 0.947733 8.512932 -4.764581
v 4.039217 8.512933 -2.698919
v 3.435071 8.512933 -3.435072
v 4.488137 8.512933 -1.859048
v -4.764583 8.512933 0.947730
v -4.758506 8.512932 0.967761
v -2.698914 8.512932 -4.039221
v 4.764581 8.512934 0.947733
v 4.758505 8.512933 0.967761
v 4.857925 8.512934 -0.000001
v -4.039215 8.512932 -2.698924
v -3.435068 8.512932 -3.435076
v -1.859042 8.512932 -4.488141
v -0.000001 8.512932 -4.857925
v 4.764581 8.512933 -0.947735
v -0.947728 8.512932 -4.764583
v 4.758505 9.340896 0.967761
v 4.764581 9.340896 0.947732
v 4.857925 9.340896 -0.000002
v 4.488137 9.340895 -1.859049
v 4.764581 9.340896 -0.947736
v 4.039217 9.340895 -2.698919
v 0.947733 9.340895 -4.764582
v 1.859047 9.340895 -4.488138
v 3.435071 9.340895 -3.435073
v 2.698918 9.340895 -4.039217
v -0.000001 9.340895 -4.857926
v -0.947728 9.340895 -4.764584
v -1.859042 9.340895 -4.488141
v -2.698914 9.340895 -4.039221
v -3.435068 9.340895 -3.435076
v -4.039215 9.340895 -2.698924
v -4.488136 9.340895 -1.859053
v -4.764581 9.340895 -0.947740
v -4.857926 9.340895 -0.000005
v -4.764583 9.340895 0.947730
v -4.758506 9.340895 0.967761
v 11.112500 8.512934 0.967760
v -11.112503 0.643851 -31.749998
v 11.112497 0.643846 -31.750000
v 11.112501 0.643851 0.952141
v 11.112497 8.512929 -31.750002
v -11.112503 8.512927 -31.749996
v -11.112500 8.512932 0.967762
v -11.112499 0.643856 0.952134
v 7.969545 7.629951 -20.995323
v -7.969548 7.629950 -20.995323
v 7.969547 1.526826 -21.007439
v -7.969547 1.526831 -21.007444
v 7.969543 7.629949 -36.526115
v -7.969550 7.629947 -36.526115
v -7.969545 1.550150 -36.526115
v -7.969546 4.670624 -36.526115
v -7.969548 4.647305 -21.001247
v 7.969546 4.527874 -21.001482
v 7.969549 1.550145 -36.526115
v 7.969548 4.551192 -36.526115
v -7.992099 0.643856 0.952135
v -5.708642 0.643855 0.952136
v -3.425184 0.643854 0.952136
v -1.141726 0.643854 0.952137
v 1.141731 0.643853 0.952138
v 3.425189 0.643853 0.952138
v 5.708647 0.643852 0.952139
v 7.992104 0.643852 0.952140
v -7.992101 0.643852 -21.009199
v -5.708644 0.643852 -21.009199
v -3.425186 0.643851 -21.009197
v -1.141728 0.643850 -21.009195
v 1.141729 0.643850 -21.009195
v 3.425187 0.643849 -21.009195
v 5.708645 0.643848 -21.009193
v 7.992102 0.643848 -21.009192
v -6.198537 1.526830 -21.007444
v -4.427526 1.526830 -21.007444
v -2.656516 1.526829 -21.007444
v -0.885505 1.526829 -21.007442
v 0.885505 1.526829 -21.007442
v 2.656515 1.526828 -21.007442
v 4.427526 1.526827 -21.007441
v 6.198536 1.526827 -21.007439
v -6.198535 4.657353 -36.526115
v -4.427525 4.644083 -36.526115
v -2.656514 4.630813 -36.526115
v -0.885504 4.617543 -36.526115
v 0.885506 4.604273 -36.526115
v 2.656517 4.591003 -36.526115
v 4.427527 4.577733 -36.526115
v 6.198537 4.564463 -36.526115
v -6.198535 1.550149 -36.526115
v -4.427525 1.550149 -36.526115
v -2.656514 1.550148 -36.526115
v -0.885504 1.550148 -36.526115
v 0.885507 1.550148 -36.526115
v 2.656518 1.550147 -36.526115
v 4.427528 1.550147 -36.526115
v 6.198538 1.550146 -36.526115
v -6.198537 4.634035 -21.001272
v -4.427527 4.620765 -21.001299
v -2.656517 4.607494 -21.001326
v -0.885506 4.594224 -21.001352
v 0.885504 4.580954 -21.001379
v 2.656515 4.567684 -21.001406
v 4.427525 4.554414 -21.001431
v 6.198535 4.541143 -21.001455
v 7.969547 4.537758 -26.580637
v -7.969546 4.657190 -26.580503
v -6.198536 4.643919 -26.580519
v -4.427526 4.630650 -26.580534
v -2.656516 4.617379 -26.580549
v -0.885505 4.604109 -26.580564
v 0.885505 4.590839 -26.580580
v 2.656516 4.577569 -26.580595
v 4.427526 4.564299 -26.580610
v 6.198536 4.551028 -26.580622
v -6.197228 4.831736 -36.525806
v -4.426219 4.818466 -36.525806
v -2.655208 4.805196 -36.525806
v -0.884197 4.791926 -36.525806
v 0.886813 4.778656 -36.525806
v 2.657824 4.765386 -36.525806
v 4.428833 4.752115 -36.525806
v 6.199844 4.738845 -36.525806
v -6.197229 4.818302 -26.580210
v -4.426219 4.805032 -26.580225
v -2.655209 4.791762 -26.580240
v -0.884198 4.778491 -26.580256
v 0.886812 4.765222 -26.580271
v 2.657822 4.751951 -26.580286
v 4.428833 4.738681 -26.580301
v 6.199843 4.725411 -26.580315
v 8.244389 4.594145 -21.001482
v 8.244388 7.803203 -20.995323
v -8.244390 4.717695 -21.001247
v -8.244390 1.489606 -21.007444
v 6.412302 1.489602 -21.007439
v 8.244389 1.489602 -21.007439
v -8.244390 7.803201 -20.995323
v 8.244391 1.513725 -36.526115
v 8.244390 4.618268 -36.526115
v 8.244390 1.499827 -26.584070
v -8.244390 7.803198 -36.526115
v 8.244387 7.803199 -36.526115
v 6.412305 1.513726 -36.526115
v -8.244388 4.741818 -36.526115
v -8.244388 1.513730 -36.526115
v 8.244390 4.604371 -26.580637
v -8.244388 1.499832 -26.584072
v -8.244388 4.727921 -26.580503
v -6.412303 1.489606 -21.007444
v -4.580216 1.489605 -21.007444
v -2.748130 1.489605 -21.007444
v -0.916044 1.489604 -21.007442
v 0.916043 1.489604 -21.007442
v 2.748129 1.489604 -21.007442
v 4.580216 1.489603 -21.007441
v -6.412301 1.513730 -36.526115
v -4.580215 1.513729 -36.526115
v -2.748128 1.513728 -36.526115
v -0.916042 1.513728 -36.526115
v 0.916045 1.513727 -36.526115
v 2.748132 1.513727 -36.526115
v 4.580218 1.513726 -36.526115
v 6.412304 1.499828 -26.584070
v 4.580217 1.499829 -26.584072
v 2.748130 1.499830 -26.584072
v 0.916044 1.499830 -26.584072
v -0.916043 1.499830 -26.584072
v -2.748129 1.499831 -26.584072
v -4.580215 1.499831 -26.584072
v -6.412302 1.499831 -26.584072
v -11.112497 8.429052 31.750002
v -8.984854 9.340899 31.750000
v -11.059154 8.631958 31.750002
v -10.901795 8.824688 31.750000
v -10.648314 8.997580 31.750000
v -10.311418 9.141964 31.750000
v -9.908005 9.250599 31.750000
v -9.458300 9.318038 31.750000
v 8.984857 -0.184103 0.952138
v 11.112501 0.643851 0.952141
v 9.458301 -0.163345 0.952139
v 9.908006 -0.102110 0.952139
v 10.311420 -0.003470 0.952139
v 10.648315 0.127630 0.952140
v 10.901797 0.284615 0.952140
v 11.059156 0.459613 0.952141
v -8.984857 9.340895 0.967761
v -11.112500 8.512932 0.967762
v -9.458302 9.320136 0.967761
v -9.908008 9.258901 0.967761
v -10.311420 9.160259 0.967761
v -10.648316 9.029158 0.967761
v -10.901798 8.872171 0.967762
v -11.059156 8.697170 0.967762
v -8.984854 -0.184100 31.750000
v -11.112497 0.727747 31.750002
v -9.458300 -0.161239 31.750000
v -9.908005 -0.093799 31.750000
v -10.311418 0.014836 31.750000
v -10.648314 0.159220 31.750000
v -10.901795 0.332111 31.750000
v -11.059154 0.524842 31.750002
v 11.112503 0.727749 31.749998
v 8.984859 -0.184099 31.750000
v 11.059159 0.524844 31.749998
v 10.901801 0.332113 31.750000
v 10.648319 0.159222 31.750000
v 10.311423 0.014838 31.750000
v 9.908010 -0.093797 31.750000
v 9.458305 -0.161237 31.750000
v 8.984859 9.340900 31.750000
v 11.112503 8.429054 31.749998
v 9.458305 9.318040 31.750000
v 9.908010 9.250601 31.750000
v 10.311423 9.141966 31.750000
v 10.648319 8.997581 31.750000
v 10.901801 8.824690 31.750000
v 11.059159 8.631960 31.749998
v 11.112500 8.512934 0.967760
v 8.984857 9.340897 0.967759
v 11.059156 8.697172 0.967760
v 10.901798 8.872173 0.967760
v 10.648316 9.029160 0.967759
v 10.311420 9.160261 0.967759
v 9.908008 9.258902 0.967759
v 9.458302 9.320137 0.967759
v -11.112499 0.643856 0.952134
v -8.984857 -0.184105 0.952131
v -11.059154 0.459617 0.952133
v -10.901795 0.284617 0.952132
v -10.648314 0.127631 0.952132
v -10.311419 -0.003470 0.952131
v -9.908006 -0.102111 0.952131
v -9.458301 -0.163346 0.952131
v 8.944652 8.512934 0.967759
v 10.275558 7.942544 0.966627
v 11.111944 8.512934 0.967760
v 9.240807 8.498632 0.967731
v 9.522110 8.456447 0.967647
v 9.774459 8.388493 0.967512
v 9.985197 8.298176 0.967333
v 10.143757 8.190027 0.967118
v 10.242190 8.069468 0.966879
v -10.275558 7.942543 0.966628
v -8.944651 8.512932 0.967761
v -11.111944 8.512932 0.967762
v -10.242189 8.069466 0.966880
v -10.143757 8.190025 0.967120
v -9.985196 8.298174 0.967335
v -9.774458 8.388491 0.967514
v -9.522110 8.456446 0.967649
v -9.240806 8.498631 0.967733
v 10.275561 1.214240 0.953272
v 8.944654 0.643852 0.952140
v 11.111946 0.643851 0.952141
v 10.242192 1.087316 0.953020
v 10.143760 0.966757 0.952781
v 9.985199 0.858608 0.952566
v 9.774461 0.768292 0.952387
v 9.522113 0.700338 0.952252
v 9.240808 0.658152 0.952168
v -8.944650 0.643856 0.952135
v -10.275558 1.214246 0.953267
v -11.111943 0.643856 0.952134
v -9.240805 0.658157 0.952163
v -9.522109 0.700342 0.952247
v -9.774458 0.768297 0.952382
v -9.985196 0.858614 0.952561
v -10.143756 0.966763 0.952776
v -10.242188 1.087322 0.953015
v 10.275557 7.942541 -20.994703
v 8.944650 8.512930 -20.993570
v 9.244040 8.152499 -20.994461
v 10.242188 8.069464 -20.994452
v 10.143755 8.190023 -20.994213
v 9.985195 8.298172 -20.993996
v 9.774457 8.388489 -20.993816
v 9.522108 8.456444 -20.993683
v 9.240805 8.498629 -20.993599
v -8.944653 8.512928 -20.993570
v -10.275560 7.942539 -20.994705
v -9.244043 8.152498 -20.994461
v -9.240808 8.498627 -20.993599
v -9.522112 8.456442 -20.993683
v -9.774460 8.388487 -20.993818
v -9.985198 8.298171 -20.993998
v -10.143759 8.190022 -20.994213
v -10.242191 8.069463 -20.994453
v 8.944652 0.643848 -21.009192
v 10.275559 1.214236 -21.008059
v 9.320994 1.041316 -21.008368
v 9.240807 0.658149 -21.009163
v 9.522111 0.700334 -21.009079
v 9.774459 0.768288 -21.008945
v 9.985197 0.858605 -21.008766
v 10.143758 0.966754 -21.008549
v 10.242190 1.087313 -21.008310
v -10.275559 1.214242 -21.008064
v -8.944652 0.643852 -21.009199
v -9.320994 1.041322 -21.008373
v -10.242190 1.087318 -21.008316
v -10.143758 0.966759 -21.008556
v -9.985198 0.858610 -21.008770
v -9.774460 0.768294 -21.008951
v -9.522111 0.700339 -21.009087
v -9.240807 0.658153 -21.009171
v 2.706755 7.803200 -30.401138
v 2.706755 7.629949 -30.401138
v 5.445579 7.803200 -30.401138
v 5.445579 7.629949 -30.401138
v 5.445580 7.803201 -27.843666
v 5.445580 7.629950 -27.843666
v 2.706754 7.803201 -29.740881
v 2.706755 7.629949 -29.815430
v 2.706756 7.803201 -27.843666
v 2.706755 7.629950 -27.843666
v -5.445588 7.803200 -30.401138
v -5.445588 7.629948 -30.401138
v -2.706763 7.803200 -30.401138
v -2.706763 7.629949 -30.401138
v -2.706763 7.803201 -27.843666
v -2.706763 7.629949 -27.843666
v -5.445587 7.803200 -27.843664
v -5.445587 7.629949 -27.843666
v -3.818606 7.803201 -26.243656
v -3.825410 7.803201 -26.186739
v -3.845559 7.803201 -26.132010
v -3.845559 7.803201 -26.355299
v -3.878280 7.803201 -26.405739
v -3.878280 7.803201 -26.081573
v -3.922316 7.803201 -26.449947
v -3.922316 7.803201 -26.037363
v -3.975972 7.803201 -26.001081
v -3.975972 7.803201 -26.486229
v -4.037189 7.803201 -25.974121
v -4.103614 7.803201 -26.529789
v -4.103614 7.803201 -25.957518
v -4.172693 7.803201 -26.535397
v -4.172693 7.803201 -25.951916
v -4.369413 7.803201 -26.486229
v -4.308196 7.803201 -26.513189
v -4.308196 7.803201 -25.974121
v -4.241772 7.803201 -26.529789
v -4.241772 7.803201 -25.957521
v -4.369413 7.803201 -26.001081
v -4.519976 7.803201 -26.300570
v -4.499826 7.803201 -26.132010
v -4.519976 7.803201 -26.186739
v -4.499826 7.803201 -26.355299
v -3.825410 7.803201 -26.300570
v -4.037189 7.803201 -26.513189
v -4.423070 7.803201 -26.449947
v -4.423070 7.803201 -26.037363
v -4.467105 7.803201 -26.405739
v -4.467105 7.803201 -26.081573
v -4.526780 7.803201 -26.243656
v 4.526772 7.803202 -26.243656
v 4.519968 7.803202 -26.186739
v 4.499818 7.803202 -26.132010
v 4.499818 7.803202 -26.355299
v 4.467097 7.803202 -26.405735
v 4.467097 7.803202 -26.081573
v 4.423062 7.803202 -26.449947
v 4.423062 7.803202 -26.037363
v 4.369405 7.803202 -26.001081
v 4.369405 7.803202 -26.486229
v 4.308188 7.803202 -25.974121
v 4.241764 7.803201 -26.529789
v 4.241764 7.803202 -25.957518
v 4.172685 7.803201 -26.535397
v 4.172685 7.803202 -25.951916
v 3.975965 7.803201 -26.486229
v 4.037182 7.803201 -26.513187
v 4.037182 7.803202 -25.974121
v 4.103606 7.803201 -26.529789
v 4.103606 7.803202 -25.957518
v 3.975965 7.803202 -26.001081
v 3.825402 7.803201 -26.300570
v 3.845552 7.803202 -26.132010
v 3.825402 7.803202 -26.186739
v 3.845552 7.803201 -26.355299
v 4.519968 7.803202 -26.300570
v 4.308188 7.803201 -26.513187
v 3.922308 7.803201 -26.449947
v 3.878273 7.803202 -26.081573
v 3.922308 7.803202 -26.037363
v 3.878273 7.803201 -26.405735
v 3.818598 7.803201 -26.243656
vt 0.872793 0.316338
vt 0.872793 0.286647
vt 0.872684 0.286641
vt 0.872684 0.316332
vt 0.327115 0.342291
vt 0.327115 0.342291
vt 0.320494 0.343113
vt 0.314204 0.345536
vt 0.308562 0.349440
vt 0.303850 0.354629
vt 0.300305 0.360842
vt 0.298104 0.367768
vt 0.297358 0.375060
vt 0.297358 0.651814
vt 0.298104 0.659106
vt 0.300305 0.666032
vt 0.303850 0.672245
vt 0.308562 0.677434
vt 0.314204 0.681337
vt 0.320494 0.683761
vt 0.327115 0.684583
vt 0.327115 0.684583
vt 0.701705 0.596077
vt 0.534919 0.596077
vt 0.534919 0.872832
vt 0.701705 0.872832
vt 0.872684 0.286645
vt 0.872576 0.286651
vt 0.872576 0.316341
vt 0.872684 0.316335
vt 0.267860 0.866507
vt 0.267860 0.866507
vt 0.261239 0.867329
vt 0.254949 0.869753
vt 0.249307 0.873656
vt 0.244595 0.878845
vt 0.241050 0.885058
vt 0.238849 0.891984
vt 0.238103 0.899276
vt 0.238103 0.964366
vt 0.267860 0.964366
vt 0.000936 -0.002016
vt 0.997049 -0.002016
vt 0.997049 0.997984
vt 0.000936 0.997984
vt 0.000936 0.762791
vt 0.000936 0.233177
vt 0.868548 0.597492
vt 0.701844 0.594480
vt 0.701844 0.594480
vt 0.701762 0.876654
vt 0.701762 0.876654
vt 0.868550 0.873650
vt 0.929612 0.913675
vt 0.929612 0.848584
vt 0.928866 0.841293
vt 0.926665 0.834367
vt 0.923120 0.828153
vt 0.918408 0.822965
vt 0.912766 0.819061
vt 0.906476 0.816638
vt 0.899854 0.815816
vt 0.899854 0.815816
vt 0.899854 0.913675
vt 0.000085 0.896479
vt 0.166788 0.893466
vt 0.166788 0.617291
vt 0.000000 0.614287
vt 0.000000 0.614287
vt 0.000085 0.896479
vt 0.297358 0.966094
vt 0.297367 0.966094
vt 0.310308 0.945689
vt 0.310308 0.704988
vt 0.297367 0.684583
vt 0.297358 0.684583
vt 0.646513 0.320744
vt 0.649001 0.316512
vt 0.534919 0.316512
vt 0.536235 0.320744
vt 0.536235 0.402571
vt 0.534919 0.401160
vt 0.534919 0.429377
vt 0.536235 0.429847
vt 0.642293 0.566225
vt 0.644635 0.570458
vt 0.758044 0.570458
vt 0.751921 0.566225
vt 0.536235 0.375296
vt 0.534919 0.372944
vt 0.536235 0.348020
vt 0.534919 0.344728
vt 0.536235 0.511674
vt 0.534919 0.514026
vt 0.534919 0.542242
vt 0.536235 0.538950
vt 0.536235 0.484398
vt 0.534919 0.485809
vt 0.536235 0.566225
vt 0.534919 0.570458
vt 0.758044 0.316511
vt 0.751921 0.320744
vt 0.536235 0.457123
vt 0.534919 0.457593
vt 0.701762 0.883207
vt 0.868551 0.880872
vt 0.701764 0.889323
vt 0.868552 0.887624
vt 0.701765 0.894696
vt 0.868554 0.893567
vt 0.701762 0.898451
vt 0.701738 0.893263
vt 0.534955 0.893263
vt 0.534982 0.898451
vt 0.701720 0.887050
vt 0.534936 0.887050
vt 0.701709 0.880124
vt 0.534923 0.880124
vt 0.000085 0.903139
vt 0.166789 0.900796
vt 0.000086 0.909572
vt 0.166790 0.907864
vt 0.000088 0.915454
vt 0.166791 0.914316
vt 0.368213 0.316556
vt 0.368199 0.322008
vt 0.534904 0.321991
vt 0.534919 0.316511
vt 0.368188 0.328416
vt 0.534892 0.328420
vt 0.368182 0.335457
vt 0.534885 0.335474
vt 0.368180 0.342780
vt 0.534883 0.342801
vt 0.701709 0.588786
vt 0.534923 0.588786
vt 0.701720 0.581860
vt 0.534936 0.581860
vt 0.701738 0.575647
vt 0.534955 0.575647
vt 0.701762 0.570458
vt 0.534982 0.570458
vt 0.000003 0.596238
vt 0.000001 0.601615
vt 0.166790 0.603313
vt 0.166791 0.597366
vt 0.000000 0.607734
vt 0.166789 0.610068
vt 0.368194 0.619072
vt 0.368196 0.626308
vt 0.534899 0.626325
vt 0.534896 0.619093
vt 0.368203 0.633096
vt 0.534907 0.633099
vt 0.368214 0.639093
vt 0.534919 0.639076
vt 0.701850 0.570458
vt 0.701848 0.575500
vt 0.868551 0.576636
vt 0.868554 0.571118
vt 0.701846 0.581386
vt 0.868549 0.583092
vt 0.701845 0.587820
vt 0.868548 0.590162
vt 0.000000 0.032768
vt 0.000000 0.309523
vt 0.000808 0.316815
vt 0.003192 0.323741
vt 0.007031 0.329954
vt 0.012134 0.335142
vt 0.018244 0.339046
vt 0.025056 0.341470
vt 0.032227 0.342291
vt 0.304410 0.342291
vt 0.311582 0.341470
vt 0.318393 0.339046
vt 0.324504 0.335142
vt 0.329607 0.329954
vt 0.333446 0.323741
vt 0.335829 0.316815
vt 0.336637 0.309523
vt 0.336637 0.032768
vt 0.335829 0.025477
vt 0.333446 0.018551
vt 0.329606 0.012338
vt 0.324503 0.007149
vt 0.318393 0.003245
vt 0.311581 0.000822
vt 0.304410 0.000000
vt 0.032227 0.000000
vt 0.025056 0.000822
vt 0.018244 0.003245
vt 0.012134 0.007149
vt 0.007031 0.012338
vt 0.003191 0.018551
vt 0.000808 0.025477
vt 0.939835 0.851970
vt 0.973370 0.851970
vt 0.944418 0.851459
vt 0.948771 0.849950
vt 0.952675 0.847519
vt 0.955936 0.844288
vt 0.958389 0.840419
vt 0.959912 0.836106
vt 0.960429 0.831565
vt 0.310824 0.950230
vt 0.312347 0.954543
vt 0.314801 0.958412
vt 0.318062 0.961643
vt 0.321966 0.964074
vt 0.326319 0.965583
vt 0.330901 0.966094
vt 0.960429 0.590864
vt 0.973370 0.570458
vt 0.959912 0.586323
vt 0.958389 0.582010
vt 0.955936 0.578141
vt 0.952675 0.574910
vt 0.948771 0.572479
vt 0.944418 0.570970
vt 0.939835 0.570458
vt 0.330901 0.684583
vt 0.326319 0.685094
vt 0.321966 0.686603
vt 0.318062 0.689034
vt 0.314801 0.692265
vt 0.312347 0.696134
vt 0.310824 0.700447
vt 0.973379 0.570458
vt 0.973379 0.851970
vt 0.887991 0.316063
vt 0.887991 0.286371
vt 0.883058 0.286647
vt 0.883058 0.316338
vt 0.877926 0.286740
vt 0.877926 0.316431
vt 0.868744 0.856307
vt 0.898501 0.856307
vt 0.898732 0.843372
vt 0.868975 0.843372
vt 0.869665 0.822730
vt 0.899422 0.822730
vt 0.899854 0.815816
vt 0.870097 0.815816
vt 0.899043 0.832034
vt 0.869286 0.832034
vt 0.869286 0.937843
vt 0.899043 0.937843
vt 0.898732 0.926505
vt 0.868975 0.926505
vt 0.867443 0.316435
vt 0.867443 0.286745
vt 0.862311 0.286651
vt 0.862311 0.316340
vt 0.869665 0.947147
vt 0.899422 0.947147
vt 0.857377 0.286371
vt 0.857377 0.316061
vt 0.898501 0.913570
vt 0.868744 0.913570
vt 0.868554 0.884939
vt 0.898311 0.884939
vt 0.898359 0.870342
vt 0.868602 0.870342
vt 0.868602 0.899535
vt 0.898359 0.899535
vt 0.870097 0.954061
vt 0.899854 0.954061
vt 0.166795 0.854012
vt 0.285728 0.854044
vt 0.285728 0.612761
vt 0.166795 0.612729
vt 0.336641 0.892851
vt 0.455574 0.892819
vt 0.455574 0.651552
vt 0.336641 0.651584
vt 0.619464 0.030696
vt 0.738396 0.030696
vt 0.738396 0.016026
vt 0.619464 0.016026
vt 0.857377 0.012521
vt 0.738445 0.012500
vt 0.738445 0.287556
vt 0.857377 0.287577
vt 0.619464 0.291542
vt 0.738396 0.291542
vt 0.738396 0.276872
vt 0.619464 0.276872
vt 0.367035 0.031282
vt 0.478617 0.031282
vt 0.593955 0.031282
vt 0.606509 0.015887
vt 0.598963 0.000000
vt 0.357138 0.000000
vt 0.350923 0.014701
vt 0.738396 0.241704
vt 0.619464 0.241704
vt 0.738396 0.206536
vt 0.619464 0.206536
vt 0.738396 0.171368
vt 0.619464 0.171368
vt 0.738396 0.136200
vt 0.619464 0.136200
vt 0.738396 0.101032
vt 0.619464 0.101032
vt 0.738396 0.065864
vt 0.619464 0.065864
vt 0.593955 0.285229
vt 0.483057 0.285229
vt 0.367035 0.285229
vt 0.350923 0.301810
vt 0.357138 0.316512
vt 0.598963 0.316511
vt 0.606509 0.300625
vt 0.619464 0.296014
vt 0.619464 0.020498
vt 0.367035 0.257013
vt 0.336638 0.281344
vt 0.336638 0.296014
vt 0.367035 0.087715
vt 0.367035 0.059499
vt 0.336637 0.035168
vt 0.336638 0.070336
vt 0.367035 0.115931
vt 0.336638 0.105504
vt 0.367035 0.144148
vt 0.336638 0.140672
vt 0.367035 0.172364
vt 0.336638 0.175840
vt 0.367035 0.200580
vt 0.336638 0.211008
vt 0.367035 0.228796
vt 0.336638 0.246176
vt 0.336637 0.020498
vt 0.603525 0.000514
vt 0.607858 0.002030
vt 0.611745 0.004472
vt 0.614991 0.007718
vt 0.617434 0.011604
vt 0.618950 0.015936
vt 0.618950 0.300575
vt 0.617434 0.304907
vt 0.614991 0.308794
vt 0.611745 0.312040
vt 0.607858 0.314482
vt 0.603525 0.315998
vt 0.337151 0.015936
vt 0.338668 0.011604
vt 0.341110 0.007718
vt 0.344356 0.004472
vt 0.348243 0.002030
vt 0.352576 0.000514
vt 0.352577 0.315998
vt 0.348244 0.314482
vt 0.344356 0.312040
vt 0.341110 0.308794
vt 0.338668 0.304908
vt 0.337152 0.300575
vt 0.857376 0.007997
vt 0.738443 0.007976
vt 0.857372 0.003760
vt 0.738439 0.003739
vt 0.857365 0.000021
vt 0.738432 0.000000
vt 0.455571 0.909317
vt 0.455572 0.905865
vt 0.336639 0.905897
vt 0.336637 0.909349
vt 0.455573 0.901827
vt 0.336640 0.901858
vt 0.455574 0.897404
vt 0.336641 0.897436
vt 0.619466 0.296103
vt 0.738398 0.296103
vt 0.619473 0.300436
vt 0.738405 0.300436
vt 0.619485 0.304322
vt 0.738417 0.304322
vt 0.619501 0.307568
vt 0.738432 0.307568
vt 0.336639 0.639125
vt 0.336640 0.642843
vt 0.455573 0.642811
vt 0.455572 0.639093
vt 0.336641 0.647066
vt 0.455574 0.647035
vt 0.738398 0.011464
vt 0.619466 0.011464
vt 0.738405 0.007132
vt 0.619474 0.007132
vt 0.738417 0.003246
vt 0.619485 0.003246
vt 0.738432 0.000000
vt 0.619501 0.000000
vt 0.285726 0.866507
vt 0.285727 0.862787
vt 0.166794 0.862755
vt 0.166793 0.866476
vt 0.285728 0.858562
vt 0.166795 0.858530
vt 0.738443 0.292139
vt 0.857376 0.292160
vt 0.738439 0.296552
vt 0.857372 0.296573
vt 0.738432 0.300573
vt 0.857365 0.300594
vt 0.166791 0.596238
vt 0.166793 0.599687
vt 0.285726 0.599719
vt 0.285725 0.596270
vt 0.166794 0.603723
vt 0.285727 0.603755
vt 0.166795 0.608145
vt 0.285728 0.608176
vt 0.368183 0.407762
vt 0.368075 0.407669
vt 0.362942 0.406233
vt 0.357810 0.407667
vt 0.352875 0.411917
vt 0.348327 0.418819
vt 0.344340 0.428107
vt 0.341069 0.439426
vt 0.338639 0.452339
vt 0.337142 0.466350
vt 0.336637 0.480922
vt 0.337144 0.495494
vt 0.338641 0.509506
vt 0.341073 0.522420
vt 0.344346 0.533739
vt 0.348333 0.543028
vt 0.352881 0.549931
vt 0.357817 0.554182
vt 0.362949 0.555618
vt 0.368082 0.554184
vt 0.368190 0.554090
vt 0.287923 0.601174
vt 0.287928 0.600268
vt 0.286334 0.600110
vt 0.286327 0.601174
vt 0.289812 0.601174
vt 0.289815 0.600550
vt 0.291015 0.601174
vt 0.291017 0.600856
vt 0.329940 0.345397
vt 0.329484 0.345089
vt 0.329466 0.345406
vt 0.329520 0.344784
vt 0.287944 0.599397
vt 0.286352 0.599087
vt 0.289826 0.599950
vt 0.291022 0.600550
vt 0.287969 0.598593
vt 0.286382 0.598145
vt 0.289844 0.599397
vt 0.291031 0.600268
vt 0.329571 0.344504
vt 0.288003 0.597889
vt 0.286422 0.597318
vt 0.289867 0.598912
vt 0.291043 0.600021
vt 0.329637 0.344259
vt 0.288045 0.597312
vt 0.286471 0.596640
vt 0.289896 0.598514
vt 0.291058 0.599818
vt 0.329715 0.344058
vt 0.288092 0.596883
vt 0.286527 0.596136
vt 0.289929 0.598218
vt 0.291075 0.599667
vt 0.329800 0.343910
vt 0.289964 0.598036
vt 0.288144 0.596618
vt 0.329892 0.343820
vt 0.329842 0.342348
vt 0.329663 0.342524
vt 0.286587 0.595826
vt 0.327950 0.343920
vt 0.328213 0.343915
vt 0.328213 0.342291
vt 0.327905 0.342298
vt 0.328031 0.345843
vt 0.328212 0.345839
vt 0.329985 0.343791
vt 0.330024 0.342291
vt 0.328393 0.345843
vt 0.328475 0.343920
vt 0.330076 0.343825
vt 0.330203 0.342358
vt 0.328521 0.342298
vt 0.288026 0.637822
vt 0.288002 0.637558
vt 0.286420 0.638304
vt 0.286448 0.638614
vt 0.289868 0.636404
vt 0.289851 0.636222
vt 0.330162 0.343921
vt 0.330372 0.342544
vt 0.290997 0.634773
vt 0.290990 0.634622
vt 0.289836 0.635926
vt 0.330239 0.344073
vt 0.287980 0.637128
vt 0.286394 0.637800
vt 0.287961 0.636550
vt 0.286371 0.637122
vt 0.289823 0.635528
vt 0.290983 0.634419
vt 0.330305 0.344278
vt 0.330357 0.344526
vt 0.287945 0.635847
vt 0.286353 0.636295
vt 0.289812 0.635043
vt 0.290977 0.634172
vt 0.287933 0.635043
vt 0.286339 0.635353
vt 0.289804 0.634490
vt 0.290973 0.633890
vt 0.330393 0.344809
vt 0.330411 0.345115
vt 0.287926 0.634172
vt 0.286330 0.634330
vt 0.289799 0.633890
vt 0.290970 0.633584
vt 0.287923 0.633266
vt 0.286327 0.633266
vt 0.289797 0.633266
vt 0.290970 0.633266
vt 0.330411 0.345433
vt 0.287926 0.632359
vt 0.286330 0.632202
vt 0.289799 0.632641
vt 0.290970 0.632947
vt 0.330393 0.345750
vt 0.287933 0.631488
vt 0.286339 0.631179
vt 0.289804 0.632041
vt 0.290973 0.632641
vt 0.330357 0.346055
vt 0.287945 0.630685
vt 0.286353 0.630236
vt 0.289812 0.631488
vt 0.290977 0.632359
vt 0.330305 0.346335
vt 0.289823 0.631003
vt 0.287961 0.629981
vt 0.290983 0.632112
vt 0.330240 0.346580
vt 0.286371 0.629410
vt 0.287980 0.629403
vt 0.286394 0.628731
vt 0.289836 0.630605
vt 0.290990 0.631909
vt 0.330162 0.346780
vt 0.290997 0.631759
vt 0.289851 0.630309
vt 0.330076 0.346928
vt 0.288002 0.628974
vt 0.286420 0.628227
vt 0.288026 0.628710
vt 0.286448 0.627917
vt 0.289868 0.630127
vt 0.329985 0.347019
vt 0.330024 0.348621
vt 0.330203 0.348445
vt 0.329892 0.347047
vt 0.329842 0.348678
vt 0.327951 0.347472
vt 0.328213 0.347466
vt 0.328213 0.345843
vt 0.327905 0.345850
vt 0.328033 0.349393
vt 0.328214 0.349389
vt 0.328476 0.347472
vt 0.328521 0.345850
vt 0.328395 0.349393
vt 0.329801 0.347013
vt 0.329663 0.348611
vt 0.329715 0.346918
vt 0.288144 0.605730
vt 0.288092 0.605466
vt 0.286527 0.606213
vt 0.286587 0.606523
vt 0.289964 0.604313
vt 0.289929 0.604131
vt 0.329494 0.348425
vt 0.288045 0.605037
vt 0.286471 0.605709
vt 0.289896 0.603835
vt 0.291075 0.602681
vt 0.291058 0.602531
vt 0.329637 0.346765
vt 0.329571 0.346561
vt 0.288003 0.604459
vt 0.286422 0.605030
vt 0.289867 0.603437
vt 0.291043 0.602328
vt 0.287969 0.603755
vt 0.286382 0.604204
vt 0.289844 0.602952
vt 0.291031 0.602081
vt 0.329520 0.346313
vt 0.287944 0.602952
vt 0.286352 0.603261
vt 0.289826 0.602399
vt 0.291022 0.601799
vt 0.329484 0.346030
vt 0.289815 0.601799
vt 0.287928 0.602081
vt 0.291017 0.601493
vt 0.329466 0.345724
vt 0.286334 0.602238
vt 0.287923 0.611871
vt 0.287928 0.610965
vt 0.286334 0.610808
vt 0.286327 0.611871
vt 0.289812 0.611871
vt 0.289815 0.611247
vt 0.291015 0.611871
vt 0.291017 0.611553
vt 0.328992 0.345572
vt 0.329448 0.345880
vt 0.329466 0.345563
vt 0.329412 0.346185
vt 0.287944 0.610094
vt 0.286352 0.609785
vt 0.289826 0.610647
vt 0.291022 0.611247
vt 0.287969 0.609291
vt 0.286382 0.608842
vt 0.289844 0.610094
vt 0.291031 0.610965
vt 0.329360 0.346465
vt 0.288003 0.608587
vt 0.286422 0.608015
vt 0.289867 0.609609
vt 0.291043 0.610718
vt 0.329295 0.346710
vt 0.288045 0.608009
vt 0.286471 0.607337
vt 0.289896 0.609211
vt 0.291058 0.610515
vt 0.329217 0.346911
vt 0.288092 0.607580
vt 0.286527 0.606833
vt 0.289929 0.608915
vt 0.291075 0.610364
vt 0.329131 0.347059
vt 0.289964 0.608733
vt 0.288144 0.607315
vt 0.329040 0.347149
vt 0.329090 0.348621
vt 0.329269 0.348445
vt 0.286587 0.606523
vt 0.327334 0.343920
vt 0.327596 0.343915
vt 0.327596 0.342291
vt 0.327288 0.342298
vt 0.327415 0.345843
vt 0.327596 0.345839
vt 0.328947 0.347178
vt 0.328908 0.348678
vt 0.327776 0.345843
vt 0.327859 0.343920
vt 0.328856 0.347144
vt 0.328729 0.348611
vt 0.327905 0.342298
vt 0.288026 0.627125
vt 0.288002 0.626860
vt 0.286420 0.627607
vt 0.286448 0.627917
vt 0.289868 0.625707
vt 0.289851 0.625525
vt 0.328770 0.347048
vt 0.328560 0.348425
vt 0.290997 0.624076
vt 0.290990 0.623925
vt 0.289836 0.625229
vt 0.328692 0.346896
vt 0.287980 0.626431
vt 0.286394 0.627103
vt 0.287961 0.625853
vt 0.286371 0.626425
vt 0.289823 0.624831
vt 0.290983 0.623722
vt 0.328627 0.346691
vt 0.328575 0.346443
vt 0.287945 0.625149
vt 0.286353 0.625598
vt 0.289812 0.624346
vt 0.290977 0.623475
vt 0.287933 0.624346
vt 0.286339 0.624655
vt 0.289804 0.623793
vt 0.290973 0.623193
vt 0.328539 0.346160
vt 0.328521 0.345854
vt 0.287926 0.623475
vt 0.286330 0.623632
vt 0.289799 0.623193
vt 0.290970 0.622887
vt 0.287923 0.622569
vt 0.286327 0.622569
vt 0.289797 0.622569
vt 0.290970 0.622569
vt 0.328521 0.345536
vt 0.287926 0.621662
vt 0.286330 0.621505
vt 0.289799 0.621944
vt 0.290970 0.622250
vt 0.328539 0.345219
vt 0.287933 0.620791
vt 0.286339 0.620482
vt 0.289804 0.621344
vt 0.290973 0.621944
vt 0.328575 0.344914
vt 0.287945 0.619988
vt 0.286353 0.619539
vt 0.289812 0.620791
vt 0.290977 0.621662
vt 0.328627 0.344634
vt 0.289823 0.620306
vt 0.287961 0.619284
vt 0.290983 0.621415
vt 0.328692 0.344389
vt 0.286371 0.618712
vt 0.287980 0.618706
vt 0.286394 0.618034
vt 0.289836 0.619908
vt 0.290990 0.621212
vt 0.328770 0.344189
vt 0.290997 0.621062
vt 0.289851 0.619612
vt 0.328856 0.344041
vt 0.288002 0.618277
vt 0.286420 0.617530
vt 0.288026 0.618012
vt 0.286448 0.617220
vt 0.289868 0.619430
vt 0.328947 0.343950
vt 0.328907 0.342348
vt 0.328728 0.342524
vt 0.329040 0.343922
vt 0.329090 0.342291
vt 0.327334 0.347472
vt 0.327597 0.347466
vt 0.327596 0.345843
vt 0.327288 0.345850
vt 0.327416 0.349393
vt 0.327597 0.349389
vt 0.327859 0.347472
vt 0.327905 0.345850
vt 0.327778 0.349393
vt 0.329131 0.343956
vt 0.329269 0.342358
vt 0.329217 0.344051
vt 0.288144 0.616428
vt 0.288092 0.616163
vt 0.286527 0.616910
vt 0.286587 0.617220
vt 0.289964 0.615010
vt 0.289929 0.614828
vt 0.329438 0.342544
vt 0.288045 0.615734
vt 0.286471 0.616406
vt 0.289896 0.614532
vt 0.291075 0.613379
vt 0.291058 0.613228
vt 0.329295 0.344204
vt 0.329360 0.344408
vt 0.288003 0.615156
vt 0.286422 0.615728
vt 0.289867 0.614134
vt 0.291043 0.613025
vt 0.287969 0.614452
vt 0.286382 0.614901
vt 0.289844 0.613649
vt 0.291031 0.612778
vt 0.329412 0.344656
vt 0.287944 0.613649
vt 0.286352 0.613958
vt 0.289826 0.613096
vt 0.291022 0.612496
vt 0.329448 0.344939
vt 0.289815 0.612496
vt 0.287928 0.612778
vt 0.291017 0.612190
vt 0.329466 0.345245
vt 0.286334 0.612935
vt 0.001309 0.564729
vt 0.000000 0.568022
vt 0.000000 0.596238
vt 0.001309 0.592005
vt 0.758044 0.316512
vt 0.758521 0.343787
vt 0.758998 0.371063
vt 0.759475 0.398338
vt 0.759952 0.425614
vt 0.760429 0.452890
vt 0.760906 0.480165
vt 0.761383 0.507441
vt 0.761860 0.534717
vt 0.762337 0.561992
vt 0.869537 0.561992
vt 0.869537 0.316511
vt 0.116019 0.596238
vt 0.113460 0.592005
vt 0.001309 0.346524
vt 0.000000 0.342291
vt 0.000000 0.370508
vt 0.001309 0.373800
vt 0.219820 0.592005
vt 0.226046 0.596238
vt 0.226046 0.342291
vt 0.219820 0.346524
vt 0.109168 0.346524
vt 0.111579 0.342291
vt 0.112507 0.537454
vt 0.112983 0.564729
vt 0.119251 0.564709
vt 0.118774 0.537434
vt 0.526824 0.639093
vt 0.526824 0.679970
vt 0.533105 0.680042
vt 0.533105 0.639166
vt 0.109645 0.373800
vt 0.110122 0.401076
vt 0.116389 0.401055
vt 0.115912 0.373780
vt 0.330251 0.592986
vt 0.330251 0.633862
vt 0.336534 0.633790
vt 0.336534 0.592914
vt 0.166791 0.977743
vt 0.238103 0.977743
vt 0.238100 0.867344
vt 0.166821 0.866507
vt 0.000000 0.398724
vt 0.001309 0.401076
vt 0.000000 0.426940
vt 0.001309 0.428351
vt 0.000000 0.455157
vt 0.001309 0.455627
vt 0.000000 0.483373
vt 0.001309 0.482902
vt 0.000000 0.511589
vt 0.001309 0.510178
vt 0.857377 0.286356
vt 0.884762 0.286371
vt 0.884762 0.245496
vt 0.857377 0.245481
vt 0.295245 0.866523
vt 0.267860 0.866507
vt 0.267860 0.907382
vt 0.295245 0.907398
vt 0.912147 0.245496
vt 0.884762 0.245481
vt 0.884762 0.286356
vt 0.912147 0.286371
vt 0.912147 0.286356
vt 0.939532 0.286371
vt 0.939532 0.245496
vt 0.912147 0.245481
vt 0.297237 0.745951
vt 0.297237 0.718671
vt 0.291075 0.718756
vt 0.291075 0.746036
vt 0.291075 0.595898
vt 0.291075 0.636774
vt 0.297358 0.636702
vt 0.297358 0.595826
vt 0.291075 0.677723
vt 0.291075 0.718599
vt 0.297356 0.718671
vt 0.297356 0.677795
vt 0.532986 0.707321
vt 0.532986 0.680042
vt 0.526824 0.680127
vt 0.526824 0.707406
vt 0.111553 0.482902
vt 0.112030 0.510178
vt 0.118297 0.510158
vt 0.117820 0.482882
vt 0.330251 0.511088
vt 0.330251 0.551965
vt 0.336534 0.551893
vt 0.336534 0.511016
vt 0.336534 0.674811
vt 0.336534 0.633934
vt 0.330253 0.633862
vt 0.330253 0.674739
vt 0.526824 0.707491
vt 0.526824 0.734771
vt 0.532986 0.734686
vt 0.532986 0.707406
vt 0.110599 0.428351
vt 0.111076 0.455627
vt 0.117343 0.455607
vt 0.116866 0.428331
vt 0.336534 0.592841
vt 0.336534 0.551965
vt 0.330251 0.552037
vt 0.330251 0.592914
vt 0.291075 0.636774
vt 0.291075 0.677651
vt 0.297356 0.677723
vt 0.297356 0.636846
vt 0.526824 0.734856
vt 0.526824 0.762135
vt 0.532986 0.762051
vt 0.532986 0.734771
vt 0.000000 0.539805
vt 0.001309 0.537454
vt 0.485776 0.864824
vt 0.485776 0.893040
vt 0.526824 0.893040
vt 0.526824 0.864824
vt 0.226046 0.595813
vt 0.254469 0.538658
vt 0.254161 0.538554
vt 0.253864 0.538244
vt 0.253591 0.537741
vt 0.253352 0.537064
vt 0.253155 0.536239
vt 0.253009 0.535297
vt 0.252919 0.534276
vt 0.252889 0.533214
vt 0.252919 0.532152
vt 0.253009 0.531130
vt 0.253155 0.530189
vt 0.253352 0.529364
vt 0.253591 0.528687
vt 0.253864 0.528184
vt 0.254161 0.527874
vt 0.254469 0.527770
vt 0.254469 0.410345
vt 0.910635 0.428202
vt 0.910648 0.316870
vt 0.869603 0.317358
vt 0.869571 0.428690
vt 0.958948 0.000367
vt 0.958932 0.116121
vt 0.999997 0.116620
vt 0.999993 0.000865
vt 0.485776 0.639093
vt 0.485776 0.667310
vt 0.526824 0.667310
vt 0.526824 0.639093
vt 0.485776 0.695526
vt 0.526824 0.695526
vt 0.485776 0.723742
vt 0.526824 0.723742
vt 0.485776 0.751959
vt 0.526824 0.751958
vt 0.485776 0.780175
vt 0.526824 0.780175
vt 0.485776 0.808391
vt 0.526824 0.808391
vt 0.485776 0.836607
vt 0.526824 0.836607
vt 0.455574 0.836607
vt 0.455574 0.864824
vt 0.455574 0.808391
vt 0.455574 0.780175
vt 0.455574 0.751959
vt 0.455574 0.723742
vt 0.455574 0.695526
vt 0.455574 0.667310
vt 0.455574 0.639093
vt 0.928747 0.000000
vt 0.928717 0.115755
vt 0.940849 0.427843
vt 0.940849 0.316511
vt 0.455574 0.893040
vt 0.869537 0.542904
vt 0.940849 0.542922
vt 0.928688 0.226396
vt 1.000000 0.226396
vt 0.526886 1.000000
vt 0.526886 0.893040
vt 0.496671 0.893386
vt 0.455606 0.893857
vt 0.455574 0.999981
vt 0.857377 0.000000
vt 0.880923 0.164428
vt 0.877751 0.081053
vt 0.877751 0.038872
vt 0.291075 0.746036
vt 0.291075 0.759822
vt 0.297316 0.759822
vt 0.297316 0.746036
vt 0.330411 0.468835
vt 0.330411 0.511016
vt 0.336534 0.511016
vt 0.336534 0.468835
vt 0.738432 0.300594
vt 0.738432 0.311222
vt 0.738432 0.314380
vt 0.744674 0.314380
vt 0.744674 0.310821
vt 0.744674 0.300594
vt 0.330411 0.384472
vt 0.330411 0.426654
vt 0.336637 0.426654
vt 0.336637 0.384472
vt 0.297358 0.595826
vt 0.297358 0.342304
vt 0.273408 0.510678
vt 0.276984 0.510679
vt 0.276984 0.552789
vt 0.263134 0.552787
vt 0.877751 0.164428
vt 0.857377 0.245481
vt 0.877751 0.206609
vt 0.750916 0.300594
vt 0.750916 0.314380
vt 0.757158 0.314380
vt 0.757158 0.300594
vt 0.336534 0.468835
vt 0.336534 0.426654
vt 0.330411 0.426654
vt 0.330411 0.468835
vt 0.744674 0.300594
vt 0.744674 0.314380
vt 0.750916 0.314380
vt 0.750916 0.300594
vt 0.336637 0.384472
vt 0.336637 0.342291
vt 0.330411 0.342291
vt 0.330411 0.384472
vt 0.263134 0.510676
vt 0.276984 0.385333
vt 0.276984 0.427444
vt 0.263134 0.427441
vt 0.891601 0.164428
vt 0.891601 0.206609
vt 0.928688 0.245481
vt 0.928688 0.000000
vt 0.891601 0.038872
vt 0.891601 0.081053
vt 0.226046 0.342291
vt 0.254161 0.410240
vt 0.253864 0.409930
vt 0.253591 0.409427
vt 0.253352 0.408750
vt 0.253155 0.407925
vt 0.253009 0.406984
vt 0.252919 0.405962
vt 0.252889 0.404900
vt 0.252920 0.403838
vt 0.253009 0.402817
vt 0.253155 0.401875
vt 0.253352 0.401051
vt 0.253591 0.400373
vt 0.253864 0.399870
vt 0.254161 0.399561
vt 0.254469 0.399456
vt 0.263134 0.385331
vt 0.254777 0.399561
vt 0.255074 0.399871
vt 0.255347 0.400374
vt 0.255586 0.401051
vt 0.255783 0.401876
vt 0.255929 0.402817
vt 0.256019 0.403839
vt 0.256049 0.404901
vt 0.256019 0.405963
vt 0.255929 0.406984
vt 0.255783 0.407925
vt 0.255586 0.408750
vt 0.255347 0.409427
vt 0.255074 0.409930
vt 0.254777 0.410240
vt 0.254777 0.527875
vt 0.255074 0.528184
vt 0.255347 0.528688
vt 0.255586 0.529365
vt 0.255783 0.530190
vt 0.255929 0.531131
vt 0.256019 0.532152
vt 0.256049 0.533214
vt 0.256019 0.534276
vt 0.255929 0.535298
vt 0.255783 0.536239
vt 0.255586 0.537064
vt 0.255347 0.537741
vt 0.255074 0.538244
vt 0.254777 0.538554
vt 0.909620 0.597732
vt 0.909620 0.570475
vt 0.868555 0.570498
vt 0.868555 0.597755
vt 0.909620 0.815793
vt 0.909620 0.788536
vt 0.868554 0.788558
vt 0.868554 0.815816
vt 0.909620 0.761278
vt 0.909620 0.734020
vt 0.868554 0.734043
vt 0.868554 0.761301
vt 0.909620 0.706763
vt 0.909620 0.679505
vt 0.868554 0.679528
vt 0.868554 0.706786
vt 0.909620 0.652248
vt 0.909620 0.624990
vt 0.868555 0.625013
vt 0.868554 0.652270
vt 0.939835 0.624973
vt 0.939835 0.597716
vt 0.939835 0.652231
vt 0.939835 0.679489
vt 0.939835 0.706746
vt 0.939835 0.734004
vt 0.939835 0.761261
vt 0.939835 0.788519
vt 0.939835 0.815777
vt 0.939835 0.570458
vn 0.9808 -0.0000 0.1951
vn 0.9569 -0.0000 0.2903
vn 0.0000 0.0000 -1.0000
vn 0.0230 -0.9997 0.0000
vn -0.0230 -0.9997 0.0000
vn -0.9569 0.0000 0.2903
vn -0.9808 0.0000 0.1951
vn -0.0230 0.9997 0.0000
vn 0.0230 0.9997 0.0000
vn -0.0000 1.0000 -0.0000
vn -0.9910 0.1338 0.0003
vn -0.9910 0.1342 0.0003
vn -1.0000 -0.0000 0.0000
vn -0.9910 -0.1342 0.0003
vn -0.9910 -0.1338 0.0003
vn 0.9910 0.1342 0.0003
vn 0.9910 0.1338 0.0003
vn 0.9910 -0.1338 0.0003
vn 0.9910 -0.1342 0.0003
vn 1.0000 0.0000 -0.0000
vn -0.0000 0.0020 -1.0000
vn -0.0004 -0.0020 1.0000
vn -0.0005 -0.0020 1.0000
vn -0.0001 -0.0018 1.0000
vn -0.0000 -0.0007 1.0000
vn -0.0000 0.0000 1.0000
vn 0.0004 -0.0020 1.0000
vn 0.0005 -0.0020 1.0000
vn 0.0005 -0.0013 1.0000
vn 0.0004 -0.0009 1.0000
vn 0.0001 -0.0018 1.0000
vn -0.0006 -0.0013 1.0000
vn -0.0004 -0.0009 1.0000
vn -0.8830 -0.4694 0.0009
vn -0.8832 -0.4690 0.0009
vn -0.6592 -0.7519 0.0011
vn -0.6594 -0.7518 0.0011
vn -0.4640 -0.8859 0.0009
vn -0.4640 -0.8858 0.0009
vn -0.3144 -0.9493 0.0006
vn -0.1955 -0.9807 0.0003
vn -0.0939 -0.9956 0.0001
vn 0.8830 0.4694 0.0009
vn 0.8832 0.4690 0.0009
vn 0.6592 0.7519 0.0011
vn 0.6594 0.7518 0.0011
vn 0.4640 0.8859 0.0009
vn 0.4640 0.8858 0.0009
vn 0.3144 0.9493 0.0006
vn 0.1955 0.9807 0.0003
vn 0.0939 0.9956 0.0001
vn 0.0939 -0.9956 0.0001
vn 0.1955 -0.9807 0.0003
vn 0.3144 -0.9493 0.0006
vn 0.4640 -0.8859 0.0009
vn 0.4640 -0.8858 0.0009
vn 0.6592 -0.7519 0.0011
vn 0.6594 -0.7518 0.0011
vn 0.8830 -0.4694 0.0009
vn 0.8832 -0.4690 0.0009
vn -0.0939 0.9956 0.0001
vn -0.1955 0.9807 0.0003
vn -0.3144 0.9493 0.0006
vn -0.4640 0.8859 0.0009
vn -0.4640 0.8858 0.0009
vn -0.6592 0.7519 0.0011
vn -0.6594 0.7518 0.0011
vn -0.8830 0.4694 0.0009
vn -0.8832 0.4690 0.0009
vn 0.9239 -0.0000 -0.3827
vn 0.9808 -0.0000 -0.1951
vn 0.9952 -0.0000 -0.0980
vn 0.3827 -0.0000 -0.9239
vn 0.5556 -0.0000 -0.8315
vn 0.8315 -0.0000 -0.5556
vn 0.7071 -0.0000 -0.7071
vn -0.7071 -0.0000 -0.7071
vn -0.5556 -0.0000 -0.8315
vn -0.9952 0.0000 -0.0980
vn -0.9808 0.0000 -0.1951
vn 0.9952 -0.0000 0.0980
vn -0.8315 -0.0000 -0.5556
vn -0.9239 0.0000 -0.3827
vn -0.3827 -0.0000 -0.9239
vn 0.1951 -0.0000 -0.9808
vn -0.1951 -0.0000 -0.9808
vn -0.9952 0.0000 0.0980
vn 0.9918 -0.1280 -0.0000
vn 0.9917 -0.1283 -0.0000
vn 0.9918 0.1280 -0.0000
vn 0.9917 0.1283 -0.0000
vn -0.9917 0.1284 0.0000
vn -0.9918 0.1280 0.0000
vn -0.9917 -0.1284 0.0000
vn -0.9918 -0.1280 0.0000
vn -0.0000 -1.0000 0.0000
vn -0.0000 -0.9984 -0.0561
vn -0.0000 -0.9984 0.0561
vn 0.0000 0.9984 -0.0561
vn 0.0000 0.9984 0.0561
vn 0.0241 0.9997 -0.0000
vn -0.0241 -0.9997 0.0000
vn 0.0001 0.0020 -1.0000
vn 0.0000 0.0023 -1.0000
vn 0.0001 0.0022 -1.0000
vn -0.0001 0.0020 -1.0000
vn -0.0001 0.0022 -1.0000
vn -0.0000 0.0025 -1.0000
vn -0.0000 0.0021 -1.0000
vn 0.0002 0.0021 -1.0000
vn 0.0002 0.0022 -1.0000
vn 0.0002 0.0023 -1.0000
vn 0.0002 0.0024 -1.0000
vn 0.0001 0.0025 -1.0000
vn -0.0001 0.0025 -1.0000
vn -0.0002 0.0024 -1.0000
vn -0.0002 0.0023 -1.0000
vn -0.0002 0.0022 -1.0000
vn -0.0002 0.0021 -1.0000
vn -0.0482 0.9973 -0.0561
vn -0.0984 0.9951 -0.0000
vn -0.0482 0.9973 0.0561
vn -0.2045 0.9789 -0.0000
vn -0.3278 0.9447 -0.0000
vn -0.3278 0.9448 -0.0000
vn -0.4810 0.8767 -0.0000
vn -0.4809 0.8768 -0.0000
vn -0.6761 0.7368 -0.0000
vn -0.6759 0.7370 -0.0000
vn -0.8913 0.4535 0.0000
vn -0.8911 0.4539 0.0000
vn -0.0984 -0.9951 0.0000
vn -0.2045 -0.9789 0.0000
vn -0.3278 -0.9447 0.0000
vn -0.3278 -0.9448 0.0000
vn -0.4810 -0.8767 0.0000
vn -0.4809 -0.8768 0.0000
vn -0.6761 -0.7368 0.0000
vn -0.6759 -0.7370 0.0000
vn -0.8913 -0.4535 0.0000
vn -0.8911 -0.4539 0.0000
vn 0.0482 -0.9973 -0.0561
vn 0.0984 -0.9951 0.0000
vn 0.0481 -0.9973 0.0561
vn 0.2045 -0.9789 0.0000
vn 0.3278 -0.9448 0.0000
vn 0.3278 -0.9447 0.0000
vn 0.4809 -0.8768 0.0000
vn 0.4810 -0.8767 0.0000
vn 0.6759 -0.7370 0.0000
vn 0.6761 -0.7368 0.0000
vn 0.8911 -0.4539 -0.0000
vn 0.8913 -0.4535 -0.0000
vn 0.0984 0.9951 -0.0000
vn 0.2045 0.9789 -0.0000
vn 0.3278 0.9448 -0.0000
vn 0.3278 0.9447 -0.0000
vn 0.4809 0.8768 -0.0000
vn 0.4810 0.8767 -0.0000
vn 0.6759 0.7370 -0.0000
vn 0.6761 0.7368 -0.0000
vn 0.8911 0.4539 -0.0000
vn 0.8913 0.4535 -0.0000
vn -0.0577 0.7013 0.7105
vn -0.0447 0.8339 0.5502
vn -0.0284 0.9361 0.3505
vn -0.0098 0.9926 0.1207
vn -0.0290 0.9928 0.1161
vn -0.1718 0.7056 0.6874
vn -0.1327 0.8369 0.5310
vn -0.0843 0.9375 0.3376
vn -0.2822 0.7139 0.6409
vn -0.2170 0.8427 0.4927
vn -0.1374 0.9401 0.3120
vn -0.0471 0.9931 0.1070
vn -0.3858 0.7250 0.5705
vn -0.2947 0.8504 0.4358
vn -0.1855 0.9435 0.2744
vn -0.0635 0.9936 0.0939
vn -0.4783 0.7377 0.4764
vn -0.3628 0.8590 0.3613
vn -0.2270 0.9473 0.2261
vn -0.0774 0.9940 0.0770
vn -0.5548 0.7501 0.3599
vn -0.4178 0.8672 0.2710
vn -0.2599 0.9508 0.1687
vn -0.0883 0.9944 0.0573
vn -0.4567 0.8736 0.1681
vn -0.2829 0.9535 0.1041
vn -0.0958 0.9948 0.0353
vn -0.6100 0.7600 0.2246
vn -0.6389 0.7655 0.0764
vn -0.4769 0.8771 0.0570
vn -0.2946 0.9550 0.0352
vn -0.0997 0.9950 0.0119
vn -0.4768 0.8771 -0.0570
vn -0.2946 0.9550 -0.0352
vn -0.0996 0.9950 -0.0119
vn -0.6389 0.7655 -0.0764
vn -0.6099 0.7600 -0.2246
vn -0.4567 0.8736 -0.1681
vn -0.2829 0.9535 -0.1041
vn -0.0958 0.9948 -0.0353
vn -0.2599 0.9508 -0.1687
vn -0.0883 0.9944 -0.0573
vn -0.5548 0.7501 -0.3599
vn -0.4178 0.8672 -0.2710
vn -0.4783 0.7377 -0.4764
vn -0.3628 0.8590 -0.3613
vn -0.2270 0.9473 -0.2261
vn -0.0773 0.9940 -0.0770
vn -0.0634 0.9936 -0.0938
vn -0.3858 0.7250 -0.5705
vn -0.2947 0.8504 -0.4359
vn -0.1856 0.9435 -0.2744
vn -0.2823 0.7139 -0.6409
vn -0.2170 0.8427 -0.4927
vn -0.1374 0.9401 -0.3120
vn -0.0471 0.9931 -0.1070
vn -0.0290 0.9928 -0.1161
vn -0.1718 0.7057 -0.6874
vn -0.1327 0.8369 -0.5310
vn -0.0844 0.9375 -0.3376
vn -0.0576 0.7013 -0.7105
vn -0.0446 0.8338 -0.5502
vn -0.0284 0.9361 -0.3505
vn -0.0098 0.9926 -0.1207
vn 0.0576 0.7013 -0.7105
vn 0.0446 0.8338 -0.5502
vn 0.0284 0.9361 -0.3505
vn 0.0098 0.9926 -0.1207
vn 0.1718 0.7057 -0.6874
vn 0.1327 0.8369 -0.5310
vn 0.0844 0.9375 -0.3376
vn 0.0290 0.9928 -0.1161
vn 0.2823 0.7139 -0.6409
vn 0.2170 0.8427 -0.4927
vn 0.1374 0.9401 -0.3120
vn 0.0471 0.9931 -0.1070
vn 0.2947 0.8504 -0.4358
vn 0.1856 0.9435 -0.2744
vn 0.0634 0.9936 -0.0938
vn 0.3858 0.7250 -0.5705
vn 0.4783 0.7377 -0.4764
vn 0.3628 0.8590 -0.3613
vn 0.2270 0.9473 -0.2261
vn 0.0773 0.9940 -0.0771
vn 0.2599 0.9508 -0.1687
vn 0.0883 0.9945 -0.0573
vn 0.5548 0.7501 -0.3599
vn 0.4178 0.8672 -0.2710
vn 0.6099 0.7600 -0.2246
vn 0.4567 0.8736 -0.1681
vn 0.2829 0.9535 -0.1042
vn 0.0958 0.9948 -0.0353
vn 0.2946 0.9550 -0.0352
vn 0.0996 0.9950 -0.0119
vn 0.6389 0.7655 -0.0764
vn 0.4768 0.8771 -0.0570
vn 0.6389 0.7655 0.0764
vn 0.4768 0.8771 0.0570
vn 0.2946 0.9550 0.0352
vn 0.0997 0.9950 0.0119
vn 0.0958 0.9948 0.0353
vn 0.6100 0.7600 0.2246
vn 0.4567 0.8736 0.1681
vn 0.2829 0.9535 0.1042
vn 0.5548 0.7501 0.3600
vn 0.4178 0.8672 0.2710
vn 0.2599 0.9508 0.1686
vn 0.0883 0.9944 0.0573
vn 0.0774 0.9940 0.0771
vn 0.4783 0.7377 0.4764
vn 0.3627 0.8590 0.3613
vn 0.2270 0.9473 0.2261
vn 0.3858 0.7250 0.5705
vn 0.2947 0.8504 0.4358
vn 0.1855 0.9435 0.2744
vn 0.0634 0.9936 0.0938
vn 0.2822 0.7139 0.6409
vn 0.2170 0.8427 0.4927
vn 0.1374 0.9401 0.3120
vn 0.0471 0.9931 0.1070
vn 0.1327 0.8369 0.5310
vn 0.0843 0.9375 0.3376
vn 0.0290 0.9928 0.1161
vn 0.1718 0.7056 0.6874
vn 0.0577 0.7013 0.7105
vn 0.0447 0.8339 0.5502
vn 0.0284 0.9361 0.3505
vn 0.0098 0.9926 0.1207
vn -0.1718 0.7057 0.6874
vn -0.2823 0.7139 0.6409
vn -0.2947 0.8504 0.4359
vn -0.0634 0.9936 0.0938
vn -0.3627 0.8590 0.3613
vn -0.0773 0.9940 0.0771
vn -0.2600 0.9508 0.1687
vn -0.2829 0.9535 0.1042
vn -0.0958 0.9948 0.0352
vn -0.4768 0.8771 0.0570
vn -0.0996 0.9950 0.0119
vn -0.0997 0.9949 -0.0119
vn -0.2829 0.9535 -0.1042
vn -0.0958 0.9948 -0.0352
vn -0.2600 0.9508 -0.1687
vn -0.3627 0.8590 -0.3613
vn -0.0773 0.9940 -0.0771
vn -0.0635 0.9936 -0.0938
vn -0.0285 0.9361 -0.3505
vn 0.0577 0.7013 -0.7105
vn 0.0285 0.9361 -0.3505
vn 0.0290 0.9928 -0.1160
vn 0.0635 0.9936 -0.0938
vn 0.3627 0.8590 -0.3613
vn 0.2600 0.9508 -0.1687
vn 0.0883 0.9944 -0.0573
vn 0.2829 0.9535 -0.1041
vn 0.0958 0.9948 -0.0352
vn 0.0997 0.9949 -0.0119
vn 0.4769 0.8771 0.0570
vn 0.0996 0.9950 0.0119
vn 0.0958 0.9948 0.0352
vn 0.2829 0.9535 0.1041
vn 0.5548 0.7501 0.3599
vn 0.2599 0.9508 0.1687
vn 0.0773 0.9940 0.0771
vn 0.3628 0.8590 0.3613
vn 0.1855 0.9435 0.2745
vn 0.2823 0.7139 0.6409
vn 0.0290 0.9928 0.1160
vn 0.1718 0.7057 0.6874
vn 0.0000 0.0006 -1.0000
vn 0.0000 0.0018 -1.0000
vn 1.0000 -0.0075 -0.0000
vn -1.0000 0.0075 0.0000
vn 0.0075 1.0000 0.0014
vn -0.0000 -0.0018 1.0000
vn -0.0000 -1.0000 -0.0016
vn -0.0000 -1.0000 -0.0014
vn -0.0000 -1.0000 -0.0018
vn 0.0075 1.0000 0.0016
vn 0.0075 1.0000 0.0018
usemtl USB_Shell
s 1
f 384/331/76 394/332/76 393/333/77 385/334/77
f 417/335/78 557/336/78 563/337/78 562/338/78 561/339/78 560/340/78 559/341/78 558/342/78 556/343/78 605/344/78 611/345/78 610/346/78 609/347/78 608/348/78 607/349/78 606/350/78 604/351/78 421/352/78
f 556/353/79 581/354/79 572/355/80 605/356/80
f 413/357/81 412/358/82 381/359/82 382/360/81
f 420/361/78 565/362/78 571/363/78 570/364/78 569/365/78 568/366/78 567/367/78 566/368/78 564/369/78 413/370/78 382/371/78
f 564/372/83 549/373/83 588/374/84 597/375/84 393/376/85 413/377/85
f 548/378/86 565/379/87 420/380/88 421/381/88 604/382/89 573/383/90
f 393/384/78 597/385/78 603/386/78 602/387/78 601/388/78 600/389/78 599/390/78 598/391/78 596/392/78 414/393/78 385/394/78
f 596/395/91 589/396/92 580/397/93 557/398/94 417/399/95 414/400/95
f 420/401/96 623/402/96 621/403/96 640/404/96 641/405/96 421/406/96
f 430/407/97 510/408/98 511/409/99 425/410/100
f 452/411/101 528/412/101 529/413/101 453/414/101
f 431/415/102 508/416/103 509/417/104 422/418/105
f 451/419/101 527/420/101 528/412/101 452/411/101
f 450/421/101 526/422/101 527/420/101 451/419/101
f 425/410/100 511/409/99 526/422/101 450/421/101
f 456/423/101 532/424/101 512/425/101 457/426/101
f 455/427/101 531/428/101 532/424/101 456/423/101
f 424/429/100 513/430/106 508/416/103 431/415/102
f 422/418/105 509/417/104 514/431/107 423/432/108
f 454/433/101 530/434/101 531/428/101 455/427/101
f 423/432/108 514/431/107 510/408/98 430/407/97
f 453/414/101 529/413/101 530/434/101 454/433/101
f 457/426/101 512/425/101 513/430/106 424/429/100
f 604/382/89 606/435/109 579/436/110 573/383/90
f 606/435/109 607/437/111 578/438/112 579/436/110
f 607/437/111 608/439/113 577/440/114 578/438/112
f 608/441/113 609/442/115 576/443/115 577/444/114
f 609/442/115 610/445/116 575/446/116 576/443/115
f 610/445/116 611/447/117 574/448/117 575/446/116
f 611/447/117 605/356/80 572/355/80 574/448/117
f 596/395/91 598/449/118 595/450/119 589/396/92
f 598/449/118 599/451/120 594/452/121 595/450/119
f 599/451/120 600/453/122 593/454/123 594/452/121
f 600/455/122 601/456/124 592/457/124 593/458/123
f 601/456/124 602/459/125 591/460/125 592/457/124
f 602/459/125 603/461/126 590/462/126 591/460/125
f 603/461/126 597/463/84 588/464/84 590/462/126
f 556/353/79 558/465/127 587/466/127 581/354/79
f 558/465/127 559/467/128 586/468/128 587/466/127
f 559/467/128 560/469/129 585/470/129 586/468/128
f 560/469/129 561/471/130 584/472/131 585/470/129
f 561/473/130 562/474/132 583/475/133 584/476/131
f 562/474/132 563/477/134 582/478/135 583/475/133
f 563/477/134 557/398/94 580/397/93 582/478/135
f 564/479/83 566/480/136 555/481/136 549/482/83
f 566/480/136 567/483/137 554/484/137 555/481/136
f 567/483/137 568/485/138 553/486/138 554/484/137
f 568/487/138 569/488/139 552/489/140 553/490/138
f 569/488/139 570/491/141 551/492/142 552/489/140
f 570/491/141 571/493/143 550/494/144 551/492/142
f 571/493/143 565/379/87 548/378/86 550/494/144
f 588/495/101 549/496/101 555/497/101 554/498/101 553/499/101 552/500/101 551/501/101 550/502/101 548/503/101 573/504/101 579/505/101 578/506/101 577/507/101 576/508/101 575/509/101 574/510/101 572/511/101 581/512/101 587/513/101 586/514/101 585/515/101 584/516/101 583/517/101 582/518/101 580/519/101 589/520/101 595/521/101 594/522/101 593/523/101 592/524/101 591/525/101 590/526/101
f 612/527/96 614/528/96 615/529/96
f 615/529/96 614/528/96 616/530/96
f 616/530/96 614/528/96 617/531/96
f 617/531/96 614/528/96 618/532/96
f 618/532/96 614/528/96 619/533/96
f 619/533/96 614/528/96 620/534/96
f 620/534/96 614/528/96 613/535/96
f 621/403/96 623/402/96 624/536/96
f 624/536/96 623/402/96 625/537/96
f 625/537/96 623/402/96 626/538/96
f 626/538/96 623/402/96 627/539/96
f 627/539/96 623/402/96 628/540/96
f 628/540/96 623/402/96 629/541/96
f 629/541/96 623/402/96 622/542/96
f 630/543/96 632/544/96 633/545/96
f 633/545/96 632/544/96 634/546/96
f 634/546/96 632/544/96 635/547/96
f 635/547/96 632/544/96 636/548/96
f 636/548/96 632/544/96 637/549/96
f 637/549/96 632/544/96 638/550/96
f 638/550/96 632/544/96 631/551/96
f 639/552/96 641/405/96 642/553/96
f 642/553/96 641/405/96 643/554/96
f 643/554/96 641/405/96 644/555/96
f 644/555/96 641/405/96 645/556/96
f 645/556/96 641/405/96 646/557/96
f 646/557/96 641/405/96 647/558/96
f 647/558/96 641/405/96 640/404/96
f 417/559/96 632/544/96 630/543/96 613/535/96 614/528/96 414/560/96
usemtl Red_Accents
f 380/561/145 396/562/145 397/563/146 391/564/146
f 391/564/146 397/563/146 395/565/147 386/566/147
f 375/567/148 400/568/148 402/569/149 374/570/149
f 378/571/150 398/572/150 396/573/145 380/574/145
f 374/570/149 402/569/149 401/575/151 379/576/151
f 388/577/152 407/578/152 406/579/153 383/580/153
f 376/581/154 411/582/154 410/583/155 372/584/155
f 386/566/156 395/565/156 394/332/76 384/331/76
f 387/585/157 408/586/157 407/578/152 388/577/152
f 372/584/155 410/583/155 409/587/158 373/588/158
f 383/580/153 406/579/153 405/589/159 389/590/159
f 390/591/78 403/592/78 399/593/160 377/594/160
f 392/595/161 404/596/161 403/592/78 390/591/78
f 373/597/158 409/598/158 408/586/157 387/585/157
f 389/590/159 405/589/159 404/596/161 392/595/161
f 377/594/160 399/593/160 400/568/148 375/567/148
f 379/576/151 401/575/151 398/572/150 378/571/150
f 381/359/82 412/358/82 411/582/162 376/581/162
f 630/599/163 667/600/164 648/601/165 613/602/166
f 621/603/167 658/604/168 675/605/169 640/606/170
f 441/607/171 449/608/171 666/609/172 631/610/173
f 657/611/174 622/612/175 612/613/176 649/614/176
f 639/615/177 676/616/177 442/617/171 434/618/171
f 513/619/96 508/620/178 509/621/179 650/622/180 648/623/178 667/624/96 668/625/96
f 434/618/171 442/617/171 443/626/171 435/627/171
f 435/627/171 443/626/171 444/628/171 436/629/171
f 436/629/171 444/628/171 445/630/171 437/631/171
f 437/631/171 445/630/171 446/632/171 438/633/171
f 438/633/171 446/632/171 447/634/171 439/635/171
f 439/635/171 447/634/171 448/636/171 440/637/171
f 440/637/171 448/636/171 449/608/171 441/607/171
f 514/638/179 510/639/181 511/640/96 677/641/96 675/642/96 658/643/181 659/644/182
f 650/622/180 509/621/179 514/638/179 659/644/182 657/645/183 649/646/183
f 511/640/96 526/647/184 442/648/184 676/649/184 677/641/96
f 532/650/184 512/651/184 449/652/184 448/653/184
f 531/654/184 532/650/184 448/653/184 447/655/184
f 530/656/184 531/654/184 447/655/184 446/657/184
f 529/658/184 530/656/184 446/657/184 445/659/184
f 528/660/184 529/658/184 445/659/184 444/661/184
f 527/662/184 528/660/184 444/661/184 443/663/184
f 526/647/184 527/662/184 443/663/184 442/648/184
f 512/651/184 513/619/96 668/625/96 666/664/184 449/652/184
f 648/623/178 650/622/180 651/665/185
f 651/665/185 650/622/180 652/666/186
f 652/666/186 650/622/180 653/667/187
f 653/667/187 650/622/180 654/668/188
f 654/668/188 650/622/180 655/669/189
f 655/669/189 650/622/180 656/670/183
f 656/670/183 650/622/180 649/646/183
f 657/645/183 659/644/182 660/671/183
f 660/671/183 659/644/182 661/672/190
f 661/672/190 659/644/182 662/673/191
f 662/673/191 659/644/182 663/674/192
f 663/674/192 659/644/182 664/675/193
f 664/675/193 659/644/182 665/676/194
f 665/676/194 659/644/182 658/643/181
f 666/664/184 668/625/96 669/677/184
f 669/677/184 668/625/96 670/678/184
f 670/678/184 668/625/96 671/679/184
f 671/679/184 668/625/96 672/680/184
f 672/680/184 668/625/96 673/681/96
f 673/681/96 668/625/96 674/682/96
f 674/682/96 668/625/96 667/624/96
f 675/642/96 677/641/96 678/683/96
f 678/683/96 677/641/96 679/684/96
f 679/684/96 677/641/96 680/685/96
f 680/685/96 677/641/96 681/686/184
f 681/686/184 677/641/96 682/687/184
f 682/687/184 677/641/96 683/688/184
f 683/688/184 677/641/96 676/649/184
f 657/611/195 660/689/196 629/690/196 622/612/197
f 660/689/196 661/691/198 628/692/198 629/690/196
f 661/691/198 662/693/199 627/694/200 628/692/198
f 662/695/199 663/696/201 626/697/202 627/698/200
f 663/696/201 664/699/203 625/700/204 626/697/202
f 664/699/203 665/701/205 624/702/206 625/700/204
f 665/701/205 658/604/168 621/603/167 624/702/206
f 639/615/177 642/703/207 683/704/207 676/616/177
f 642/703/207 643/705/208 682/706/208 683/704/207
f 643/705/208 644/707/209 681/708/210 682/706/208
f 644/707/209 645/709/211 680/710/212 681/708/210
f 645/711/211 646/712/213 679/713/214 680/714/212
f 646/712/213 647/715/215 678/716/216 679/713/214
f 647/715/215 640/606/170 675/605/169 678/716/216
f 666/609/217 669/717/218 638/718/218 631/610/219
f 669/717/218 670/719/220 637/720/220 638/718/218
f 670/719/220 671/721/221 636/722/222 637/720/220
f 671/721/221 672/723/223 635/724/224 636/722/222
f 672/725/223 673/726/225 634/727/226 635/728/224
f 673/726/225 674/729/227 633/730/228 634/727/226
f 674/729/227 667/600/164 630/599/163 633/730/228
f 612/613/176 615/731/229 656/732/229 649/614/176
f 615/731/229 616/733/230 655/734/230 656/732/229
f 616/733/230 617/735/231 654/736/232 655/734/230
f 617/737/231 618/738/233 653/739/234 654/740/232
f 618/738/233 619/741/235 652/742/236 653/739/234
f 619/741/235 620/743/237 651/744/238 652/742/236
f 620/743/237 613/602/166 648/601/165 651/744/238
f 393/745/85 394/746/85 395/747/85 397/748/85 396/749/85 398/750/85 401/751/85 402/752/85 400/753/85 399/754/85 403/755/85 404/756/85 405/757/85 406/758/85 407/759/85 408/760/85 409/761/85 410/762/85 411/763/85 412/764/85 413/765/85
usemtl Metal
f 178/766/239 179/767/239 745/768/239 747/769/239
f 273/770/240 180/771/240 179/767/240 178/766/240
f 274/772/241 181/773/241 180/771/241 273/770/241
f 218/774/242 181/775/242 274/776/242
f 218/774/243 184/777/243 181/775/243
f 179/767/244 182/778/244 760/779/244 745/768/244
f 180/771/245 183/780/245 182/778/245 179/767/245
f 181/773/246 184/781/246 183/780/246 180/771/246
f 182/778/247 185/782/247 743/783/247 760/779/247
f 183/780/248 186/784/248 185/782/248 182/778/248
f 184/781/249 187/785/249 186/784/249 183/780/249
f 218/774/250 187/786/250 184/777/250
f 185/782/251 188/787/251 740/788/251 743/783/251
f 186/784/252 189/789/252 188/787/252 185/782/252
f 187/785/253 190/790/253 189/789/253 186/784/253
f 218/774/254 190/791/254 187/786/254
f 188/787/255 191/792/255 738/793/255 740/788/255
f 189/789/256 192/794/256 191/792/256 188/787/256
f 190/790/257 193/795/257 192/794/257 189/789/257
f 218/774/258 193/796/258 190/791/258
f 191/792/259 194/797/259 737/798/259 738/793/259
f 192/794/260 195/799/260 194/797/260 191/792/260
f 193/795/261 196/800/261 195/799/261 192/794/261
f 218/774/262 196/801/262 193/796/262
f 195/799/263 198/802/263 197/803/263 194/797/263
f 196/801/264 199/804/264 198/805/264 195/806/264
f 218/774/265 199/804/265 196/801/265
f 194/797/266 197/803/266 759/807/266 737/798/266
f 197/808/267 200/809/267 734/810/267 759/811/267
f 198/812/268 201/813/268 200/809/268 197/808/268
f 199/804/269 202/814/269 201/815/269 198/805/269
f 218/774/270 202/814/270 199/804/270
f 201/813/271 204/816/271 203/817/271 200/809/271
f 202/814/272 205/818/272 204/819/272 201/815/272
f 218/774/273 205/818/273 202/814/273
f 200/809/274 203/817/274 735/820/274 734/810/274
f 203/821/275 206/822/275 736/823/275 735/824/275
f 204/825/276 207/826/276 206/822/276 203/821/276
f 205/818/277 208/827/277 207/828/277 204/819/277
f 218/774/278 208/827/278 205/818/278
f 208/829/279 211/830/279 210/831/279 207/826/279
f 218/774/280 211/832/280 208/827/280
f 206/822/281 209/833/281 739/834/281 736/823/281
f 207/826/282 210/831/282 209/833/282 206/822/282
f 209/833/283 212/835/283 741/836/283 739/834/283
f 210/831/284 213/837/284 212/835/284 209/833/284
f 211/830/285 214/838/285 213/837/285 210/831/285
f 218/774/286 214/839/286 211/832/286
f 218/774/287 217/840/287 214/839/287
f 212/835/288 215/841/288 742/842/288 741/836/288
f 213/837/289 216/843/289 215/841/289 212/835/289
f 214/838/290 217/844/290 216/843/290 213/837/290
f 215/841/291 219/845/291 744/846/291 742/842/291
f 216/843/292 220/847/292 219/845/292 215/841/292
f 217/844/293 221/848/293 220/847/293 216/843/293
f 218/774/294 221/849/294 217/840/294
f 218/774/295 224/850/295 221/849/295
f 219/845/296 222/851/296 746/852/296 744/846/296
f 220/847/297 223/853/297 222/851/297 219/845/297
f 221/848/298 224/854/298 223/853/298 220/847/298
f 222/851/299 225/855/299 748/856/299 746/852/299
f 223/853/300 226/857/300 225/855/300 222/851/300
f 224/854/301 227/858/301 226/857/301 223/853/301
f 218/774/302 227/859/302 224/850/302
f 225/855/303 228/860/303 753/861/303 748/856/303
f 226/857/304 229/862/304 228/860/304 225/855/304
f 227/858/305 230/863/305 229/862/305 226/857/305
f 218/774/306 230/864/306 227/859/306
f 228/860/307 231/865/307 751/866/307 753/861/307
f 229/862/308 232/867/308 231/865/308 228/860/308
f 230/863/309 233/868/309 232/867/309 229/862/309
f 218/774/310 233/869/310 230/864/310
f 231/865/311 234/870/311 754/871/311 751/866/311
f 232/867/312 235/872/312 234/870/312 231/865/312
f 233/868/313 236/873/313 235/872/313 232/867/313
f 218/774/314 236/874/314 233/869/314
f 235/872/315 238/875/315 237/876/315 234/870/315
f 236/873/316 239/877/316 238/875/316 235/872/316
f 218/774/317 239/878/317 236/874/317
f 234/870/318 237/876/318 763/879/318 754/871/318
f 237/876/319 240/880/319 762/881/319 763/879/319
f 238/875/320 241/882/320 240/880/320 237/876/320
f 239/877/321 242/883/321 241/882/321 238/875/321
f 218/774/322 242/884/322 239/878/322
f 242/883/323 245/885/323 244/886/323 241/882/323
f 218/774/324 245/887/324 242/884/324
f 240/880/325 243/888/325 756/889/325 762/881/325
f 241/882/326 244/886/326 243/888/326 240/880/326
f 243/888/327 246/890/327 757/891/327 756/889/327
f 244/886/328 247/892/328 246/890/328 243/888/328
f 245/887/329 248/893/329 247/894/329 244/895/329
f 218/774/330 248/893/330 245/887/330
f 248/893/331 251/896/331 250/897/331 247/894/331
f 218/774/332 251/896/332 248/893/332
f 246/898/333 249/899/333 765/900/333 757/901/333
f 247/902/334 250/903/334 249/899/334 246/898/334
f 249/899/335 252/904/335 755/905/335 765/900/335
f 250/903/336 253/906/336 252/904/336 249/899/336
f 251/896/337 254/907/337 253/908/337 250/897/337
f 218/774/338 254/907/338 251/896/338
f 218/774/339 257/909/339 254/907/339
f 252/910/340 255/911/340 758/912/340 755/913/340
f 253/914/341 256/915/341 255/911/341 252/910/341
f 254/907/342 257/909/342 256/916/342 253/908/342
f 255/911/343 258/917/343 764/918/343 758/912/343
f 256/915/344 259/919/344 258/917/344 255/911/344
f 257/920/345 260/921/345 259/919/345 256/915/345
f 218/774/346 260/922/346 257/909/346
f 218/774/347 263/923/347 260/922/347
f 258/917/348 261/924/348 761/925/348 764/918/348
f 259/919/349 262/926/349 261/924/349 258/917/349
f 260/921/350 263/927/350 262/926/350 259/919/350
f 261/924/351 264/928/351 749/929/351 761/925/351
f 262/926/352 265/930/352 264/928/352 261/924/352
f 263/927/353 266/931/353 265/930/353 262/926/353
f 218/774/354 266/932/354 263/923/354
f 264/928/355 267/933/355 750/934/355 749/929/355
f 265/930/356 268/935/356 267/933/356 264/928/356
f 266/931/357 269/936/357 268/935/357 265/930/357
f 218/774/358 269/937/358 266/932/358
f 268/935/359 271/938/359 270/939/359 267/933/359
f 269/936/360 272/940/360 271/938/360 268/935/360
f 218/774/361 272/941/361 269/937/361
f 267/933/362 270/939/362 752/942/362 750/934/362
f 270/939/363 178/766/363 747/769/363 752/942/363
f 271/938/364 273/770/364 178/766/364 270/939/364
f 272/940/365 274/772/365 273/770/365 271/938/365
f 218/774/366 274/776/366 272/941/366
f 275/943/239 276/944/239 713/945/239 715/946/239
f 370/947/240 277/948/240 276/944/240 275/943/240
f 371/949/241 278/950/241 277/948/241 370/947/241
f 315/951/242 278/952/242 371/953/242
f 315/951/243 281/954/243 278/952/243
f 276/944/367 279/955/367 728/956/367 713/945/367
f 277/948/245 280/957/245 279/955/245 276/944/245
f 278/950/246 281/958/246 280/957/246 277/948/246
f 279/955/368 282/959/368 711/960/368 728/956/368
f 280/957/248 283/961/248 282/959/248 279/955/248
f 281/958/249 284/962/249 283/961/249 280/957/249
f 315/951/250 284/963/250 281/954/250
f 282/959/251 285/964/251 708/965/251 711/960/251
f 283/961/369 286/966/369 285/964/369 282/959/369
f 284/962/253 287/967/253 286/966/253 283/961/253
f 315/951/370 287/968/370 284/963/370
f 285/964/255 288/969/255 706/970/255 708/965/255
f 286/966/371 289/971/371 288/969/371 285/964/371
f 287/967/257 290/972/257 289/971/257 286/966/257
f 315/951/372 290/973/372 287/968/372
f 288/969/259 291/974/259 705/975/259 706/970/259
f 289/971/260 292/976/260 291/974/260 288/969/260
f 290/972/373 293/977/373 292/976/373 289/971/373
f 315/951/262 293/978/262 290/973/262
f 292/976/263 295/979/263 294/980/263 291/974/263
f 293/978/374 296/981/374 295/982/374 292/983/374
f 315/951/375 296/981/375 293/978/375
f 291/974/266 294/980/266 727/984/266 705/975/266
f 294/985/267 297/986/267 702/987/267 727/988/267
f 295/989/376 298/990/376 297/986/376 294/985/376
f 296/981/269 299/991/269 298/992/269 295/982/269
f 315/951/377 299/991/377 296/981/377
f 298/990/271 301/993/271 300/994/271 297/986/271
f 299/991/272 302/995/272 301/996/272 298/992/272
f 315/951/378 302/995/378 299/991/378
f 297/986/274 300/994/274 703/997/274 702/987/274
f 300/998/275 303/999/275 704/1000/275 703/1001/275
f 301/1002/276 304/1003/276 303/999/276 300/998/276
f 302/995/379 305/1004/379 304/1005/379 301/996/379
f 315/951/380 305/1004/380 302/995/380
f 305/1006/381 308/1007/381 307/1008/381 304/1003/381
f 315/951/280 308/1009/280 305/1004/280
f 303/999/281 306/1010/281 707/1011/281 704/1000/281
f 304/1003/282 307/1008/282 306/1010/282 303/999/282
f 306/1010/283 309/1012/283 709/1013/283 707/1011/283
f 307/1008/382 310/1014/382 309/1012/382 306/1010/382
f 308/1007/285 311/1015/285 310/1014/285 307/1008/285
f 315/951/383 311/1016/383 308/1009/383
f 315/951/384 314/1017/384 311/1016/384
f 309/1012/288 312/1018/288 710/1019/288 709/1013/288
f 310/1014/289 313/1020/289 312/1018/289 309/1012/289
f 311/1015/290 314/1021/290 313/1020/290 310/1014/290
f 312/1018/291 316/1022/291 712/1023/291 710/1019/291
f 313/1020/292 317/1024/292 316/1022/292 312/1018/292
f 314/1021/293 318/1025/293 317/1024/293 313/1020/293
f 315/951/294 318/1026/294 314/1017/294
f 315/951/295 321/1027/295 318/1026/295
f 316/1022/296 319/1028/296 714/1029/296 712/1023/296
f 317/1024/297 320/1030/297 319/1028/297 316/1022/297
f 318/1025/298 321/1031/298 320/1030/298 317/1024/298
f 319/1028/299 322/1032/299 716/1033/299 714/1029/299
f 320/1030/300 323/1034/300 322/1032/300 319/1028/300
f 321/1031/385 324/1035/385 323/1034/385 320/1030/385
f 315/951/302 324/1036/302 321/1027/302
f 322/1032/386 325/1037/386 721/1038/386 716/1033/386
f 323/1034/304 326/1039/304 325/1037/304 322/1032/304
f 324/1035/387 327/1040/387 326/1039/387 323/1034/387
f 315/951/306 327/1041/306 324/1036/306
f 325/1037/307 328/1042/307 719/1043/307 721/1038/307
f 326/1039/308 329/1044/308 328/1042/308 325/1037/308
f 327/1040/309 330/1045/309 329/1044/309 326/1039/309
f 315/951/388 330/1046/388 327/1041/388
f 328/1042/311 331/1047/311 722/1048/311 719/1043/311
f 329/1044/312 332/1049/312 331/1047/312 328/1042/312
f 330/1045/313 333/1050/313 332/1049/313 329/1044/313
f 315/951/314 333/1051/314 330/1046/314
f 332/1049/315 335/1052/315 334/1053/315 331/1047/315
f 333/1050/316 336/1054/316 335/1052/316 332/1049/316
f 315/951/389 336/1055/389 333/1051/389
f 331/1047/318 334/1053/318 730/1056/318 722/1048/318
f 334/1053/319 337/1057/319 732/1058/319 730/1056/319
f 335/1052/390 338/1059/390 337/1057/390 334/1053/390
f 336/1054/321 339/1060/321 338/1059/321 335/1052/321
f 315/951/322 339/1061/322 336/1055/322
f 339/1060/391 342/1062/391 341/1063/391 338/1059/391
f 315/951/392 342/1064/392 339/1061/392
f 337/1057/325 340/1065/325 724/1066/325 732/1058/325
f 338/1059/326 341/1063/326 340/1065/326 337/1057/326
f 340/1065/327 343/1067/327 725/1068/327 724/1066/327
f 341/1063/328 344/1069/328 343/1067/328 340/1065/328
f 342/1064/393 345/1070/393 344/1071/393 341/1072/393
f 315/951/394 345/1070/394 342/1064/394
f 345/1070/331 348/1073/331 347/1074/331 344/1071/331
f 315/951/395 348/1073/395 345/1070/395
f 343/1075/333 346/1076/333 733/1077/333 725/1078/333
f 344/1079/334 347/1080/334 346/1076/334 343/1075/334
f 346/1076/335 349/1081/335 723/1082/335 733/1077/335
f 347/1080/396 350/1083/396 349/1081/396 346/1076/396
f 348/1073/337 351/1084/337 350/1085/337 347/1074/337
f 315/951/397 351/1084/397 348/1073/397
f 315/951/398 354/1086/398 351/1084/398
f 349/1087/340 352/1088/340 726/1089/340 723/1090/340
f 350/1091/341 353/1092/341 352/1088/341 349/1087/341
f 351/1084/399 354/1086/399 353/1093/399 350/1085/399
f 352/1088/400 355/1094/400 731/1095/400 726/1089/400
f 353/1092/344 356/1096/344 355/1094/344 352/1088/344
f 354/1097/401 357/1098/401 356/1096/401 353/1092/401
f 315/951/346 357/1099/346 354/1086/346
f 315/951/402 360/1100/402 357/1099/402
f 355/1094/348 358/1101/348 729/1102/348 731/1095/348
f 356/1096/403 359/1103/403 358/1101/403 355/1094/403
f 357/1098/350 360/1104/350 359/1103/350 356/1096/350
f 358/1101/351 361/1105/351 717/1106/351 729/1102/351
f 359/1103/352 362/1107/352 361/1105/352 358/1101/352
f 360/1104/404 363/1108/404 362/1107/404 359/1103/404
f 315/951/354 363/1109/354 360/1100/354
f 361/1105/405 364/1110/405 718/1111/405 717/1106/405
f 362/1107/356 365/1112/356 364/1110/356 361/1105/356
f 363/1108/357 366/1113/357 365/1112/357 362/1107/357
f 315/951/358 366/1114/358 363/1109/358
f 365/1112/359 368/1115/359 367/1116/359 364/1110/359
f 366/1113/360 369/1117/360 368/1115/360 365/1112/360
f 315/951/406 369/1118/406 366/1114/406
f 364/1110/407 367/1116/407 720/1119/407 718/1111/407
f 367/1116/363 275/943/363 715/946/363 720/1119/363
f 368/1115/364 370/947/364 275/943/364 367/1116/364
f 369/1117/365 371/949/365 370/947/365 368/1115/365
f 315/951/366 371/953/366 369/1118/366
f 466/1120/78 533/1121/78 522/1122/78 428/1123/78
f 431/1124/96 481/1125/96 480/1126/96 479/1127/96 478/1128/96 477/1129/96 476/1130/96 475/1131/96 474/1132/96 430/1133/96 423/1134/96 422/1135/96
f 428/1123/78 522/1122/78 521/1136/78 429/1137/78
f 432/1138/78 515/1139/78 520/1140/78 473/1141/78
f 427/1142/78 518/1143/78 519/1144/78 426/1145/78
f 433/1146/78 516/1147/78 515/1139/78 432/1138/78
f 429/1137/78 521/1136/78 518/1143/78 427/1142/78
f 459/1148/408 458/1149/408 492/1150/409 493/1151/409
f 489/1152/410 463/1153/410 497/1154/410 505/1155/410
f 465/1156/408 464/1157/408 498/1158/409 499/1159/409
f 462/1160/411 488/1161/411 504/1162/411 496/1163/411
f 422/1164/88 426/1165/88 433/1166/88 431/1167/88
f 426/1145/78 519/1144/78 516/1147/78 433/1146/78
f 473/1141/78 520/1140/78 539/1168/78 472/1169/78
f 472/1169/78 539/1168/78 538/1170/78 471/1171/78
f 471/1171/78 538/1170/78 537/1172/78 470/1173/78
f 470/1173/78 537/1172/78 536/1174/78 469/1175/78
f 469/1175/78 536/1174/78 535/1176/78 468/1177/78
f 500/1178/412 501/1179/412 493/1180/412 492/1181/412
f 502/1182/412 503/1183/412 495/1184/412 494/1185/412
f 504/1186/412 505/1187/412 497/1188/412 496/1189/412
f 506/1190/412 507/1191/412 499/1192/412 498/1193/412
f 484/1194/413 485/1195/413 501/1196/413 500/1197/413
f 464/1198/411 490/1199/411 506/1200/411 498/1201/411
f 491/1202/410 465/1203/410 499/1204/410 507/1205/410
f 490/1206/413 491/1207/413 507/1208/413 506/1209/413
f 461/1210/408 460/1211/408 494/1212/409 495/1213/409
f 458/1214/411 484/1215/411 500/1216/411 492/1217/411
f 485/1218/410 459/1219/410 493/1220/410 501/1221/410
f 488/1222/413 489/1223/413 505/1224/413 504/1225/413
f 463/1226/408 462/1227/408 496/1228/409 497/1229/409
f 460/1230/411 486/1231/411 502/1232/411 494/1233/411
f 487/1234/410 461/1235/410 495/1236/410 503/1237/410
f 486/1238/413 487/1239/413 503/1240/413 502/1241/413
f 468/1177/78 535/1176/78 534/1242/78 467/1243/78
f 547/1244/414 524/1245/414 522/1246/415 533/1247/415
f 509/1248/85 734/1249/85 735/1250/85 736/1251/85 739/1252/85 741/1253/85 742/1254/85 744/1255/85 746/1256/85 748/1257/85 753/1258/85 751/1259/85 754/1260/85 763/1261/85 762/1262/85 756/1263/85 757/1264/85 765/1265/85 702/1266/85
f 523/1267/95 517/1268/95 515/1269/95 516/1270/95
f 524/1271/88 525/1272/88 521/1273/88 522/1274/88
f 517/1275/414 540/1276/414 520/1277/415 515/1278/415
f 540/1276/414 541/1279/414 539/1280/415 520/1277/415
f 541/1279/414 542/1281/414 538/1282/415 539/1280/415
f 542/1281/414 543/1283/414 537/1284/415 538/1282/415
f 543/1283/414 544/1285/414 536/1286/415 537/1284/415
f 544/1285/414 545/1287/414 535/1288/415 536/1286/415
f 545/1287/414 546/1289/414 534/1290/415 535/1288/415
f 546/1289/414 547/1244/414 533/1247/415 534/1290/415
f 527/1291/416 526/1292/416 547/1244/414 546/1289/414
f 528/1293/416 527/1291/416 546/1289/414 545/1287/414
f 529/1294/416 528/1293/416 545/1287/414 544/1285/414
f 530/1295/416 529/1294/416 544/1285/414 543/1283/414
f 531/1296/416 530/1295/416 543/1283/414 542/1281/414
f 532/1297/416 531/1296/416 542/1281/414 541/1279/414
f 512/1298/416 532/1297/416 541/1279/414 540/1276/414
f 513/1299/416 512/1298/416 540/1276/414 517/1275/414
f 511/1300/88 510/1301/88 525/1272/88 524/1271/88
f 508/1302/95 513/1303/95 517/1268/95 523/1267/95
f 526/1292/416 511/1304/416 524/1245/414 547/1244/414
f 523/1267/95 516/1270/95 519/1305/95 509/1306/95 508/1302/95
f 514/1307/88 518/1308/88 521/1273/88 525/1272/88 510/1301/88
f 467/1243/78 534/1242/78 533/1121/78 466/1120/78
f 423/1309/95 430/1310/95 483/1311/95 429/1312/95 427/1313/95
f 427/1314/171 691/1315/171 697/1316/171 695/1317/171
f 687/1318/88 689/1319/88 688/1320/88 686/1321/88
f 685/1322/101 687/1323/101 686/1324/101 684/1325/101
f 693/1326/95 691/1327/95 685/1328/95 684/1329/95 690/1330/95 692/1331/95
f 689/1332/78 693/1333/78 692/1334/78 688/1335/78
f 519/1336/85 518/1337/85 690/1338/85 684/1339/85 686/1340/85 688/1341/85
f 685/1342/171 691/1315/171 427/1314/171 426/1343/171 687/1344/171
f 697/1345/88 699/1346/88 698/1347/88 696/1348/88
f 695/1349/101 697/1350/101 696/1351/101 694/1352/101
f 701/1353/95 695/1354/95 694/1355/95 700/1356/95
f 699/1357/78 701/1358/78 700/1359/78 698/1360/78
f 692/1361/85 690/1338/85 518/1337/85 694/1362/85 696/1363/85 698/1364/85
f 691/1315/171 693/1365/171 689/1366/171 687/1344/171 426/1343/171 422/1367/171 423/1368/171 427/1314/171 695/1317/171 701/1369/171 699/1370/171 697/1316/171
f 514/1371/85 509/1248/85 702/1266/85 703/1372/85 704/1373/85 707/1374/85 709/1375/85 710/1376/85 712/1377/85 714/1378/85 716/1379/85 721/1380/85 719/1381/85 722/1382/85 730/1383/85 732/1384/85 724/1385/85 725/1386/85 733/1387/85
f 734/1249/85 509/1248/85 519/1336/85 688/1341/85 692/1361/85 698/1364/85 700/1388/85 694/1362/85 518/1337/85 514/1371/85 733/1387/85 723/1389/85 726/1390/85 731/1391/85 729/1392/85 717/1393/85 718/1394/85 720/1395/85 715/1396/85 713/1397/85 728/1398/85 711/1399/85 708/1400/85 706/1401/85 705/1402/85 727/1403/85 702/1266/85 765/1265/85 755/1404/85 758/1405/85 764/1406/85 761/1407/85 749/1408/85 750/1409/85 752/1410/85 747/1411/85 745/1412/85 760/1413/85 743/1414/85 740/1415/85 738/1416/85 737/1417/85 759/1418/85
usemtl Plastic
f 491/1419/417 482/1420/417 433/1421/412 465/1422/412
f 466/1120/78 428/1123/78 429/1137/78 458/1149/408
f 432/1138/78 473/1141/78 465/1156/408 433/1146/78
f 473/1141/78 472/1169/78 464/1157/408 465/1156/408
f 472/1169/78 471/1171/78 463/1226/408 464/1157/408
f 471/1171/78 470/1173/78 462/1227/408 463/1226/408
f 470/1173/78 469/1175/78 461/1210/408 462/1227/408
f 469/1175/78 468/1177/78 460/1211/408 461/1210/408
f 468/1177/78 467/1243/78 459/1148/408 460/1211/408
f 467/1243/78 466/1120/78 458/1149/408 459/1148/408
f 483/1423/417 484/1424/417 458/1425/412 429/1426/412
f 485/1427/417 486/1428/417 460/1429/412 459/1430/412
f 487/1431/417 488/1432/417 462/1433/412 461/1434/412
f 489/1435/417 490/1436/417 464/1437/412 463/1438/412
f 480/1439/418 481/1440/418 491/1419/417 490/1436/417
f 479/1441/418 480/1439/418 490/1436/417 489/1435/417
f 478/1442/418 479/1441/418 489/1435/417 488/1432/417
f 477/1443/418 478/1442/418 488/1432/417 487/1431/417
f 476/1444/418 477/1443/418 487/1431/417 486/1428/417
f 475/1445/418 476/1444/418 486/1428/417 485/1427/417
f 474/1446/418 475/1445/418 485/1427/417 484/1424/417
f 430/1447/418 474/1446/418 484/1424/417 483/1423/417
f 481/1440/418 431/1448/418 482/1420/417 491/1419/417
