# Blender 3.4.1
# www.blender.org
mtllib toilet-paper.mtl
o Toilet_paper_dispenser
v -0.043816 0.054903 0.010203
v 0.053096 0.054903 0.010203
v -0.043816 0.045050 0.011174
v 0.053096 0.045050 0.011174
v -0.043816 0.035576 0.014048
v 0.053096 0.035576 0.014048
v -0.043816 0.026844 0.018715
v 0.053096 0.026844 0.018715
v -0.043816 0.019191 0.024996
v 0.053096 0.019191 0.024996
v -0.043816 0.012910 0.032649
v 0.053096 0.012910 0.032649
v -0.043816 0.008243 0.041381
v 0.053096 0.008243 0.041380
v -0.043816 0.005369 0.050855
v 0.053096 0.005369 0.050855
v -0.043816 0.004399 0.060708
v 0.053096 0.004399 0.060708
v -0.043816 0.005369 0.070561
v 0.053096 0.005369 0.070561
v -0.043816 0.008243 0.080035
v 0.053096 0.008243 0.080035
v -0.043816 0.012910 0.088767
v 0.053096 0.012910 0.088767
v -0.043816 0.019191 0.096420
v 0.053096 0.019191 0.096420
v -0.043816 0.026844 0.102701
v 0.053096 0.026844 0.102701
v -0.043816 0.035576 0.107368
v 0.053096 0.035576 0.107368
v -0.043816 0.045050 0.110242
v 0.053096 0.045050 0.110242
v -0.043816 0.054903 0.111213
v 0.053096 0.054903 0.111213
v -0.043816 0.064756 0.110242
v 0.053096 0.064756 0.110242
v -0.043816 0.074231 0.107368
v 0.053096 0.074231 0.107368
v -0.043816 0.082962 0.102701
v 0.053096 0.082962 0.102701
v -0.043816 0.090616 0.096420
v 0.053096 0.090616 0.096420
v -0.043816 0.096896 0.088767
v 0.053096 0.096896 0.088767
v -0.043816 0.101564 0.080035
v 0.053096 0.101564 0.080035
v -0.043816 0.104438 0.070561
v 0.053096 0.104438 0.070561
v -0.043816 0.105408 0.060708
v 0.053096 0.105408 0.060708
v -0.043816 0.104438 0.050855
v 0.053096 0.104438 0.050855
v -0.043816 0.101564 0.041381
v 0.053096 0.101564 0.041380
v -0.043816 0.096896 0.032649
v 0.053096 0.096896 0.032649
v -0.043816 0.090616 0.024996
v 0.053096 0.090616 0.024996
v -0.043816 0.082962 0.018715
v 0.053096 0.082962 0.018715
v -0.043816 0.074231 0.014048
v 0.053096 0.074231 0.014048
v -0.043816 0.064756 0.011174
v 0.053096 0.064756 0.011174
v 0.053096 0.073100 0.068245
v -0.043816 0.073100 0.068245
v 0.053096 0.068830 0.074635
v -0.043816 0.068830 0.074635
v 0.053096 0.043961 0.044332
v -0.043816 0.043961 0.044332
v 0.053096 0.074221 0.064550
v -0.043816 0.074221 0.064550
v 0.053096 0.047366 0.042511
v -0.043816 0.047366 0.042512
v 0.053096 0.054903 0.041012
v -0.043816 0.054903 0.041012
v 0.053096 0.074599 0.060708
v -0.043816 0.074599 0.060708
v 0.053096 0.065846 0.044332
v -0.043816 0.065846 0.044332
v 0.053096 0.074221 0.056865
v -0.043816 0.074220 0.056865
v 0.053096 0.051061 0.041391
v -0.043816 0.051061 0.041391
v 0.053096 0.071280 0.071650
v -0.043816 0.071280 0.071650
v 0.053096 0.058746 0.041391
v -0.043816 0.058746 0.041391
v 0.053096 0.062441 0.042511
v -0.043816 0.062440 0.042512
v 0.053096 0.043961 0.077084
v -0.043816 0.043961 0.077084
v 0.053096 0.047366 0.078904
v -0.043816 0.047366 0.078904
v 0.053096 0.040976 0.046781
v -0.043816 0.040976 0.046781
v 0.053096 0.038527 0.071650
v -0.043816 0.038527 0.071650
v 0.053096 0.040976 0.074635
v -0.043816 0.040976 0.074635
v 0.053096 0.038527 0.049766
v -0.043816 0.038527 0.049766
v 0.053096 0.036707 0.068245
v -0.043816 0.036707 0.068245
v 0.053096 0.065846 0.077084
v -0.043816 0.065846 0.077084
v 0.053096 0.062441 0.078904
v -0.043816 0.062441 0.078904
v 0.053096 0.035586 0.064550
v -0.043816 0.035586 0.064550
v 0.053096 0.051061 0.080025
v -0.043816 0.051061 0.080025
v 0.053096 0.054903 0.080403
v -0.043816 0.054903 0.080404
v 0.053096 0.071280 0.049766
v -0.043816 0.071280 0.049766
v 0.053096 0.068830 0.046781
v -0.043816 0.068830 0.046781
v 0.053096 0.036707 0.053171
v -0.043816 0.036707 0.053171
v 0.053096 0.035208 0.060708
v -0.043816 0.035208 0.060708
v 0.053096 0.035586 0.056865
v -0.043816 0.035586 0.056865
v 0.053096 0.058746 0.080025
v -0.043816 0.058746 0.080025
v 0.053096 0.073100 0.053171
v -0.043816 0.073100 0.053171
v -0.043816 0.105408 0.128303
v 0.053096 0.105408 0.128303
v -0.051886 0.052435 0.036977
v -0.051298 0.052982 0.036432
v -0.050906 0.053802 0.036069
v -0.050768 0.054768 0.035941
v -0.050906 0.055734 0.036069
v -0.051298 0.056554 0.036432
v -0.051886 0.057101 0.036977
v -0.052578 0.057293 0.037619
v -0.053271 0.057101 0.038262
v -0.053858 0.056554 0.038806
v -0.054250 0.055734 0.039170
v -0.054388 0.054768 0.039298
v -0.054250 0.053802 0.039170
v -0.053858 0.052982 0.038806
v -0.053271 0.052435 0.038262
v -0.052578 0.052243 0.037619
v -0.051047 0.052435 0.037965
v -0.050505 0.052982 0.037371
v -0.050144 0.053802 0.036974
v -0.050017 0.054768 0.036834
v -0.050144 0.055734 0.036974
v -0.050505 0.056554 0.037371
v -0.051047 0.057101 0.037965
v -0.051685 0.057293 0.038666
v -0.052323 0.057101 0.039366
v -0.052865 0.056554 0.039960
v -0.053226 0.055734 0.040357
v -0.053353 0.054768 0.040497
v -0.053226 0.053802 0.040357
v -0.052865 0.052982 0.039960
v -0.052323 0.052435 0.039366
v -0.051685 0.052243 0.038666
v -0.047118 0.052435 0.041250
v -0.046708 0.052982 0.040551
v -0.046434 0.053802 0.040084
v -0.046338 0.054768 0.039920
v -0.046434 0.055734 0.040084
v -0.046708 0.056554 0.040551
v -0.047118 0.057101 0.041250
v -0.047602 0.057293 0.042075
v -0.048085 0.057101 0.042899
v -0.048495 0.056554 0.043598
v -0.048769 0.055734 0.044065
v -0.048865 0.054768 0.044229
v -0.048769 0.053802 0.044065
v -0.048495 0.052982 0.043598
v -0.048085 0.052435 0.042899
v -0.047602 0.052243 0.042075
v -0.041997 0.052435 0.043646
v -0.041768 0.052982 0.042862
v -0.041615 0.053802 0.042338
v -0.041562 0.054768 0.042154
v -0.041615 0.055734 0.042338
v -0.041768 0.056554 0.042862
v -0.041997 0.057101 0.043646
v -0.042266 0.057293 0.044570
v -0.042536 0.057101 0.045495
v -0.042764 0.056554 0.046279
v -0.042917 0.055734 0.046803
v -0.042971 0.054768 0.046987
v -0.042917 0.053802 0.046803
v -0.042764 0.052982 0.046279
v -0.042536 0.052435 0.045495
v -0.042266 0.052243 0.044570
v -0.037030 0.052435 0.044521
v -0.036964 0.052982 0.043705
v -0.036920 0.053802 0.043159
v -0.036905 0.054768 0.042968
v -0.036920 0.055734 0.043159
v -0.036964 0.056554 0.043705
v -0.037030 0.057101 0.044521
v -0.037108 0.057293 0.045484
v -0.037186 0.057101 0.046447
v -0.037252 0.056554 0.047263
v -0.037296 0.055734 0.047809
v -0.037312 0.054768 0.048000
v -0.037296 0.053802 0.047809
v -0.037252 0.052982 0.047263
v -0.037186 0.052435 0.046447
v -0.037108 0.052243 0.045484
v 0.048622 0.052454 0.044522
v 0.048605 0.053006 0.043705
v 0.048636 0.053826 0.043160
v 0.048710 0.054789 0.042968
v 0.048817 0.055749 0.043160
v 0.048939 0.056560 0.043705
v 0.049058 0.057098 0.044521
v 0.049157 0.057281 0.045483
v 0.049219 0.057082 0.046446
v 0.049236 0.056530 0.047262
v 0.049205 0.055710 0.047808
v 0.049131 0.054747 0.047999
v 0.049024 0.053787 0.047808
v 0.048902 0.052976 0.047263
v 0.048783 0.052438 0.046447
v 0.048685 0.052255 0.045484
v 0.052158 0.051767 0.043904
v 0.052093 0.052331 0.043099
v 0.052211 0.053128 0.042533
v 0.052496 0.054036 0.042292
v 0.052903 0.054917 0.042412
v 0.053371 0.055637 0.042876
v 0.053828 0.056086 0.043612
v 0.054205 0.056196 0.044509
v 0.054444 0.055950 0.045430
v 0.054509 0.055386 0.046235
v 0.054390 0.054589 0.046801
v 0.054106 0.053681 0.047042
v 0.053698 0.052800 0.046922
v 0.053231 0.052080 0.046458
v 0.052774 0.051631 0.045722
v 0.052397 0.051521 0.044825
v 0.054531 0.049929 0.042254
v 0.054418 0.050530 0.041483
v 0.054624 0.051260 0.040856
v 0.055117 0.052006 0.040470
v 0.055823 0.052656 0.040383
v 0.056633 0.053111 0.040608
v 0.057425 0.053301 0.041112
v 0.058077 0.053197 0.041817
v 0.058492 0.052816 0.042617
v 0.058605 0.052215 0.043388
v 0.058399 0.051485 0.044015
v 0.057906 0.050739 0.044401
v 0.057200 0.050088 0.044488
v 0.056390 0.049634 0.044262
v 0.055598 0.049444 0.043759
v 0.054946 0.049547 0.043054
v 0.055424 0.047188 0.039794
v 0.055295 0.047826 0.039056
v 0.055531 0.048488 0.038368
v 0.056095 0.049071 0.037835
v 0.056903 0.049488 0.037539
v 0.057831 0.049675 0.037524
v 0.058738 0.049603 0.037793
v 0.059486 0.049284 0.038304
v 0.059961 0.048766 0.038980
v 0.060090 0.048127 0.039719
v 0.059854 0.047466 0.040406
v 0.059289 0.046882 0.040939
v 0.058481 0.046465 0.041235
v 0.057553 0.046278 0.041250
v 0.056646 0.046350 0.040981
v 0.055899 0.046669 0.040470
v 0.055507 0.010594 0.006942
v 0.055378 0.011259 0.006228
v 0.055614 0.011872 0.005497
v 0.056179 0.012340 0.004861
v 0.056987 0.012592 0.004416
v 0.057916 0.012590 0.004231
v 0.058823 0.012333 0.004334
v 0.059571 0.011860 0.004708
v 0.060046 0.011245 0.005297
v 0.060175 0.010580 0.006012
v 0.059939 0.009967 0.006743
v 0.059374 0.009499 0.007379
v 0.058566 0.009247 0.007823
v 0.057637 0.009249 0.008008
v 0.056730 0.009506 0.007906
v 0.055982 0.009979 0.007532
v 0.054628 0.007855 0.004484
v 0.054515 0.008557 0.003803
v 0.054721 0.009102 0.003010
v 0.055215 0.009407 0.002228
v 0.055921 0.009425 0.001573
v 0.056733 0.009154 0.001147
v 0.057526 0.008634 0.001013
v 0.058179 0.007945 0.001193
v 0.058594 0.007193 0.001659
v 0.058707 0.006490 0.002340
v 0.058501 0.005945 0.003132
v 0.058007 0.005640 0.003915
v 0.057301 0.005623 0.004570
v 0.056490 0.005894 0.004996
v 0.055697 0.006414 0.005129
v 0.055043 0.007102 0.004949
v 0.052267 0.006020 0.002837
v 0.052201 0.006760 0.002189
v 0.052320 0.007237 0.001336
v 0.052606 0.007380 0.000407
v 0.053013 0.007166 -0.000455
v 0.053482 0.006628 -0.001121
v 0.053940 0.005848 -0.001488
v 0.054317 0.004945 -0.001501
v 0.054557 0.004056 -0.001157
v 0.054622 0.003316 -0.000509
v 0.054503 0.002839 0.000344
v 0.054218 0.002696 0.001272
v 0.053810 0.002910 0.002135
v 0.053342 0.003448 0.002800
v 0.052884 0.004228 0.003167
v 0.052506 0.005131 0.003180
v 0.048737 0.005334 0.002220
v 0.048720 0.006086 0.001584
v 0.048751 0.006540 0.000710
v 0.048825 0.006627 -0.000268
v 0.048932 0.006333 -0.001202
v 0.049054 0.005704 -0.001950
v 0.049174 0.004835 -0.002397
v 0.049272 0.003858 -0.002476
v 0.049335 0.002923 -0.002174
v 0.049352 0.002171 -0.001538
v 0.049321 0.001716 -0.000664
v 0.049246 0.001629 0.000314
v 0.049140 0.001923 0.001248
v 0.049017 0.002552 0.001996
v 0.048898 0.003421 0.002443
v 0.048799 0.004398 0.002522
v 0.000093 0.005349 0.002234
v 0.000093 0.006102 0.001598
v 0.000093 0.006554 0.000723
v 0.000093 0.006638 -0.000259
v 0.000093 0.006339 -0.001198
v 0.000093 0.005703 -0.001951
v 0.000093 0.004828 -0.002403
v 0.000093 0.003846 -0.002487
v 0.000093 0.002908 -0.002188
v 0.000093 0.002154 -0.001552
v 0.000093 0.001702 -0.000677
v 0.000093 0.001619 0.000305
v 0.000093 0.001917 0.001244
v 0.000093 0.002553 0.001997
v 0.000093 0.003428 0.002449
v 0.000093 0.004410 0.002532
v -0.016718 -0.000000 -0.007296
v -0.016718 -0.000000 0.007243
v 0.016904 -0.000000 -0.007296
v 0.016905 -0.000000 0.007243
v -0.016718 0.008274 -0.007296
v -0.016718 0.008274 0.007243
v 0.016904 0.008274 -0.007296
v 0.016905 0.008274 0.007243
v -0.043816 0.054903 0.010203
v -0.043816 0.045050 0.011174
v 0.053096 0.045050 0.011174
v 0.053096 0.054903 0.010203
v -0.043816 0.035576 0.014048
v 0.053096 0.035576 0.014048
v -0.043816 0.026844 0.018715
v 0.053096 0.026844 0.018715
v -0.043816 0.019191 0.024996
v 0.053096 0.019191 0.024996
v -0.043816 0.012910 0.032649
v 0.053096 0.012910 0.032649
v -0.043816 0.008243 0.041381
v 0.053096 0.008243 0.041380
v -0.043816 0.005369 0.050855
v 0.053096 0.005369 0.050855
v -0.043816 0.004399 0.060708
v 0.053096 0.004399 0.060708
v -0.043816 0.005369 0.070561
v 0.053096 0.005369 0.070561
v -0.043816 0.008243 0.080035
v 0.053096 0.008243 0.080035
v -0.043816 0.012910 0.088767
v 0.053096 0.012910 0.088767
v -0.043816 0.019191 0.096420
v 0.053096 0.019191 0.096420
v -0.043816 0.026844 0.102701
v 0.053096 0.026844 0.102701
v -0.043816 0.035576 0.107368
v 0.053096 0.035576 0.107368
v -0.043816 0.045050 0.110242
v 0.053096 0.045050 0.110242
v -0.043816 0.054903 0.111213
v 0.053096 0.054903 0.111213
v -0.043816 0.064756 0.110242
v 0.053096 0.064756 0.110242
v -0.043816 0.074231 0.107368
v 0.053096 0.074231 0.107368
v -0.043816 0.082962 0.102701
v 0.053096 0.082962 0.102701
v -0.043816 0.090616 0.096420
v 0.053096 0.090616 0.096420
v -0.043816 0.096896 0.088767
v 0.053096 0.096896 0.088767
v -0.043816 0.101564 0.080035
v 0.053096 0.101564 0.080035
v -0.043816 0.104438 0.070561
v 0.053096 0.104438 0.070561
v -0.043816 0.105408 0.060708
v -0.043816 0.105408 0.060708
v -0.043816 0.105408 0.060708
v 0.053096 0.105408 0.060708
v 0.053096 0.105408 0.060708
v 0.053096 0.105408 0.060708
v -0.043816 0.104438 0.050855
v 0.053096 0.104438 0.050855
v -0.043816 0.101564 0.041381
v 0.053096 0.101564 0.041380
v -0.043816 0.096896 0.032649
v 0.053096 0.096896 0.032649
v -0.043816 0.090616 0.024996
v 0.053096 0.090616 0.024996
v -0.043816 0.082962 0.018715
v 0.053096 0.082962 0.018715
v -0.043816 0.074231 0.014048
v 0.053096 0.074231 0.014048
v -0.043816 0.064756 0.011174
v 0.053096 0.064756 0.011174
v -0.043816 0.073100 0.068245
v -0.043816 0.071280 0.071650
v 0.053096 0.068830 0.074635
v 0.053096 0.065846 0.077084
v -0.043816 0.068830 0.074635
v -0.043816 0.065846 0.077084
v 0.053096 0.043961 0.044332
v 0.053096 0.047366 0.042511
v -0.043816 0.043961 0.044332
v -0.043816 0.047366 0.042512
v -0.043816 0.074221 0.064550
v -0.043816 0.051061 0.041391
v 0.053096 0.074599 0.060708
v 0.053096 0.074221 0.056865
v -0.043816 0.065846 0.044332
v -0.043816 0.068830 0.046781
v -0.043816 0.074220 0.056865
v -0.043816 0.074599 0.060708
v 0.053096 0.051061 0.041391
v 0.053096 0.071280 0.071650
v 0.053096 0.073100 0.068245
v 0.053096 0.074221 0.064550
v 0.053096 0.058746 0.041391
v 0.053096 0.054903 0.041012
v 0.053096 0.065846 0.044332
v 0.053096 0.062441 0.042511
v -0.043816 0.062440 0.042512
v -0.043816 0.058746 0.041391
v -0.043816 0.054903 0.041012
v 0.053096 0.043961 0.077084
v 0.053096 0.040976 0.074635
v -0.043816 0.043961 0.077084
v -0.043816 0.040976 0.074635
v 0.053096 0.040976 0.046781
v 0.053096 0.038527 0.049766
v 0.053096 0.047366 0.078904
v -0.043816 0.047366 0.078904
v -0.043816 0.038527 0.071650
v -0.043816 0.036707 0.068245
v -0.043816 0.038527 0.049766
v -0.043816 0.040976 0.046781
v 0.053096 0.036707 0.068245
v 0.053096 0.038527 0.071650
v 0.053096 0.073100 0.053171
v 0.053096 0.062441 0.078904
v -0.043816 0.062441 0.078904
v 0.053096 0.035586 0.064550
v -0.043816 0.035586 0.064550
v 0.053096 0.054903 0.080403
v 0.053096 0.051061 0.080025
v -0.043816 0.054903 0.080404
v -0.043816 0.051061 0.080025
v 0.053096 0.036707 0.053171
v 0.053096 0.071280 0.049766
v -0.043816 0.071280 0.049766
v -0.043816 0.073100 0.053171
v 0.053096 0.068830 0.046781
v -0.043816 0.036707 0.053171
v 0.053096 0.035208 0.060708
v 0.053096 0.035586 0.056865
v -0.043816 0.035208 0.060708
v -0.043816 0.035586 0.056865
v 0.053096 0.058746 0.080025
v -0.043816 0.058746 0.080025
v -0.051886 0.052435 0.036977
v -0.052578 0.052243 0.037619
v -0.051298 0.052982 0.036432
v -0.050906 0.053802 0.036069
v -0.050768 0.054768 0.035941
v -0.050906 0.055734 0.036069
v -0.051298 0.056554 0.036432
v -0.051886 0.057101 0.036977
v -0.052578 0.057293 0.037619
v -0.053271 0.057101 0.038262
v -0.053858 0.056554 0.038806
v -0.054250 0.055734 0.039170
v -0.054388 0.054768 0.039298
v -0.054250 0.053802 0.039170
v -0.053858 0.052982 0.038806
v -0.053271 0.052435 0.038262
v 0.000093 0.005349 0.002234
v 0.000093 0.004410 0.002532
v 0.000093 0.006102 0.001598
v 0.000093 0.006554 0.000723
v 0.000093 0.006638 -0.000259
v 0.000093 0.006339 -0.001198
v 0.000093 0.005703 -0.001951
v 0.000093 0.004828 -0.002403
v 0.000093 0.003846 -0.002487
v 0.000093 0.002908 -0.002188
v 0.000093 0.002154 -0.001552
v 0.000093 0.001702 -0.000677
v 0.000093 0.001619 0.000305
v 0.000093 0.001917 0.001244
v 0.000093 0.002553 0.001997
v 0.000093 0.003428 0.002449
v 0.016904 -0.000000 -0.007296
v 0.016904 -0.000000 -0.007296
v -0.016718 -0.000000 -0.007296
v -0.016718 -0.000000 -0.007296
v -0.016718 -0.000000 0.007243
v -0.016718 -0.000000 0.007243
v 0.016905 -0.000000 0.007243
v 0.016905 -0.000000 0.007243
v 0.016904 0.008274 -0.007296
v 0.016904 0.008274 -0.007296
v 0.016905 0.008274 0.007243
v 0.016905 0.008274 0.007243
v -0.016718 0.008274 -0.007296
v -0.016718 0.008274 -0.007296
v -0.016718 0.008274 0.007243
v -0.016718 0.008274 0.007243
vn -0.0000 -0.0000 -1.0000
vn -0.0000 -0.1951 -0.9808
vn -0.0000 -0.3827 -0.9239
vn -0.0000 -0.5556 -0.8315
vn -0.0000 -0.7071 -0.7071
vn -0.0000 -0.8315 -0.5556
vn -0.0000 -0.9239 -0.3827
vn -0.0000 -0.9808 -0.1951
vn -0.0000 -1.0000 -0.0000
vn -0.0000 -0.9808 0.1951
vn -0.0000 -0.9239 0.3827
vn -0.0000 -0.8315 0.5556
vn -0.0000 -0.7071 0.7071
vn -0.0000 -0.5556 0.8315
vn -0.0000 -0.3827 0.9239
vn -0.0000 -0.1951 0.9808
vn -0.0000 -0.0000 1.0000
vn -0.0000 0.1951 0.9808
vn -0.0000 0.3827 0.9239
vn -0.0000 0.5556 0.8315
vn -0.0000 0.7071 0.7071
vn -0.0000 0.8315 0.5556
vn -0.0000 0.9239 0.3827
vn -0.0000 0.9808 0.1951
vn -0.0000 0.9952 0.0980
vn -0.0000 0.9952 -0.0980
vn -0.0000 0.9808 -0.1951
vn -0.0000 0.9239 -0.3827
vn -0.0000 0.8315 -0.5556
vn -0.0000 0.7071 -0.7071
vn -0.0000 0.5556 -0.8315
vn -0.0000 0.3827 -0.9239
vn -0.0000 0.1951 -0.9808
vn 1.0000 -0.0000 -0.0000
vn -1.0000 -0.0000 -0.0000
vn -0.0000 1.0000 -0.0000
vn 0.3013 -0.9186 -0.2556
vn 0.2673 -0.9251 -0.2696
vn -0.0077 -0.9999 0.0074
vn 0.0042 -1.0000 -0.0032
vn 0.5486 -0.6958 -0.4636
vn 0.4999 -0.7058 -0.5020
vn 0.7097 -0.3729 -0.5978
vn 0.6535 -0.3803 -0.6545
vn 0.7652 -0.0000 -0.6438
vn 0.7069 -0.0000 -0.7073
vn 0.7097 0.3729 -0.5978
vn 0.6535 0.3803 -0.6545
vn 0.5486 0.6958 -0.4636
vn 0.4999 0.7058 -0.5020
vn 0.3013 0.9186 -0.2556
vn 0.2673 0.9251 -0.2696
vn 0.0042 1.0000 -0.0032
vn -0.0077 0.9999 0.0074
vn -0.2930 0.9224 0.2515
vn -0.2794 0.9175 0.2830
vn -0.5404 0.7012 0.4651
vn -0.5040 0.6954 0.5123
vn -0.7015 0.3767 0.6049
vn -0.6500 0.3731 0.6620
vn -0.7571 -0.0000 0.6533
vn -0.7004 -0.0000 0.7137
vn -0.7015 -0.3767 0.6049
vn -0.6500 -0.3731 0.6620
vn -0.5404 -0.7012 0.4651
vn -0.5040 -0.6954 0.5123
vn -0.2930 -0.9224 0.2515
vn -0.2794 -0.9175 0.2830
vn 0.1995 -0.9283 -0.3138
vn -0.0092 -0.9999 0.0134
vn 0.3776 -0.7118 -0.5922
vn 0.4965 -0.3853 -0.7778
vn 0.5382 -0.0000 -0.8428
vn 0.4965 0.3853 -0.7778
vn 0.3776 0.7118 -0.5922
vn 0.1995 0.9283 -0.3138
vn -0.0092 0.9999 0.0134
vn -0.2147 0.9168 0.3368
vn -0.3852 0.6958 0.6062
vn -0.4968 0.3741 0.7831
vn -0.5355 -0.0000 0.8445
vn -0.4968 -0.3741 0.7831
vn -0.3852 -0.6958 0.6062
vn -0.2147 -0.9168 0.3368
vn 0.1111 -0.9293 -0.3522
vn -0.0053 -0.9999 0.0154
vn 0.2106 -0.7146 -0.6671
vn 0.2774 -0.3879 -0.8790
vn 0.3009 -0.0000 -0.9537
vn 0.2774 0.3879 -0.8790
vn 0.2106 0.7146 -0.6671
vn 0.1111 0.9293 -0.3522
vn -0.0053 0.9999 0.0154
vn -0.1204 0.9177 0.3785
vn -0.2166 0.6983 0.6823
vn -0.2801 0.3763 0.8831
vn -0.3022 -0.0000 0.9532
vn -0.2801 -0.3763 0.8831
vn -0.2166 -0.6983 0.6823
vn -0.1204 -0.9178 0.3785
vn 0.0326 -0.9270 -0.3737
vn -0.0010 -1.0000 0.0088
vn 0.0610 -0.7117 -0.6998
vn 0.0799 -0.3861 -0.9190
vn 0.0865 -0.0000 -0.9963
vn 0.0798 0.3867 -0.9187
vn 0.0609 0.7131 -0.6984
vn 0.0325 0.9283 -0.3704
vn -0.0010 0.9999 0.0128
vn -0.0345 0.9193 0.3921
vn -0.0629 0.7009 0.7105
vn -0.0817 0.3785 0.9220
vn -0.0884 -0.0000 0.9961
vn -0.0818 -0.3791 0.9217
vn -0.0630 -0.7023 0.7091
vn -0.0346 -0.9206 0.3889
vn -0.1207 -0.9181 -0.3774
vn -0.0965 -0.9953 0.0092
vn -0.1271 -0.6982 -0.7046
vn -0.1154 -0.3696 -0.9220
vn -0.0861 0.0168 -0.9961
vn -0.0420 0.4005 -0.9153
vn 0.0107 0.7205 -0.6934
vn 0.0632 0.9280 -0.3673
vn 0.1064 0.9943 0.0114
vn 0.1336 0.9129 0.3857
vn 0.1409 0.6980 0.7021
vn 0.1274 0.3811 0.9157
vn 0.0950 0.0066 0.9955
vn 0.0483 -0.3716 0.9271
vn -0.0052 -0.6969 0.7171
vn -0.0563 -0.9171 0.3946
vn -0.4773 -0.8297 -0.2896
vn -0.3731 -0.9238 0.0860
vn -0.5057 -0.6005 -0.6195
vn -0.4539 -0.2734 -0.8481
vn -0.3298 0.0959 -0.9391
vn -0.1528 0.4462 -0.8818
vn 0.0483 0.7228 -0.6894
vn 0.2405 0.8864 -0.3954
vn 0.3948 0.9176 -0.0466
vn 0.4904 0.8161 0.3057
vn 0.5161 0.5987 0.6126
vn 0.4691 0.2955 0.8322
vn 0.3546 -0.0522 0.9336
vn 0.1866 -0.3958 0.8992
vn -0.0116 -0.6841 0.7293
vn -0.2090 -0.8711 0.4445
vn -0.8273 -0.5590 -0.0553
vn -0.6479 -0.7150 0.2627
vn -0.8760 -0.3172 -0.3634
vn -0.7872 -0.0267 -0.6162
vn -0.5732 0.2696 -0.7738
vn -0.2668 0.5253 -0.8080
vn 0.0804 0.6979 -0.7117
vn 0.4089 0.7606 -0.5043
vn 0.6683 0.7090 -0.2253
vn 0.8266 0.5572 0.0798
vn 0.8687 0.3296 0.3697
vn 0.7915 0.0553 0.6086
vn 0.6012 -0.2315 0.7648
vn 0.3172 -0.4906 0.8116
vn -0.0228 -0.6780 0.7347
vn -0.3641 -0.7579 0.5413
vn -0.9407 -0.2980 0.1623
vn -0.7494 -0.5064 0.4266
vn -0.9913 -0.0510 -0.1212
vn -0.8985 0.2033 -0.3892
vn -0.6681 0.4327 -0.6054
vn -0.3249 0.6007 -0.7305
vn 0.0761 0.6734 -0.7353
vn 0.4598 0.6368 -0.6189
vn 0.7607 0.5034 -0.4097
vn 0.9419 0.3016 -0.1479
vn 0.9897 0.0619 0.1290
vn 0.9020 -0.1876 0.3889
vn 0.6833 -0.4167 0.5996
vn 0.3527 -0.5900 0.7263
vn -0.0439 -0.6715 0.7397
vn -0.4352 -0.6409 0.6323
vn -0.9410 -0.1316 0.3116
vn -0.7498 -0.3715 0.5476
vn -0.9917 0.1235 0.0354
vn -0.8988 0.3628 -0.2459
vn -0.6683 0.5537 -0.4967
vn -0.3250 0.6609 -0.6765
vn 0.0761 0.6589 -0.7484
vn 0.4600 0.5480 -0.6986
vn 0.7611 0.3550 -0.5429
vn 0.9423 0.1169 -0.3137
vn 0.9901 -0.1325 -0.0455
vn 0.9024 -0.3643 0.2302
vn 0.6836 -0.5497 0.4802
vn 0.3528 -0.6579 0.6654
vn -0.0439 -0.6634 0.7470
vn -0.4354 -0.5608 0.7042
vn -0.8285 0.1135 0.5484
vn -0.6487 -0.1855 0.7380
vn -0.8772 0.3938 0.2748
vn -0.7883 0.6140 -0.0411
vn -0.5740 0.7392 -0.3522
vn -0.2671 0.7464 -0.6096
vn 0.0805 0.6327 -0.7702
vn 0.4095 0.4203 -0.8097
vn 0.6692 0.1490 -0.7280
vn 0.8277 -0.1378 -0.5440
vn 0.8699 -0.4014 -0.2865
vn 0.7926 -0.6096 0.0116
vn 0.6020 -0.7344 0.3133
vn 0.3177 -0.7537 0.5754
vn -0.0228 -0.6577 0.7530
vn -0.3646 -0.4575 0.8111
vn -0.4781 0.3767 0.7935
vn -0.3736 0.0135 0.9275
vn -0.5065 0.6801 0.5301
vn -0.4546 0.8722 0.1803
vn -0.3303 0.9232 -0.1966
vn -0.1530 0.8286 -0.5386
vn 0.0484 0.6077 -0.7927
vn 0.2410 0.2980 -0.9237
vn 0.3955 -0.0520 -0.9170
vn 0.4912 -0.3913 -0.7782
vn 0.5170 -0.6730 -0.5290
vn 0.4699 -0.8588 -0.2041
vn 0.3552 -0.9223 0.1524
vn 0.1870 -0.8513 0.4902
vn -0.0116 -0.6516 0.7585
vn -0.2093 -0.3485 0.9136
vn -0.1206 0.4746 0.8719
vn -0.0965 0.0988 0.9904
vn -0.1270 0.7759 0.6179
vn -0.1153 0.9566 0.2677
vn -0.0861 0.9884 -0.1248
vn -0.0420 0.8663 -0.4977
vn 0.0108 0.6108 -0.7917
vn 0.0633 0.2641 -0.9624
vn 0.1066 -0.1192 -0.9871
vn 0.1338 -0.4822 -0.8658
vn 0.1412 -0.7734 -0.6180
vn 0.1277 -0.9515 -0.2797
vn 0.0952 -0.9903 0.1014
vn 0.0484 -0.8812 0.4703
vn -0.0052 -0.6370 0.7709
vn -0.0563 -0.2925 0.9546
vn 0.0004 0.4845 0.8748
vn 0.0002 0.1136 0.9935
vn 0.0004 0.7814 0.6240
vn 0.0003 0.9604 0.2787
vn 0.0002 0.9940 -0.1096
vn 0.0001 0.8760 -0.4823
vn -0.0000 0.6236 -0.7817
vn 0.0001 0.2757 -0.9612
vn 0.0002 -0.1135 -0.9935
vn 0.0004 -0.4844 -0.8748
vn 0.0004 -0.7814 -0.6240
vn 0.0003 -0.9604 -0.2787
vn 0.0002 -0.9940 0.1096
vn 0.0001 -0.8760 0.4823
vn -0.0000 -0.6236 0.7817
vn 0.0001 -0.2757 0.9612
vn -0.6800 -0.0000 -0.7332
vt 1.000000 0.500000
vt 0.000000 0.500000
vt 0.250000 0.490000
vt 0.796822 0.485388
vt 0.968750 1.000000
vt 0.841844 0.471731
vt 0.937500 1.000000
vt 0.883337 0.449553
vt 0.906250 1.000000
vt 0.919706 0.419706
vt 0.875000 1.000000
vt 0.949553 0.383337
vt 0.843750 1.000000
vt 0.971731 0.341844
vt 0.812500 1.000000
vt 0.985388 0.296822
vt 0.781250 1.000000
vt 0.990000 0.250000
vt 0.750000 1.000000
vt 0.985388 0.203178
vt 0.718750 1.000000
vt 0.971731 0.158156
vt 0.687500 1.000000
vt 0.949553 0.116663
vt 0.656250 1.000000
vt 0.919706 0.080294
vt 0.625000 1.000000
vt 0.883337 0.050447
vt 0.593750 1.000000
vt 0.841844 0.028269
vt 0.562500 1.000000
vt 0.796822 0.014612
vt 0.531250 1.000000
vt 0.750000 0.010000
vt 0.500000 1.000000
vt 0.703178 0.014612
vt 0.468750 1.000000
vt 0.658156 0.028269
vt 0.437500 1.000000
vt 0.616663 0.050447
vt 0.406250 1.000000
vt 0.580294 0.080294
vt 0.375000 1.000000
vt 0.550447 0.116663
vt 0.343750 1.000000
vt 0.528269 0.158156
vt 0.312500 1.000000
vt 0.514611 0.203179
vt 0.281250 1.000000
vt 0.250000 0.500000
vt 0.250000 1.000000
vt 0.514612 0.296822
vt 0.218750 1.000000
vt 0.528269 0.341844
vt 0.187500 1.000000
vt 0.550447 0.383337
vt 0.156250 1.000000
vt 0.580295 0.419706
vt 0.125000 1.000000
vt 0.616663 0.449553
vt 0.093750 1.000000
vt 0.658156 0.471731
vt 0.062500 1.000000
vt 0.703179 0.485389
vt 0.031250 1.000000
vt 0.312500 0.931484
vt 0.312500 0.568516
vt 0.375000 0.931484
vt 0.683819 0.183819
vt 0.906250 0.931484
vt 0.906250 0.568516
vt 0.281250 0.931484
vt 0.658204 0.231741
vt 0.937500 0.931484
vt 0.937500 0.568516
vt 0.250000 0.343594
vt 0.000000 0.568516
vt 1.000000 0.568516
vt 0.250000 0.931484
vt 0.656406 0.250000
vt 0.093750 0.931484
vt 0.698002 0.327821
vt 0.218750 0.931484
vt 0.658204 0.268259
vt 0.968750 0.931484
vt 0.768259 0.341796
vt 0.343750 0.931484
vt 0.343750 0.568516
vt 0.031250 0.931484
vt 0.731741 0.341796
vt 0.062500 0.931484
vt 0.062500 0.568516
vt 0.593750 0.931484
vt 0.593750 0.568516
vt 0.562500 0.931484
vt 0.562500 0.568516
vt 0.875000 0.931484
vt 0.816181 0.316181
vt 0.656250 0.931484
vt 0.827821 0.198002
vt 0.625000 0.931484
vt 0.625000 0.568516
vt 0.843750 0.931484
vt 0.827821 0.301998
vt 0.687500 0.931484
vt 0.836470 0.214183
vt 0.406250 0.931484
vt 0.698002 0.172179
vt 0.437500 0.931484
vt 0.437500 0.568516
vt 0.718750 0.931484
vt 0.718750 0.568516
vt 0.531250 0.931484
vt 0.531250 0.568516
vt 0.500000 0.931484
vt 0.500000 0.568516
vt 0.156250 0.931484
vt 0.156250 0.568516
vt 0.125000 0.931484
vt 0.683819 0.316181
vt 0.812500 0.931484
vt 0.836470 0.285817
vt 0.750000 0.931484
vt 0.750000 0.568516
vt 0.781250 0.931484
vt 0.781250 0.568516
vt 0.468750 0.931484
vt 0.731741 0.158204
vt 0.187500 0.931484
vt 0.187500 0.568516
vt 0.250000 0.500000
vt 0.250000 1.000000
vt 0.000000 0.000000
vt 0.000000 0.000000
vt 0.000000 0.000000
vt 0.000000 0.000000
vt 0.000000 0.000000
vt 0.000000 0.000000
vt 0.000000 0.000000
vt 0.000000 0.000000
vt 0.000000 0.000000
vt 0.000000 0.000000
vt 0.000000 0.000000
vt 0.000000 0.000000
vt 0.000000 0.000000
vt 0.000000 0.000000
vt 0.000000 0.000000
vt 0.000000 0.000000
vt 0.000000 0.000000
vt 0.000000 0.000000
vt 0.000000 0.000000
vt 0.000000 0.000000
vt 0.000000 0.000000
vt 0.000000 0.000000
vt 0.000000 0.000000
vt 0.000000 0.000000
vt 0.000000 0.000000
vt 0.000000 0.000000
vt 0.000000 0.000000
vt 0.000000 0.000000
vt 0.000000 0.000000
vt 0.000000 0.000000
vt 0.000000 0.000000
vt 0.000000 0.000000
vt 0.000000 0.000000
vt 0.000000 0.000000
vt 0.000000 0.000000
vt 0.000000 0.000000
vt 0.000000 0.000000
vt 0.000000 0.000000
vt 0.000000 0.000000
vt 0.000000 0.000000
vt 0.000000 0.000000
vt 0.000000 0.000000
vt 0.000000 0.000000
vt 0.000000 0.000000
vt 0.000000 0.000000
vt 0.000000 0.000000
vt 0.000000 0.000000
vt 0.000000 0.000000
vt 0.000000 0.000000
vt 0.000000 0.000000
vt 0.000000 0.000000
vt 0.000000 0.000000
vt 0.000000 0.000000
vt 0.000000 0.000000
vt 0.000000 0.000000
vt 0.000000 0.000000
vt 0.000000 0.000000
vt 0.000000 0.000000
vt 0.000000 0.000000
vt 0.000000 0.000000
vt 0.000000 0.000000
vt 0.000000 0.000000
vt 0.000000 0.000000
vt 0.000000 0.000000
vt 0.000000 0.000000
vt 0.000000 0.000000
vt 0.000000 0.000000
vt 0.000000 0.000000
vt 0.000000 0.000000
vt 0.000000 0.000000
vt 0.000000 0.000000
vt 0.000000 0.000000
vt 0.000000 0.000000
vt 0.000000 0.000000
vt 0.000000 0.000000
vt 0.000000 0.000000
vt 0.000000 0.000000
vt 0.000000 0.000000
vt 0.000000 0.000000
vt 0.000000 0.000000
vt 0.000000 0.000000
vt 0.000000 0.000000
vt 0.000000 0.000000
vt 0.000000 0.000000
vt 0.000000 0.000000
vt 0.000000 0.000000
vt 0.000000 0.000000
vt 0.000000 0.000000
vt 0.000000 0.000000
vt 0.000000 0.000000
vt 0.000000 0.000000
vt 0.000000 0.000000
vt 0.000000 0.000000
vt 0.000000 0.000000
vt 0.000000 0.000000
vt 0.000000 0.000000
vt 0.000000 0.000000
vt 0.000000 0.000000
vt 0.000000 0.000000
vt 0.000000 0.000000
vt 0.000000 0.000000
vt 0.000000 0.000000
vt 0.000000 0.000000
vt 0.000000 0.000000
vt 0.000000 0.000000
vt 0.000000 0.000000
vt 0.000000 0.000000
vt 0.000000 0.000000
vt 0.000000 0.000000
vt 0.000000 0.000000
vt 0.000000 0.000000
vt 0.000000 0.000000
vt 0.000000 0.000000
vt 0.000000 0.000000
vt 0.000000 0.000000
vt 0.000000 0.000000
vt 0.000000 0.000000
vt 0.000000 0.000000
vt 0.000000 0.000000
vt 0.000000 0.000000
vt 0.000000 0.000000
vt 0.000000 0.000000
vt 0.000000 0.000000
vt 0.000000 0.000000
vt 0.000000 0.000000
vt 0.000000 0.000000
vt 0.000000 0.000000
vt 0.000000 0.000000
vt 0.000000 0.000000
vt 0.000000 0.000000
vt 0.000000 0.000000
vt 0.000000 0.000000
vt 0.000000 0.000000
vt 0.000000 0.000000
vt 0.000000 0.000000
vt 0.000000 0.000000
vt 0.000000 0.000000
vt 0.000000 0.000000
vt 0.000000 0.000000
vt 0.000000 0.000000
vt 0.000000 0.000000
vt 0.000000 0.000000
vt 0.000000 0.000000
vt 0.000000 0.000000
vt 0.000000 0.000000
vt 0.000000 0.000000
vt 0.000000 0.000000
vt 0.000000 0.000000
vt 0.000000 0.000000
vt 0.000000 0.000000
vt 0.000000 0.000000
vt 0.000000 0.000000
vt 0.000000 0.000000
vt 0.000000 0.000000
vt 0.000000 0.000000
vt 0.000000 0.000000
vt 0.000000 0.000000
vt 0.000000 0.000000
vt 0.000000 0.000000
vt 0.000000 0.000000
vt 0.000000 0.000000
vt 0.000000 0.000000
vt 0.000000 0.000000
vt 0.000000 0.000000
vt 0.000000 0.000000
vt 0.000000 0.000000
vt 0.000000 0.000000
vt 0.000000 0.000000
vt 0.000000 0.000000
vt 0.000000 0.000000
vt 0.000000 0.000000
vt 0.000000 0.000000
vt 0.000000 0.000000
vt 0.000000 0.000000
vt 0.000000 0.000000
vt 0.000000 0.000000
vt 0.000000 0.000000
vt 0.000000 0.000000
vt 0.000000 0.000000
vt 0.000000 0.000000
vt 0.000000 0.000000
vt 0.000000 0.000000
vt 0.000000 0.000000
vt 0.000000 0.000000
vt 0.000000 0.000000
vt 0.000000 0.000000
vt 0.000000 0.000000
vt 0.000000 0.000000
vt 0.000000 0.000000
vt 0.000000 0.000000
vt 0.000000 0.000000
vt 0.000000 0.000000
vt 0.000000 0.000000
vt 0.000000 0.000000
vt 0.000000 0.000000
vt 0.000000 0.000000
vt 0.000000 0.000000
vt 0.000000 0.000000
vt 0.000000 0.000000
vt 0.000000 0.000000
vt 0.000000 0.000000
vt 0.000000 0.000000
vt 0.000000 0.000000
vt 0.000000 0.000000
vt 0.000000 0.000000
vt 0.000000 0.000000
vt 0.000000 0.000000
vt 0.000000 0.000000
vt 0.000000 0.000000
vt 0.000000 0.000000
vt 0.000000 0.000000
vt 0.000000 0.000000
vt 0.000000 0.000000
vt 0.000000 0.000000
vt 0.000000 0.000000
vt 0.000000 0.000000
vt 0.000000 0.000000
vt 0.000000 0.000000
vt 0.000000 0.000000
vt 0.000000 0.000000
vt 0.000000 0.000000
vt 0.000000 0.000000
vt 0.000000 0.000000
vt 0.000000 0.000000
vt 0.125000 0.750000
vt 0.875000 0.750000
vt 0.125000 0.500000
vt 0.875000 0.500000
vt 0.375000 0.750000
vt 0.625000 0.750000
vt 0.375000 0.500000
vt 0.625000 0.500000
vt 0.750000 0.490000
vt 0.968750 0.500000
vt 0.296822 0.485388
vt 1.000000 1.000000
vt 0.000000 1.000000
vt 0.937500 0.500000
vt 0.341844 0.471731
vt 0.906250 0.500000
vt 0.383337 0.449553
vt 0.875000 0.500000
vt 0.419706 0.419706
vt 0.843750 0.500000
vt 0.449553 0.383337
vt 0.812500 0.500000
vt 0.471731 0.341844
vt 0.781250 0.500000
vt 0.485388 0.296822
vt 0.750000 0.500000
vt 0.490000 0.250000
vt 0.718750 0.500000
vt 0.485388 0.203178
vt 0.687500 0.500000
vt 0.471731 0.158156
vt 0.656250 0.500000
vt 0.449553 0.116663
vt 0.625000 0.500000
vt 0.419706 0.080294
vt 0.593750 0.500000
vt 0.383337 0.050447
vt 0.562500 0.500000
vt 0.341844 0.028269
vt 0.531250 0.500000
vt 0.296822 0.014612
vt 0.500000 0.500000
vt 0.250000 0.010000
vt 0.468750 0.500000
vt 0.203178 0.014612
vt 0.437500 0.500000
vt 0.158156 0.028269
vt 0.406250 0.500000
vt 0.116663 0.050447
vt 0.375000 0.500000
vt 0.080294 0.080294
vt 0.343750 0.500000
vt 0.050447 0.116663
vt 0.312500 0.500000
vt 0.028269 0.158156
vt 0.281250 0.500000
vt 0.014611 0.203179
vt 0.250000 0.500000
vt 0.250000 0.500000
vt 0.510000 0.250000
vt 0.010000 0.250000
vt 0.250000 1.000000
vt 0.250000 1.000000
vt 0.218750 0.500000
vt 0.014612 0.296822
vt 0.187500 0.500000
vt 0.028269 0.341844
vt 0.156250 0.500000
vt 0.050447 0.383337
vt 0.125000 0.500000
vt 0.080295 0.419706
vt 0.093750 0.500000
vt 0.116663 0.449553
vt 0.062500 0.500000
vt 0.158156 0.471731
vt 0.031250 0.500000
vt 0.203179 0.485389
vt 0.663530 0.214183
vt 0.672179 0.198002
vt 0.183819 0.183819
vt 0.198002 0.172179
vt 0.375000 0.568516
vt 0.406250 0.568516
vt 0.301998 0.327821
vt 0.285817 0.336470
vt 0.801998 0.327821
vt 0.785817 0.336470
vt 0.281250 0.568516
vt 0.968750 0.568516
vt 0.156406 0.250000
vt 0.158204 0.268259
vt 0.093750 0.568516
vt 0.125000 0.568516
vt 0.218750 0.568516
vt 0.250000 0.568516
vt 0.268259 0.341796
vt 0.172179 0.198002
vt 0.163530 0.214183
vt 0.158204 0.231741
vt 0.231741 0.341796
vt 0.000000 0.931484
vt 1.000000 0.931484
vt 0.198002 0.327821
vt 0.214183 0.336470
vt 0.714183 0.336470
vt 0.031250 0.568516
vt 0.750000 0.343594
vt 0.301998 0.172179
vt 0.316181 0.183819
vt 0.801998 0.172179
vt 0.816181 0.183819
vt 0.316181 0.316181
vt 0.327821 0.301998
vt 0.285817 0.163530
vt 0.785817 0.163530
vt 0.656250 0.568516
vt 0.687500 0.568516
vt 0.843750 0.568516
vt 0.875000 0.568516
vt 0.336470 0.214183
vt 0.327821 0.198002
vt 0.163530 0.285817
vt 0.214183 0.163530
vt 0.714183 0.163530
vt 0.341796 0.231741
vt 0.841796 0.231741
vt 0.250000 0.156406
vt 0.268259 0.158204
vt 0.750000 0.156406
vt 0.768259 0.158204
vt 0.336470 0.285817
vt 0.172179 0.301998
vt 0.672179 0.301998
vt 0.663530 0.285817
vt 0.183819 0.316181
vt 0.812500 0.568516
vt 0.343594 0.250000
vt 0.341796 0.268259
vt 0.843594 0.250000
vt 0.841796 0.268259
vt 0.231741 0.158204
vt 0.468750 0.568516
vt 0.000000 0.000000
vt 0.000000 0.000000
vt 0.000000 0.000000
vt 0.000000 0.000000
vt 0.000000 0.000000
vt 0.000000 0.000000
vt 0.000000 0.000000
vt 0.000000 0.000000
vt 0.000000 0.000000
vt 0.000000 0.000000
vt 0.000000 0.000000
vt 0.000000 0.000000
vt 0.000000 0.000000
vt 0.000000 0.000000
vt 0.000000 0.000000
vt 0.000000 0.000000
vt 0.000000 0.000000
vt 0.000000 0.000000
vt 0.000000 0.000000
vt 0.000000 0.000000
vt 0.000000 0.000000
vt 0.000000 0.000000
vt 0.000000 0.000000
vt 0.000000 0.000000
vt 0.000000 0.000000
vt 0.000000 0.000000
vt 0.000000 0.000000
vt 0.000000 0.000000
vt 0.000000 0.000000
vt 0.000000 0.000000
vt 0.000000 0.000000
vt 0.000000 0.000000
vt 0.375000 0.250000
vt 0.375000 0.250000
vt 0.375000 0.000000
vt 0.375000 1.000000
vt 0.625000 0.000000
vt 0.625000 1.000000
vt 0.625000 0.250000
vt 0.625000 0.250000
vt 0.375000 0.500000
vt 0.375000 0.500000
vt 0.625000 0.500000
vt 0.625000 0.500000
vt 0.375000 0.750000
vt 0.375000 0.750000
vt 0.625000 0.750000
vt 0.625000 0.750000
s 1
usemtl paper
f 1/1/1 366/368/1 4/5/2 364/366/2
f 364/366/2 4/5/2 6/7/3 367/370/3
f 367/370/3 6/7/3 8/9/4 369/372/4
f 369/372/4 8/9/4 10/11/5 371/374/5
f 371/374/5 10/11/5 12/13/6 373/376/6
f 373/376/6 12/13/6 14/15/7 375/378/7
f 375/378/7 14/15/7 16/17/8 377/380/8
f 377/380/8 16/17/8 18/19/9 379/382/9
f 379/382/9 18/19/9 20/21/10 381/384/10
f 381/384/10 20/21/10 22/23/11 383/386/11
f 383/386/11 22/23/11 24/25/12 385/388/12
f 385/388/12 24/25/12 26/27/13 387/390/13
f 387/390/13 26/27/13 28/29/14 389/392/14
f 389/392/14 28/29/14 30/31/15 391/394/15
f 391/394/15 30/31/15 32/33/16 393/396/16
f 393/396/16 32/33/16 34/35/17 395/398/17
f 395/398/17 34/35/17 36/37/18 397/400/18
f 397/400/18 36/37/18 38/39/19 399/402/19
f 399/402/19 38/39/19 40/41/20 401/404/20
f 401/404/20 40/41/20 42/43/21 403/406/21
f 403/406/21 42/43/21 44/45/22 405/408/22
f 405/408/22 44/45/22 46/47/23 407/410/23
f 407/410/23 46/47/23 48/49/24 409/412/24
f 409/412/24 48/49/24 415/418/25 411/414/25
f 412/415/26 416/419/26 52/53/27 417/420/27
f 417/420/27 52/53/27 54/55/28 419/422/28
f 419/422/28 54/55/28 56/57/29 421/424/29
f 421/424/29 56/57/29 58/59/30 423/426/30
f 423/426/30 58/59/30 60/61/31 425/428/31
f 425/428/31 60/61/31 62/63/32 427/430/32
f 427/430/32 62/63/32 64/65/33 429/432/33
f 429/432/33 64/65/33 366/369/1 1/2/1
f 446/449/13 117/119/13 115/117/12 116/118/12
f 434/437/34 433/436/34 404/407/34 402/405/34
f 458/462/16 87/89/16 89/91/15 90/92/15
f 481/485/35 482/486/35 31/32/35 33/34/35
f 447/450/10 81/83/10 77/79/9 448/451/9
f 433/436/34 450/453/34 406/409/34 404/407/34
f 432/435/35 68/69/35 41/42/35 43/44/35
f 104/106/35 478/482/35 19/20/35 21/22/35
f 128/130/11 127/129/11 81/83/10 447/450/10
f 493/497/34 475/479/34 400/403/34 398/401/34
f 74/75/19 73/74/19 83/85/18 442/445/18
f 468/472/29 97/99/29 103/105/28 469/473/28
f 459/463/35 88/90/35 63/64/35 363/365/35
f 490/494/34 489/493/34 380/383/34 378/381/34
f 470/474/22 101/103/22 95/97/21 471/475/21
f 88/90/35 457/461/35 61/62/35 63/64/35
f 126/128/35 481/485/35 33/34/35 35/36/35
f 456/460/34 453/456/34 430/433/34 428/431/34
f 431/434/35 432/435/35 43/44/35 45/46/35
f 460/464/34 466/470/34 392/395/34 390/393/34
f 462/466/35 463/467/35 25/26/35 27/28/35
f 438/441/34 437/440/34 370/373/34 368/371/34
f 102/104/35 96/98/35 9/10/35 11/12/35
f 492/496/35 120/122/35 13/14/35 15/16/35
f 475/479/34 434/437/34 402/405/34 400/403/34
f 482/486/35 467/471/35 29/30/35 31/32/35
f 435/438/5 67/68/5 105/107/4 436/439/4
f 457/461/35 80/82/35 59/60/35 61/62/35
f 469/473/28 103/105/28 109/111/27 110/112/27
f 68/69/35 106/108/35 39/40/35 41/42/35
f 488/492/23 119/121/23 101/103/22 470/474/22
f 448/451/9 77/79/9 71/72/8 441/444/8
f 491/495/35 492/496/35 15/16/35 17/18/35
f 466/470/34 480/484/34 394/397/34 392/395/34
f 484/488/34 487/491/34 424/427/34 422/425/34
f 76/77/17 454/457/17 87/89/16 458/462/16
f 82/84/35 78/80/35 413/416/35 51/52/35
f 439/442/35 440/443/35 5/6/35 7/8/35
f 449/452/34 438/441/34 368/371/34 365/367/34
f 124/126/24 123/125/24 119/121/23 488/492/23
f 463/467/35 98/100/35 23/24/35 25/26/35
f 440/443/35 84/86/35 3/4/35 5/6/35
f 467/471/35 462/466/35 27/28/35 29/30/35
f 84/86/35 459/463/35 363/365/35 3/4/35
f 483/487/34 490/494/34 378/381/34 376/379/34
f 94/96/32 93/95/32 91/93/31 92/94/31
f 98/100/35 104/106/35 21/22/35 23/24/35
f 90/92/15 89/91/15 79/81/14 445/448/14
f 474/478/34 484/488/34 422/425/34 420/423/34
f 445/448/14 79/81/14 117/119/13 446/449/13
f 461/465/34 460/464/34 390/393/34 388/391/34
f 66/67/7 65/66/7 85/87/6 86/88/6
f 106/108/35 476/480/35 37/38/35 39/40/35
f 464/468/34 465/469/34 374/377/34 372/375/34
f 479/483/34 493/497/34 398/401/34 396/399/34
f 118/120/35 485/489/35 55/56/35 57/58/35
f 112/114/33 111/113/33 93/95/32 94/96/32
f 441/444/8 71/72/8 65/66/7 66/67/7
f 486/490/35 82/84/35 51/52/35 53/54/35
f 472/476/34 473/477/34 386/389/34 384/387/34
f 75/76/34 449/452/34 365/367/34 2/3/34
f 444/447/34 474/478/34 420/423/34 418/421/34
f 471/475/21 95/97/21 69/70/20 70/71/20
f 473/477/34 461/465/34 388/391/34 386/389/34
f 478/482/35 491/495/35 17/18/35 19/20/35
f 108/110/3 107/109/3 125/127/2 494/498/2
f 100/102/30 99/101/30 97/99/29 468/472/29
f 485/489/35 486/490/35 53/54/35 55/56/35
f 80/82/35 118/120/35 57/58/35 59/60/35
f 70/71/20 69/70/20 73/74/19 74/75/19
f 110/112/27 109/111/27 121/123/36 122/124/36
f 78/80/35 72/73/35 47/48/35 413/416/35
f 494/498/2 125/127/2 113/115/1 114/116/1
f 480/484/34 479/483/34 396/399/34 394/397/34
f 455/459/34 456/460/34 428/431/34 426/429/34
f 476/480/35 126/128/35 35/36/35 37/38/35
f 487/491/34 455/459/34 426/429/34 424/427/34
f 72/73/35 431/434/35 45/46/35 47/48/35
f 452/455/34 443/446/34 414/417/34 410/413/34
f 442/445/18 83/85/18 454/458/17 76/78/17
f 465/469/34 483/487/34 376/379/34 374/377/34
f 92/94/31 91/93/31 99/101/30 100/102/30
f 86/88/6 85/87/6 67/68/5 435/438/5
f 122/124/36 121/123/36 123/125/24 124/126/24
f 437/440/34 464/468/34 372/375/34 370/373/34
f 443/446/34 444/447/34 418/421/34 414/417/34
f 116/118/12 115/117/12 127/129/11 128/130/11
f 477/481/34 472/476/34 384/387/34 382/385/34
f 453/456/34 75/76/34 2/3/34 430/433/34
f 489/493/34 477/481/34 382/385/34 380/383/34
f 96/98/35 439/442/35 7/8/35 9/10/35
f 120/122/35 102/104/35 11/12/35 13/14/35
f 114/116/1 113/115/1 111/113/33 112/114/33
f 436/439/4 105/107/4 107/109/3 108/110/3
f 451/454/34 452/455/34 410/413/34 408/411/34
f 450/453/34 451/454/34 408/411/34 406/409/34
f 50/51/36 49/50/36 129/131/36 130/132/36
usemtl metal
f 495/499/37 147/149/38 162/164/39 496/500/40
f 497/501/41 148/150/42 147/149/38 495/499/37
f 498/502/43 149/151/44 148/150/42 497/501/41
f 499/503/45 150/152/46 149/151/44 498/502/43
f 500/504/47 151/153/48 150/152/46 499/503/45
f 501/505/49 152/154/50 151/153/48 500/504/47
f 502/506/51 153/155/52 152/154/50 501/505/49
f 503/507/53 154/156/54 153/155/52 502/506/51
f 504/508/55 155/157/56 154/156/54 503/507/53
f 505/509/57 156/158/58 155/157/56 504/508/55
f 506/510/59 157/159/60 156/158/58 505/509/57
f 507/511/61 158/160/62 157/159/60 506/510/59
f 508/512/63 159/161/64 158/160/62 507/511/61
f 509/513/65 160/162/66 159/161/64 508/512/63
f 510/514/67 161/163/68 160/162/66 509/513/65
f 496/500/40 162/164/39 161/163/68 510/514/67
f 147/149/38 163/165/69 178/180/70 162/164/39
f 148/150/42 164/166/71 163/165/69 147/149/38
f 149/151/44 165/167/72 164/166/71 148/150/42
f 150/152/46 166/168/73 165/167/72 149/151/44
f 151/153/48 167/169/74 166/168/73 150/152/46
f 152/154/50 168/170/75 167/169/74 151/153/48
f 153/155/52 169/171/76 168/170/75 152/154/50
f 154/156/54 170/172/77 169/171/76 153/155/52
f 155/157/56 171/173/78 170/172/77 154/156/54
f 156/158/58 172/174/79 171/173/78 155/157/56
f 157/159/60 173/175/80 172/174/79 156/158/58
f 158/160/62 174/176/81 173/175/80 157/159/60
f 159/161/64 175/177/82 174/176/81 158/160/62
f 160/162/66 176/178/83 175/177/82 159/161/64
f 161/163/68 177/179/84 176/178/83 160/162/66
f 162/164/39 178/180/70 177/179/84 161/163/68
f 163/165/69 179/181/85 194/196/86 178/180/70
f 164/166/71 180/182/87 179/181/85 163/165/69
f 165/167/72 181/183/88 180/182/87 164/166/71
f 166/168/73 182/184/89 181/183/88 165/167/72
f 167/169/74 183/185/90 182/184/89 166/168/73
f 168/170/75 184/186/91 183/185/90 167/169/74
f 169/171/76 185/187/92 184/186/91 168/170/75
f 170/172/77 186/188/93 185/187/92 169/171/76
f 171/173/78 187/189/94 186/188/93 170/172/77
f 172/174/79 188/190/95 187/189/94 171/173/78
f 173/175/80 189/191/96 188/190/95 172/174/79
f 174/176/81 190/192/97 189/191/96 173/175/80
f 175/177/82 191/193/98 190/192/97 174/176/81
f 176/178/83 192/194/99 191/193/98 175/177/82
f 177/179/84 193/195/100 192/194/99 176/178/83
f 178/180/70 194/196/86 193/195/100 177/179/84
f 179/181/85 195/197/101 210/212/102 194/196/86
f 180/182/87 196/198/103 195/197/101 179/181/85
f 181/183/88 197/199/104 196/198/103 180/182/87
f 182/184/89 198/200/105 197/199/104 181/183/88
f 183/185/90 199/201/106 198/200/105 182/184/89
f 184/186/91 200/202/107 199/201/106 183/185/90
f 185/187/92 201/203/108 200/202/107 184/186/91
f 186/188/93 202/204/109 201/203/108 185/187/92
f 187/189/94 203/205/110 202/204/109 186/188/93
f 188/190/95 204/206/111 203/205/110 187/189/94
f 189/191/96 205/207/112 204/206/111 188/190/95
f 190/192/97 206/208/113 205/207/112 189/191/96
f 191/193/98 207/209/114 206/208/113 190/192/97
f 192/194/99 208/210/115 207/209/114 191/193/98
f 193/195/100 209/211/116 208/210/115 192/194/99
f 194/196/86 210/212/102 209/211/116 193/195/100
f 195/197/101 211/213/117 226/228/118 210/212/102
f 196/198/103 212/214/119 211/213/117 195/197/101
f 197/199/104 213/215/120 212/214/119 196/198/103
f 198/200/105 214/216/121 213/215/120 197/199/104
f 199/201/106 215/217/122 214/216/121 198/200/105
f 200/202/107 216/218/123 215/217/122 199/201/106
f 201/203/108 217/219/124 216/218/123 200/202/107
f 202/204/109 218/220/125 217/219/124 201/203/108
f 203/205/110 219/221/126 218/220/125 202/204/109
f 204/206/111 220/222/127 219/221/126 203/205/110
f 205/207/112 221/223/128 220/222/127 204/206/111
f 206/208/113 222/224/129 221/223/128 205/207/112
f 207/209/114 223/225/130 222/224/129 206/208/113
f 208/210/115 224/226/131 223/225/130 207/209/114
f 209/211/116 225/227/132 224/226/131 208/210/115
f 210/212/102 226/228/118 225/227/132 209/211/116
f 211/213/117 227/229/133 242/244/134 226/228/118
f 212/214/119 228/230/135 227/229/133 211/213/117
f 213/215/120 229/231/136 228/230/135 212/214/119
f 214/216/121 230/232/137 229/231/136 213/215/120
f 215/217/122 231/233/138 230/232/137 214/216/121
f 216/218/123 232/234/139 231/233/138 215/217/122
f 217/219/124 233/235/140 232/234/139 216/218/123
f 218/220/125 234/236/141 233/235/140 217/219/124
f 219/221/126 235/237/142 234/236/141 218/220/125
f 220/222/127 236/238/143 235/237/142 219/221/126
f 221/223/128 237/239/144 236/238/143 220/222/127
f 222/224/129 238/240/145 237/239/144 221/223/128
f 223/225/130 239/241/146 238/240/145 222/224/129
f 224/226/131 240/242/147 239/241/146 223/225/130
f 225/227/132 241/243/148 240/242/147 224/226/131
f 226/228/118 242/244/134 241/243/148 225/227/132
f 227/229/133 243/245/149 258/260/150 242/244/134
f 228/230/135 244/246/151 243/245/149 227/229/133
f 229/231/136 245/247/152 244/246/151 228/230/135
f 230/232/137 246/248/153 245/247/152 229/231/136
f 231/233/138 247/249/154 246/248/153 230/232/137
f 232/234/139 248/250/155 247/249/154 231/233/138
f 233/235/140 249/251/156 248/250/155 232/234/139
f 234/236/141 250/252/157 249/251/156 233/235/140
f 235/237/142 251/253/158 250/252/157 234/236/141
f 236/238/143 252/254/159 251/253/158 235/237/142
f 237/239/144 253/255/160 252/254/159 236/238/143
f 238/240/145 254/256/161 253/255/160 237/239/144
f 239/241/146 255/257/162 254/256/161 238/240/145
f 240/242/147 256/258/163 255/257/162 239/241/146
f 241/243/148 257/259/164 256/258/163 240/242/147
f 242/244/134 258/260/150 257/259/164 241/243/148
f 243/245/149 259/261/165 274/276/166 258/260/150
f 244/246/151 260/262/167 259/261/165 243/245/149
f 245/247/152 261/263/168 260/262/167 244/246/151
f 246/248/153 262/264/169 261/263/168 245/247/152
f 247/249/154 263/265/170 262/264/169 246/248/153
f 248/250/155 264/266/171 263/265/170 247/249/154
f 249/251/156 265/267/172 264/266/171 248/250/155
f 250/252/157 266/268/173 265/267/172 249/251/156
f 251/253/158 267/269/174 266/268/173 250/252/157
f 252/254/159 268/270/175 267/269/174 251/253/158
f 253/255/160 269/271/176 268/270/175 252/254/159
f 254/256/161 270/272/177 269/271/176 253/255/160
f 255/257/162 271/273/178 270/272/177 254/256/161
f 256/258/163 272/274/179 271/273/178 255/257/162
f 257/259/164 273/275/180 272/274/179 256/258/163
f 258/260/150 274/276/166 273/275/180 257/259/164
f 259/261/165 275/277/181 290/292/182 274/276/166
f 260/262/167 276/278/183 275/277/181 259/261/165
f 261/263/168 277/279/184 276/278/183 260/262/167
f 262/264/169 278/280/185 277/279/184 261/263/168
f 263/265/170 279/281/186 278/280/185 262/264/169
f 264/266/171 280/282/187 279/281/186 263/265/170
f 265/267/172 281/283/188 280/282/187 264/266/171
f 266/268/173 282/284/189 281/283/188 265/267/172
f 267/269/174 283/285/190 282/284/189 266/268/173
f 268/270/175 284/286/191 283/285/190 267/269/174
f 269/271/176 285/287/192 284/286/191 268/270/175
f 270/272/177 286/288/193 285/287/192 269/271/176
f 271/273/178 287/289/194 286/288/193 270/272/177
f 272/274/179 288/290/195 287/289/194 271/273/178
f 273/275/180 289/291/196 288/290/195 272/274/179
f 274/276/166 290/292/182 289/291/196 273/275/180
f 275/277/181 291/293/197 306/308/198 290/292/182
f 276/278/183 292/294/199 291/293/197 275/277/181
f 277/279/184 293/295/200 292/294/199 276/278/183
f 278/280/185 294/296/201 293/295/200 277/279/184
f 279/281/186 295/297/202 294/296/201 278/280/185
f 280/282/187 296/298/203 295/297/202 279/281/186
f 281/283/188 297/299/204 296/298/203 280/282/187
f 282/284/189 298/300/205 297/299/204 281/283/188
f 283/285/190 299/301/206 298/300/205 282/284/189
f 284/286/191 300/302/207 299/301/206 283/285/190
f 285/287/192 301/303/208 300/302/207 284/286/191
f 286/288/193 302/304/209 301/303/208 285/287/192
f 287/289/194 303/305/210 302/304/209 286/288/193
f 288/290/195 304/306/211 303/305/210 287/289/194
f 289/291/196 305/307/212 304/306/211 288/290/195
f 290/292/182 306/308/198 305/307/212 289/291/196
f 291/293/197 307/309/213 322/324/214 306/308/198
f 292/294/199 308/310/215 307/309/213 291/293/197
f 293/295/200 309/311/216 308/310/215 292/294/199
f 294/296/201 310/312/217 309/311/216 293/295/200
f 295/297/202 311/313/218 310/312/217 294/296/201
f 296/298/203 312/314/219 311/313/218 295/297/202
f 297/299/204 313/315/220 312/314/219 296/298/203
f 298/300/205 314/316/221 313/315/220 297/299/204
f 299/301/206 315/317/222 314/316/221 298/300/205
f 300/302/207 316/318/223 315/317/222 299/301/206
f 301/303/208 317/319/224 316/318/223 300/302/207
f 302/304/209 318/320/225 317/319/224 301/303/208
f 303/305/210 319/321/226 318/320/225 302/304/209
f 304/306/211 320/322/227 319/321/226 303/305/210
f 305/307/212 321/323/228 320/322/227 304/306/211
f 306/308/198 322/324/214 321/323/228 305/307/212
f 307/309/213 323/325/229 338/340/230 322/324/214
f 308/310/215 324/326/231 323/325/229 307/309/213
f 309/311/216 325/327/232 324/326/231 308/310/215
f 310/312/217 326/328/233 325/327/232 309/311/216
f 311/313/218 327/329/234 326/328/233 310/312/217
f 312/314/219 328/330/235 327/329/234 311/313/218
f 313/315/220 329/331/236 328/330/235 312/314/219
f 314/316/221 330/332/237 329/331/236 313/315/220
f 315/317/222 331/333/238 330/332/237 314/316/221
f 316/318/223 332/334/239 331/333/238 315/317/222
f 317/319/224 333/335/240 332/334/239 316/318/223
f 318/320/225 334/336/241 333/335/240 317/319/224
f 319/321/226 335/337/242 334/336/241 318/320/225
f 320/322/227 336/338/243 335/337/242 319/321/226
f 321/323/228 337/339/244 336/338/243 320/322/227
f 322/324/214 338/340/230 337/339/244 321/323/228
f 323/325/229 511/515/245 512/516/246 338/340/230
f 324/326/231 513/517/247 511/515/245 323/325/229
f 325/327/232 514/518/248 513/517/247 324/326/231
f 326/328/233 515/519/249 514/518/248 325/327/232
f 327/329/234 516/520/250 515/519/249 326/328/233
f 328/330/235 517/521/251 516/520/250 327/329/234
f 329/331/236 518/522/252 517/521/251 328/330/235
f 330/332/237 519/523/253 518/522/252 329/331/236
f 331/333/238 520/524/254 519/523/253 330/332/237
f 332/334/239 521/525/255 520/524/254 331/333/238
f 333/335/240 522/526/256 521/525/255 332/334/239
f 334/336/241 523/527/257 522/526/256 333/335/240
f 335/337/242 524/528/258 523/527/257 334/336/241
f 336/338/243 525/529/259 524/528/258 335/337/242
f 337/339/244 526/530/260 525/529/259 336/338/243
f 338/340/230 512/516/246 526/530/260 337/339/244
f 354/356/35 339/341/35 340/342/35 341/343/35 342/344/35 343/345/35 344/346/35 345/347/35 346/348/35 347/349/35 348/350/35 349/351/35 350/352/35 351/353/35 352/354/35 353/355/35
f 146/148/261 145/147/261 144/146/261 143/145/261 142/144/261 141/143/261 140/142/261 139/141/261 138/140/261 137/139/261 136/138/261 135/137/261 134/136/261 133/135/261 132/134/261 131/133/261
f 529/533/36 531/535/36 533/537/36 527/531/36
f 528/532/35 534/538/35 537/541/35 535/539/35
f 536/540/9 538/542/9 541/545/9 539/543/9
f 540/544/34 542/546/34 532/536/34 530/534/34
f 357/359/17 361/363/17 359/361/17 355/357/17
f 362/364/1 358/360/1 356/358/1 360/362/1
